<svg width="217" height="269" viewBox="0 0 217 269" fill="none" xmlns="http://www.w3.org/2000/svg">
<g clip-path="url(#clip0_1084_14420)">
<rect x="0.5" width="216" height="269" rx="16" fill="#00DEA3"/>
<g filter="url(#filter0_d_1084_14420)">
<circle cx="108" cy="63" r="36" fill="white"/>
</g>
<path opacity="0.4" d="M122.85 61.5332C122.85 69.6832 116.934 77.3165 108.85 79.5498C108.3 79.6998 107.7 79.6998 107.15 79.5498C99.067 77.3165 93.1504 69.6832 93.1504 61.5332V54.2165C93.1504 52.8499 94.1837 51.2999 95.4671 50.7832L104.75 46.9832C106.834 46.1332 109.184 46.1332 111.267 46.9832L120.55 50.7832C121.817 51.2999 122.867 52.8499 122.867 54.2165L122.85 61.5332Z" fill="#00DEA3"/>
<path d="M112.167 60.4967C112.167 58.1967 110.3 56.3301 108 56.3301C105.7 56.3301 103.833 58.1967 103.833 60.4967C103.833 62.3634 105.067 63.9134 106.75 64.4467V68.8301C106.75 69.5134 107.317 70.0801 108 70.0801C108.683 70.0801 109.25 69.5134 109.25 68.8301V64.4467C110.933 63.9134 112.167 62.3634 112.167 60.4967Z" fill="#00DEA3"/>
<path d="M45.38 129L40.66 122.8V129H37.24V114.96H40.66V121.12L45.34 114.96H49.36L43.92 121.84L49.56 129H45.38ZM62.0253 123.24C62.0253 123.56 62.0053 123.893 61.9653 124.24H54.2253C54.2786 124.933 54.4986 125.467 54.8853 125.84C55.2853 126.2 55.772 126.38 56.3453 126.38C57.1986 126.38 57.792 126.02 58.1253 125.3H61.7653C61.5786 126.033 61.2386 126.693 60.7453 127.28C60.2653 127.867 59.6586 128.327 58.9253 128.66C58.192 128.993 57.372 129.16 56.4653 129.16C55.372 129.16 54.3986 128.927 53.5453 128.46C52.692 127.993 52.0253 127.327 51.5453 126.46C51.0653 125.593 50.8253 124.58 50.8253 123.42C50.8253 122.26 51.0586 121.247 51.5253 120.38C52.0053 119.513 52.672 118.847 53.5253 118.38C54.3786 117.913 55.3586 117.68 56.4653 117.68C57.5453 117.68 58.5053 117.907 59.3453 118.36C60.1853 118.813 60.8386 119.46 61.3053 120.3C61.7853 121.14 62.0253 122.12 62.0253 123.24ZM58.5253 122.34C58.5253 121.753 58.3253 121.287 57.9253 120.94C57.5253 120.593 57.0253 120.42 56.4253 120.42C55.852 120.42 55.3653 120.587 54.9653 120.92C54.5786 121.253 54.3386 121.727 54.2453 122.34H58.5253ZM74.6695 123.24C74.6695 123.56 74.6495 123.893 74.6095 124.24H66.8695C66.9229 124.933 67.1429 125.467 67.5295 125.84C67.9295 126.2 68.4162 126.38 68.9895 126.38C69.8429 126.38 70.4362 126.02 70.7695 125.3H74.4095C74.2229 126.033 73.8829 126.693 73.3895 127.28C72.9095 127.867 72.3029 128.327 71.5695 128.66C70.8362 128.993 70.0162 129.16 69.1095 129.16C68.0162 129.16 67.0429 128.927 66.1895 128.46C65.3362 127.993 64.6695 127.327 64.1895 126.46C63.7095 125.593 63.4695 124.58 63.4695 123.42C63.4695 122.26 63.7029 121.247 64.1695 120.38C64.6495 119.513 65.3162 118.847 66.1695 118.38C67.0229 117.913 68.0029 117.68 69.1095 117.68C70.1895 117.68 71.1495 117.907 71.9895 118.36C72.8295 118.813 73.4829 119.46 73.9495 120.3C74.4295 121.14 74.6695 122.12 74.6695 123.24ZM71.1695 122.34C71.1695 121.753 70.9695 121.287 70.5695 120.94C70.1695 120.593 69.6695 120.42 69.0695 120.42C68.4962 120.42 68.0095 120.587 67.6095 120.92C67.2229 121.253 66.9829 121.727 66.8895 122.34H71.1695ZM80.2137 119.42C80.5471 118.9 81.0071 118.48 81.5937 118.16C82.1804 117.84 82.8671 117.68 83.6537 117.68C84.5737 117.68 85.4071 117.913 86.1537 118.38C86.9004 118.847 87.4871 119.513 87.9137 120.38C88.3537 121.247 88.5737 122.253 88.5737 123.4C88.5737 124.547 88.3537 125.56 87.9137 126.44C87.4871 127.307 86.9004 127.98 86.1537 128.46C85.4071 128.927 84.5737 129.16 83.6537 129.16C82.8804 129.16 82.1937 129 81.5937 128.68C81.0071 128.36 80.5471 127.947 80.2137 127.44V134.32H76.7937V117.84H80.2137V119.42ZM85.0937 123.4C85.0937 122.547 84.8537 121.88 84.3737 121.4C83.9071 120.907 83.3271 120.66 82.6337 120.66C81.9537 120.66 81.3737 120.907 80.8937 121.4C80.4271 121.893 80.1937 122.567 80.1937 123.42C80.1937 124.273 80.4271 124.947 80.8937 125.44C81.3737 125.933 81.9537 126.18 82.6337 126.18C83.3137 126.18 83.8937 125.933 84.3737 125.44C84.8537 124.933 85.0937 124.253 85.0937 123.4ZM106.646 117.84L99.6462 134.3H95.9662L98.5262 128.62L93.9862 117.84H97.8062L100.386 124.82L102.946 117.84H106.646ZM113.283 129.16C112.19 129.16 111.203 128.927 110.323 128.46C109.456 127.993 108.77 127.327 108.263 126.46C107.77 125.593 107.523 124.58 107.523 123.42C107.523 122.273 107.776 121.267 108.283 120.4C108.79 119.52 109.483 118.847 110.363 118.38C111.243 117.913 112.23 117.68 113.323 117.68C114.416 117.68 115.403 117.913 116.283 118.38C117.163 118.847 117.856 119.52 118.363 120.4C118.87 121.267 119.123 122.273 119.123 123.42C119.123 124.567 118.863 125.58 118.343 126.46C117.836 127.327 117.136 127.993 116.243 128.46C115.363 128.927 114.376 129.16 113.283 129.16ZM113.283 126.2C113.936 126.2 114.49 125.96 114.943 125.48C115.41 125 115.643 124.313 115.643 123.42C115.643 122.527 115.416 121.84 114.963 121.36C114.523 120.88 113.976 120.64 113.323 120.64C112.656 120.64 112.103 120.88 111.663 121.36C111.223 121.827 111.003 122.513 111.003 123.42C111.003 124.313 111.216 125 111.643 125.48C112.083 125.96 112.63 126.2 113.283 126.2ZM132.277 117.84V129H128.857V127.48C128.511 127.973 128.037 128.373 127.437 128.68C126.851 128.973 126.197 129.12 125.477 129.12C124.624 129.12 123.871 128.933 123.217 128.56C122.564 128.173 122.057 127.62 121.697 126.9C121.337 126.18 121.157 125.333 121.157 124.36V117.84H124.557V123.9C124.557 124.647 124.751 125.227 125.137 125.64C125.524 126.053 126.044 126.26 126.697 126.26C127.364 126.26 127.891 126.053 128.277 125.64C128.664 125.227 128.857 124.647 128.857 123.9V117.84H132.277ZM144.152 129.16C143.179 129.16 142.312 128.993 141.552 128.66C140.792 128.327 140.192 127.873 139.752 127.3C139.312 126.713 139.066 126.06 139.012 125.34H142.392C142.432 125.727 142.612 126.04 142.932 126.28C143.252 126.52 143.646 126.64 144.112 126.64C144.539 126.64 144.866 126.56 145.092 126.4C145.332 126.227 145.452 126.007 145.452 125.74C145.452 125.42 145.286 125.187 144.952 125.04C144.619 124.88 144.079 124.707 143.332 124.52C142.532 124.333 141.866 124.14 141.332 123.94C140.799 123.727 140.339 123.4 139.952 122.96C139.566 122.507 139.372 121.9 139.372 121.14C139.372 120.5 139.546 119.92 139.892 119.4C140.252 118.867 140.772 118.447 141.452 118.14C142.146 117.833 142.966 117.68 143.912 117.68C145.312 117.68 146.412 118.027 147.212 118.72C148.026 119.413 148.492 120.333 148.612 121.48H145.452C145.399 121.093 145.226 120.787 144.932 120.56C144.652 120.333 144.279 120.22 143.812 120.22C143.412 120.22 143.106 120.3 142.892 120.46C142.679 120.607 142.572 120.813 142.572 121.08C142.572 121.4 142.739 121.64 143.072 121.8C143.419 121.96 143.952 122.12 144.672 122.28C145.499 122.493 146.172 122.707 146.692 122.92C147.212 123.12 147.666 123.453 148.052 123.92C148.452 124.373 148.659 124.987 148.672 125.76C148.672 126.413 148.486 127 148.112 127.52C147.752 128.027 147.226 128.427 146.532 128.72C145.852 129.013 145.059 129.16 144.152 129.16ZM150.405 123.4C150.405 122.253 150.618 121.247 151.045 120.38C151.485 119.513 152.078 118.847 152.825 118.38C153.571 117.913 154.405 117.68 155.325 117.68C156.111 117.68 156.798 117.84 157.385 118.16C157.985 118.48 158.445 118.9 158.765 119.42V117.84H162.185V129H158.765V127.42C158.431 127.94 157.965 128.36 157.365 128.68C156.778 129 156.091 129.16 155.305 129.16C154.398 129.16 153.571 128.927 152.825 128.46C152.078 127.98 151.485 127.307 151.045 126.44C150.618 125.56 150.405 124.547 150.405 123.4ZM158.765 123.42C158.765 122.567 158.525 121.893 158.045 121.4C157.578 120.907 157.005 120.66 156.325 120.66C155.645 120.66 155.065 120.907 154.585 121.4C154.118 121.88 153.885 122.547 153.885 123.4C153.885 124.253 154.118 124.933 154.585 125.44C155.065 125.933 155.645 126.18 156.325 126.18C157.005 126.18 157.578 125.933 158.045 125.44C158.525 124.947 158.765 124.273 158.765 123.42ZM170.579 120.68H168.739V129H165.319V120.68H164.079V117.84H165.319V117.52C165.319 116.147 165.712 115.107 166.499 114.4C167.285 113.68 168.439 113.32 169.959 113.32C170.212 113.32 170.399 113.327 170.519 113.34V116.24C169.865 116.2 169.405 116.293 169.139 116.52C168.872 116.747 168.739 117.153 168.739 117.74V117.84H170.579V120.68ZM183.026 123.24C183.026 123.56 183.006 123.893 182.966 124.24H175.226C175.279 124.933 175.499 125.467 175.886 125.84C176.286 126.2 176.772 126.38 177.346 126.38C178.199 126.38 178.792 126.02 179.126 125.3H182.766C182.579 126.033 182.239 126.693 181.746 127.28C181.266 127.867 180.659 128.327 179.926 128.66C179.192 128.993 178.372 129.16 177.466 129.16C176.372 129.16 175.399 128.927 174.546 128.46C173.692 127.993 173.026 127.327 172.546 126.46C172.066 125.593 171.826 124.58 171.826 123.42C171.826 122.26 172.059 121.247 172.526 120.38C173.006 119.513 173.672 118.847 174.526 118.38C175.379 117.913 176.359 117.68 177.466 117.68C178.546 117.68 179.506 117.907 180.346 118.36C181.186 118.813 181.839 119.46 182.306 120.3C182.786 121.14 183.026 122.12 183.026 123.24ZM179.526 122.34C179.526 121.753 179.326 121.287 178.926 120.94C178.526 120.593 178.026 120.42 177.426 120.42C176.852 120.42 176.366 120.587 175.966 120.92C175.579 121.253 175.339 121.727 175.246 122.34H179.526ZM189.65 114.46L189.25 124.04H186.35L185.95 114.46H189.65ZM187.85 129.16C187.25 129.16 186.757 128.987 186.37 128.64C185.997 128.28 185.81 127.84 185.81 127.32C185.81 126.787 185.997 126.34 186.37 125.98C186.757 125.62 187.25 125.44 187.85 125.44C188.437 125.44 188.917 125.62 189.29 125.98C189.677 126.34 189.87 126.787 189.87 127.32C189.87 127.84 189.677 128.28 189.29 128.64C188.917 128.987 188.437 129.16 187.85 129.16Z" fill="#FAFCFE"/>
<path d="M47.732 152.66V157.976C47.732 158.608 47.896 159.084 48.224 159.404C48.56 159.724 49.024 159.884 49.616 159.884C50.216 159.884 50.68 159.724 51.008 159.404C51.344 159.084 51.512 158.608 51.512 157.976V152.66H52.88V157.952C52.88 158.632 52.732 159.208 52.436 159.68C52.14 160.152 51.744 160.504 51.248 160.736C50.752 160.968 50.204 161.084 49.604 161.084C49.004 161.084 48.456 160.968 47.96 160.736C47.472 160.504 47.084 160.152 46.796 159.68C46.508 159.208 46.364 158.632 46.364 157.952V152.66H47.732ZM55.7892 155.36C56.0212 155.056 56.3372 154.8 56.7372 154.592C57.1372 154.384 57.5892 154.28 58.0932 154.28C58.6692 154.28 59.1932 154.424 59.6652 154.712C60.1452 154.992 60.5212 155.388 60.7932 155.9C61.0652 156.412 61.2012 157 61.2012 157.664C61.2012 158.328 61.0652 158.924 60.7932 159.452C60.5212 159.972 60.1452 160.38 59.6652 160.676C59.1932 160.964 58.6692 161.108 58.0932 161.108C57.5892 161.108 57.1412 161.008 56.7492 160.808C56.3572 160.6 56.0372 160.344 55.7892 160.04V164.144H54.4212V154.388H55.7892V155.36ZM59.8092 157.664C59.8092 157.208 59.7132 156.816 59.5212 156.488C59.3372 156.152 59.0892 155.9 58.7772 155.732C58.4732 155.556 58.1452 155.468 57.7932 155.468C57.4492 155.468 57.1212 155.556 56.8092 155.732C56.5052 155.908 56.2572 156.164 56.0652 156.5C55.8812 156.836 55.7892 157.232 55.7892 157.688C55.7892 158.144 55.8812 158.544 56.0652 158.888C56.2572 159.224 56.5052 159.48 56.8092 159.656C57.1212 159.832 57.4492 159.92 57.7932 159.92C58.1452 159.92 58.4732 159.832 58.7772 159.656C59.0892 159.472 59.3372 159.208 59.5212 158.864C59.7132 158.52 59.8092 158.12 59.8092 157.664ZM61.858 157.664C61.858 157 61.994 156.412 62.266 155.9C62.546 155.388 62.922 154.992 63.394 154.712C63.874 154.424 64.406 154.28 64.99 154.28C65.422 154.28 65.846 154.376 66.262 154.568C66.686 154.752 67.022 155 67.27 155.312V152.12H68.65V161H67.27V160.004C67.046 160.324 66.734 160.588 66.334 160.796C65.942 161.004 65.49 161.108 64.978 161.108C64.402 161.108 63.874 160.964 63.394 160.676C62.922 160.38 62.546 159.972 62.266 159.452C61.994 158.924 61.858 158.328 61.858 157.664ZM67.27 157.688C67.27 157.232 67.174 156.836 66.982 156.5C66.798 156.164 66.554 155.908 66.25 155.732C65.946 155.556 65.618 155.468 65.266 155.468C64.914 155.468 64.586 155.556 64.282 155.732C63.978 155.9 63.73 156.152 63.538 156.488C63.354 156.816 63.262 157.208 63.262 157.664C63.262 158.12 63.354 158.52 63.538 158.864C63.73 159.208 63.978 159.472 64.282 159.656C64.594 159.832 64.922 159.92 65.266 159.92C65.618 159.92 65.946 159.832 66.25 159.656C66.554 159.48 66.798 159.224 66.982 158.888C67.174 158.544 67.27 158.144 67.27 157.688ZM69.7508 157.664C69.7508 157 69.8868 156.412 70.1588 155.9C70.4388 155.388 70.8148 154.992 71.2868 154.712C71.7668 154.424 72.2948 154.28 72.8708 154.28C73.3908 154.28 73.8428 154.384 74.2268 154.592C74.6188 154.792 74.9308 155.044 75.1628 155.348V154.388H76.5428V161H75.1628V160.016C74.9308 160.328 74.6148 160.588 74.2148 160.796C73.8148 161.004 73.3588 161.108 72.8468 161.108C72.2788 161.108 71.7588 160.964 71.2868 160.676C70.8148 160.38 70.4388 159.972 70.1588 159.452C69.8868 158.924 69.7508 158.328 69.7508 157.664ZM75.1628 157.688C75.1628 157.232 75.0668 156.836 74.8748 156.5C74.6908 156.164 74.4468 155.908 74.1428 155.732C73.8388 155.556 73.5108 155.468 73.1588 155.468C72.8068 155.468 72.4788 155.556 72.1748 155.732C71.8708 155.9 71.6228 156.152 71.4308 156.488C71.2468 156.816 71.1548 157.208 71.1548 157.664C71.1548 158.12 71.2468 158.52 71.4308 158.864C71.6228 159.208 71.8708 159.472 72.1748 159.656C72.4868 159.832 72.8148 159.92 73.1588 159.92C73.5108 159.92 73.8388 159.832 74.1428 159.656C74.4468 159.48 74.6908 159.224 74.8748 158.888C75.0668 158.544 75.1628 158.144 75.1628 157.688ZM79.6956 155.504V159.164C79.6956 159.412 79.7516 159.592 79.8636 159.704C79.9836 159.808 80.1836 159.86 80.4636 159.86H81.3036V161H80.2236C79.6076 161 79.1356 160.856 78.8076 160.568C78.4796 160.28 78.3156 159.812 78.3156 159.164V155.504H77.5356V154.388H78.3156V152.744H79.6956V154.388H81.3036V155.504H79.6956ZM88.3845 157.532C88.3845 157.78 88.3685 158.004 88.3365 158.204H83.2845C83.3245 158.732 83.5205 159.156 83.8725 159.476C84.2245 159.796 84.6565 159.956 85.1685 159.956C85.9045 159.956 86.4245 159.648 86.7285 159.032H88.2045C88.0045 159.64 87.6405 160.14 87.1125 160.532C86.5925 160.916 85.9445 161.108 85.1685 161.108C84.5365 161.108 83.9685 160.968 83.4645 160.688C82.9685 160.4 82.5765 160 82.2885 159.488C82.0085 158.968 81.8685 158.368 81.8685 157.688C81.8685 157.008 82.0045 156.412 82.2765 155.9C82.5565 155.38 82.9445 154.98 83.4405 154.7C83.9445 154.42 84.5205 154.28 85.1685 154.28C85.7925 154.28 86.3485 154.416 86.8365 154.688C87.3245 154.96 87.7045 155.344 87.9765 155.84C88.2485 156.328 88.3845 156.892 88.3845 157.532ZM86.9565 157.1C86.9485 156.596 86.7685 156.192 86.4165 155.888C86.0645 155.584 85.6285 155.432 85.1085 155.432C84.6365 155.432 84.2325 155.584 83.8965 155.888C83.5605 156.184 83.3605 156.588 83.2965 157.1H86.9565ZM98.3199 154.388L94.2639 164.108H92.8479L94.1919 160.892L91.5879 154.388H93.1119L94.9719 159.428L96.9039 154.388H98.3199ZM101.98 161.108C101.356 161.108 100.792 160.968 100.288 160.688C99.7843 160.4 99.3883 160 99.1003 159.488C98.8123 158.968 98.6683 158.368 98.6683 157.688C98.6683 157.016 98.8163 156.42 99.1123 155.9C99.4083 155.38 99.8123 154.98 100.324 154.7C100.836 154.42 101.408 154.28 102.04 154.28C102.672 154.28 103.244 154.42 103.756 154.7C104.268 154.98 104.672 155.38 104.968 155.9C105.264 156.42 105.412 157.016 105.412 157.688C105.412 158.36 105.26 158.956 104.956 159.476C104.652 159.996 104.236 160.4 103.708 160.688C103.188 160.968 102.612 161.108 101.98 161.108ZM101.98 159.92C102.332 159.92 102.66 159.836 102.964 159.668C103.276 159.5 103.528 159.248 103.72 158.912C103.912 158.576 104.008 158.168 104.008 157.688C104.008 157.208 103.916 156.804 103.732 156.476C103.548 156.14 103.304 155.888 103 155.72C102.696 155.552 102.368 155.468 102.016 155.468C101.664 155.468 101.336 155.552 101.032 155.72C100.736 155.888 100.5 156.14 100.324 156.476C100.148 156.804 100.06 157.208 100.06 157.688C100.06 158.4 100.24 158.952 100.6 159.344C100.968 159.728 101.428 159.92 101.98 159.92ZM112.513 154.388V161H111.145V160.22C110.929 160.492 110.645 160.708 110.293 160.868C109.949 161.02 109.581 161.096 109.189 161.096C108.669 161.096 108.201 160.988 107.785 160.772C107.377 160.556 107.053 160.236 106.813 159.812C106.581 159.388 106.465 158.876 106.465 158.276V154.388H107.821V158.072C107.821 158.664 107.969 159.12 108.265 159.44C108.561 159.752 108.965 159.908 109.477 159.908C109.989 159.908 110.393 159.752 110.689 159.44C110.993 159.12 111.145 158.664 111.145 158.072V154.388H112.513ZM115.446 155.348C115.646 155.012 115.91 154.752 116.238 154.568C116.574 154.376 116.97 154.28 117.426 154.28V155.696H117.078C116.542 155.696 116.134 155.832 115.854 156.104C115.582 156.376 115.446 156.848 115.446 157.52V161H114.078V154.388H115.446V155.348ZM123.72 161.108C123.2 161.108 122.732 161.016 122.316 160.832C121.908 160.64 121.584 160.384 121.344 160.064C121.104 159.736 120.976 159.372 120.96 158.972H122.376C122.4 159.252 122.532 159.488 122.772 159.68C123.02 159.864 123.328 159.956 123.696 159.956C124.08 159.956 124.376 159.884 124.584 159.74C124.8 159.588 124.908 159.396 124.908 159.164C124.908 158.916 124.788 158.732 124.548 158.612C124.316 158.492 123.944 158.36 123.432 158.216C122.936 158.08 122.532 157.948 122.22 157.82C121.908 157.692 121.636 157.496 121.404 157.232C121.18 156.968 121.068 156.62 121.068 156.188C121.068 155.836 121.172 155.516 121.38 155.228C121.588 154.932 121.884 154.7 122.268 154.532C122.66 154.364 123.108 154.28 123.612 154.28C124.364 154.28 124.968 154.472 125.424 154.856C125.888 155.232 126.136 155.748 126.168 156.404H124.8C124.776 156.108 124.656 155.872 124.44 155.696C124.224 155.52 123.932 155.432 123.564 155.432C123.204 155.432 122.928 155.5 122.736 155.636C122.544 155.772 122.448 155.952 122.448 156.176C122.448 156.352 122.512 156.5 122.64 156.62C122.768 156.74 122.924 156.836 123.108 156.908C123.292 156.972 123.564 157.056 123.924 157.16C124.404 157.288 124.796 157.42 125.1 157.556C125.412 157.684 125.68 157.876 125.904 158.132C126.128 158.388 126.244 158.728 126.252 159.152C126.252 159.528 126.148 159.864 125.94 160.16C125.732 160.456 125.436 160.688 125.052 160.856C124.676 161.024 124.232 161.108 123.72 161.108ZM133.55 157.532C133.55 157.78 133.534 158.004 133.502 158.204H128.45C128.49 158.732 128.686 159.156 129.038 159.476C129.39 159.796 129.822 159.956 130.334 159.956C131.07 159.956 131.59 159.648 131.894 159.032H133.37C133.17 159.64 132.806 160.14 132.278 160.532C131.758 160.916 131.11 161.108 130.334 161.108C129.702 161.108 129.134 160.968 128.63 160.688C128.134 160.4 127.742 160 127.454 159.488C127.174 158.968 127.034 158.368 127.034 157.688C127.034 157.008 127.17 156.412 127.442 155.9C127.722 155.38 128.11 154.98 128.606 154.7C129.11 154.42 129.686 154.28 130.334 154.28C130.958 154.28 131.514 154.416 132.002 154.688C132.49 154.96 132.87 155.344 133.142 155.84C133.414 156.328 133.55 156.892 133.55 157.532ZM132.122 157.1C132.114 156.596 131.934 156.192 131.582 155.888C131.23 155.584 130.794 155.432 130.274 155.432C129.802 155.432 129.398 155.584 129.062 155.888C128.726 156.184 128.526 156.588 128.462 157.1H132.122ZM134.201 157.688C134.201 157.008 134.337 156.412 134.609 155.9C134.889 155.38 135.273 154.98 135.761 154.7C136.249 154.42 136.809 154.28 137.441 154.28C138.241 154.28 138.901 154.472 139.421 154.856C139.949 155.232 140.305 155.772 140.489 156.476H139.013C138.893 156.148 138.701 155.892 138.437 155.708C138.173 155.524 137.841 155.432 137.441 155.432C136.881 155.432 136.433 155.632 136.097 156.032C135.769 156.424 135.605 156.976 135.605 157.688C135.605 158.4 135.769 158.956 136.097 159.356C136.433 159.756 136.881 159.956 137.441 159.956C138.233 159.956 138.757 159.608 139.013 158.912H140.489C140.297 159.584 139.937 160.12 139.409 160.52C138.881 160.912 138.225 161.108 137.441 161.108C136.809 161.108 136.249 160.968 135.761 160.688C135.273 160.4 134.889 160 134.609 159.488C134.337 158.968 134.201 158.368 134.201 157.688ZM147.6 154.388V161H146.232V160.22C146.016 160.492 145.732 160.708 145.38 160.868C145.036 161.02 144.668 161.096 144.276 161.096C143.756 161.096 143.288 160.988 142.872 160.772C142.464 160.556 142.14 160.236 141.9 159.812C141.668 159.388 141.552 158.876 141.552 158.276V154.388H142.908V158.072C142.908 158.664 143.056 159.12 143.352 159.44C143.648 159.752 144.052 159.908 144.564 159.908C145.076 159.908 145.48 159.752 145.776 159.44C146.08 159.12 146.232 158.664 146.232 158.072V154.388H147.6ZM150.533 155.348C150.733 155.012 150.997 154.752 151.325 154.568C151.661 154.376 152.057 154.28 152.513 154.28V155.696H152.165C151.629 155.696 151.221 155.832 150.941 156.104C150.669 156.376 150.533 156.848 150.533 157.52V161H149.165V154.388H150.533V155.348ZM154.226 153.512C153.978 153.512 153.77 153.428 153.602 153.26C153.434 153.092 153.35 152.884 153.35 152.636C153.35 152.388 153.434 152.18 153.602 152.012C153.77 151.844 153.978 151.76 154.226 151.76C154.466 151.76 154.67 151.844 154.838 152.012C155.006 152.18 155.09 152.388 155.09 152.636C155.09 152.884 155.006 153.092 154.838 153.26C154.67 153.428 154.466 153.512 154.226 153.512ZM154.898 154.388V161H153.53V154.388H154.898ZM158.05 155.504V159.164C158.05 159.412 158.106 159.592 158.218 159.704C158.338 159.808 158.538 159.86 158.818 159.86H159.658V161H158.578C157.962 161 157.49 160.856 157.162 160.568C156.834 160.28 156.67 159.812 156.67 159.164V155.504H155.89V154.388H156.67V152.744H158.05V154.388H159.658V155.504H158.05ZM166.631 154.388L162.575 164.108H161.159L162.503 160.892L159.899 154.388H161.423L163.283 159.428L165.215 154.388H166.631ZM22.3692 175.36C22.6012 175.056 22.9172 174.8 23.3172 174.592C23.7172 174.384 24.1692 174.28 24.6732 174.28C25.2492 174.28 25.7732 174.424 26.2452 174.712C26.7252 174.992 27.1012 175.388 27.3732 175.9C27.6452 176.412 27.7812 177 27.7812 177.664C27.7812 178.328 27.6452 178.924 27.3732 179.452C27.1012 179.972 26.7252 180.38 26.2452 180.676C25.7732 180.964 25.2492 181.108 24.6732 181.108C24.1692 181.108 23.7212 181.008 23.3292 180.808C22.9372 180.6 22.6172 180.344 22.3692 180.04V184.144H21.0012V174.388H22.3692V175.36ZM26.3892 177.664C26.3892 177.208 26.2932 176.816 26.1012 176.488C25.9172 176.152 25.6692 175.9 25.3572 175.732C25.0532 175.556 24.7252 175.468 24.3732 175.468C24.0292 175.468 23.7012 175.556 23.3892 175.732C23.0852 175.908 22.8372 176.164 22.6452 176.5C22.4612 176.836 22.3692 177.232 22.3692 177.688C22.3692 178.144 22.4612 178.544 22.6452 178.888C22.8372 179.224 23.0852 179.48 23.3892 179.656C23.7012 179.832 24.0292 179.92 24.3732 179.92C24.7252 179.92 25.0532 179.832 25.3572 179.656C25.6692 179.472 25.9172 179.208 26.1012 178.864C26.2932 178.52 26.3892 178.12 26.3892 177.664ZM28.438 177.664C28.438 177 28.574 176.412 28.846 175.9C29.126 175.388 29.502 174.992 29.974 174.712C30.454 174.424 30.982 174.28 31.558 174.28C32.078 174.28 32.53 174.384 32.914 174.592C33.306 174.792 33.618 175.044 33.85 175.348V174.388H35.23V181H33.85V180.016C33.618 180.328 33.302 180.588 32.902 180.796C32.502 181.004 32.046 181.108 31.534 181.108C30.966 181.108 30.446 180.964 29.974 180.676C29.502 180.38 29.126 179.972 28.846 179.452C28.574 178.924 28.438 178.328 28.438 177.664ZM33.85 177.688C33.85 177.232 33.754 176.836 33.562 176.5C33.378 176.164 33.134 175.908 32.83 175.732C32.526 175.556 32.198 175.468 31.846 175.468C31.494 175.468 31.166 175.556 30.862 175.732C30.558 175.9 30.31 176.152 30.118 176.488C29.934 176.816 29.842 177.208 29.842 177.664C29.842 178.12 29.934 178.52 30.118 178.864C30.31 179.208 30.558 179.472 30.862 179.656C31.174 179.832 31.502 179.92 31.846 179.92C32.198 179.92 32.526 179.832 32.83 179.656C33.134 179.48 33.378 179.224 33.562 178.888C33.754 178.544 33.85 178.144 33.85 177.688ZM39.1868 181.108C38.6668 181.108 38.1988 181.016 37.7828 180.832C37.3748 180.64 37.0508 180.384 36.8108 180.064C36.5708 179.736 36.4428 179.372 36.4268 178.972H37.8428C37.8668 179.252 37.9988 179.488 38.2388 179.68C38.4868 179.864 38.7948 179.956 39.1628 179.956C39.5468 179.956 39.8428 179.884 40.0508 179.74C40.2668 179.588 40.3748 179.396 40.3748 179.164C40.3748 178.916 40.2548 178.732 40.0148 178.612C39.7828 178.492 39.4108 178.36 38.8988 178.216C38.4028 178.08 37.9988 177.948 37.6868 177.82C37.3748 177.692 37.1028 177.496 36.8708 177.232C36.6468 176.968 36.5348 176.62 36.5348 176.188C36.5348 175.836 36.6388 175.516 36.8468 175.228C37.0548 174.932 37.3508 174.7 37.7348 174.532C38.1268 174.364 38.5748 174.28 39.0788 174.28C39.8308 174.28 40.4348 174.472 40.8908 174.856C41.3548 175.232 41.6028 175.748 41.6348 176.404H40.2668C40.2428 176.108 40.1228 175.872 39.9068 175.696C39.6908 175.52 39.3988 175.432 39.0308 175.432C38.6708 175.432 38.3948 175.5 38.2028 175.636C38.0108 175.772 37.9148 175.952 37.9148 176.176C37.9148 176.352 37.9788 176.5 38.1068 176.62C38.2348 176.74 38.3908 176.836 38.5748 176.908C38.7588 176.972 39.0308 177.056 39.3908 177.16C39.8708 177.288 40.2628 177.42 40.5668 177.556C40.8788 177.684 41.1468 177.876 41.3708 178.132C41.5948 178.388 41.7108 178.728 41.7188 179.152C41.7188 179.528 41.6148 179.864 41.4068 180.16C41.1988 180.456 40.9028 180.688 40.5188 180.856C40.1428 181.024 39.6988 181.108 39.1868 181.108ZM45.357 181.108C44.837 181.108 44.369 181.016 43.953 180.832C43.545 180.64 43.221 180.384 42.981 180.064C42.741 179.736 42.613 179.372 42.597 178.972H44.013C44.037 179.252 44.169 179.488 44.409 179.68C44.657 179.864 44.965 179.956 45.333 179.956C45.717 179.956 46.013 179.884 46.221 179.74C46.437 179.588 46.545 179.396 46.545 179.164C46.545 178.916 46.425 178.732 46.185 178.612C45.953 178.492 45.581 178.36 45.069 178.216C44.573 178.08 44.169 177.948 43.857 177.82C43.545 177.692 43.273 177.496 43.041 177.232C42.817 176.968 42.705 176.62 42.705 176.188C42.705 175.836 42.809 175.516 43.017 175.228C43.225 174.932 43.521 174.7 43.905 174.532C44.297 174.364 44.745 174.28 45.249 174.28C46.001 174.28 46.605 174.472 47.061 174.856C47.525 175.232 47.773 175.748 47.805 176.404H46.437C46.413 176.108 46.293 175.872 46.077 175.696C45.861 175.52 45.569 175.432 45.201 175.432C44.841 175.432 44.565 175.5 44.373 175.636C44.181 175.772 44.085 175.952 44.085 176.176C44.085 176.352 44.149 176.5 44.277 176.62C44.405 176.74 44.561 176.836 44.745 176.908C44.929 176.972 45.201 177.056 45.561 177.16C46.041 177.288 46.433 177.42 46.737 177.556C47.049 177.684 47.317 177.876 47.541 178.132C47.765 178.388 47.881 178.728 47.889 179.152C47.889 179.528 47.785 179.864 47.577 180.16C47.369 180.456 47.073 180.688 46.689 180.856C46.313 181.024 45.869 181.108 45.357 181.108ZM58.0071 174.388L55.9551 181H54.5151L53.1831 176.116L51.8511 181H50.4111L48.3471 174.388H49.7391L51.1191 179.704L52.5231 174.388H53.9511L55.2951 179.68L56.6631 174.388H58.0071ZM61.6575 181.108C61.0335 181.108 60.4695 180.968 59.9655 180.688C59.4615 180.4 59.0655 180 58.7775 179.488C58.4895 178.968 58.3455 178.368 58.3455 177.688C58.3455 177.016 58.4935 176.42 58.7895 175.9C59.0855 175.38 59.4895 174.98 60.0015 174.7C60.5135 174.42 61.0855 174.28 61.7175 174.28C62.3495 174.28 62.9215 174.42 63.4335 174.7C63.9455 174.98 64.3495 175.38 64.6455 175.9C64.9415 176.42 65.0895 177.016 65.0895 177.688C65.0895 178.36 64.9375 178.956 64.6335 179.476C64.3295 179.996 63.9135 180.4 63.3855 180.688C62.8655 180.968 62.2895 181.108 61.6575 181.108ZM61.6575 179.92C62.0095 179.92 62.3375 179.836 62.6415 179.668C62.9535 179.5 63.2055 179.248 63.3975 178.912C63.5895 178.576 63.6855 178.168 63.6855 177.688C63.6855 177.208 63.5935 176.804 63.4095 176.476C63.2255 176.14 62.9815 175.888 62.6775 175.72C62.3735 175.552 62.0455 175.468 61.6935 175.468C61.3415 175.468 61.0135 175.552 60.7095 175.72C60.4135 175.888 60.1775 176.14 60.0015 176.476C59.8255 176.804 59.7375 177.208 59.7375 177.688C59.7375 178.4 59.9175 178.952 60.2775 179.344C60.6455 179.728 61.1055 179.92 61.6575 179.92ZM67.5698 175.348C67.7698 175.012 68.0338 174.752 68.3618 174.568C68.6978 174.376 69.0938 174.28 69.5498 174.28V175.696H69.2018C68.6658 175.696 68.2578 175.832 67.9778 176.104C67.7058 176.376 67.5698 176.848 67.5698 177.52V181H66.2018V174.388H67.5698V175.348ZM70.1113 177.664C70.1113 177 70.2473 176.412 70.5193 175.9C70.7993 175.388 71.1753 174.992 71.6473 174.712C72.1273 174.424 72.6593 174.28 73.2433 174.28C73.6753 174.28 74.0993 174.376 74.5153 174.568C74.9393 174.752 75.2753 175 75.5233 175.312V172.12H76.9033V181H75.5233V180.004C75.2993 180.324 74.9873 180.588 74.5873 180.796C74.1953 181.004 73.7433 181.108 73.2313 181.108C72.6553 181.108 72.1273 180.964 71.6473 180.676C71.1753 180.38 70.7993 179.972 70.5193 179.452C70.2473 178.924 70.1113 178.328 70.1113 177.664ZM75.5233 177.688C75.5233 177.232 75.4273 176.836 75.2353 176.5C75.0513 176.164 74.8073 175.908 74.5033 175.732C74.1993 175.556 73.8713 175.468 73.5193 175.468C73.1673 175.468 72.8393 175.556 72.5353 175.732C72.2313 175.9 71.9833 176.152 71.7913 176.488C71.6073 176.816 71.5153 177.208 71.5153 177.664C71.5153 178.12 71.6073 178.52 71.7913 178.864C71.9833 179.208 72.2313 179.472 72.5353 179.656C72.8473 179.832 73.1753 179.92 73.5193 179.92C73.8713 179.92 74.1993 179.832 74.5033 179.656C74.8073 179.48 75.0513 179.224 75.2353 178.888C75.4273 178.544 75.5233 178.144 75.5233 177.688ZM79.9601 179.356L78.5081 182.668H77.6201L78.4721 179.356H79.9601ZM86.4086 177.7L89.4566 181H87.6086L85.1606 178.156V181H83.7926V172.12H85.1606V177.28L87.5606 174.388H89.4566L86.4086 177.7ZM96.2571 177.532C96.2571 177.78 96.2411 178.004 96.2091 178.204H91.1571C91.1971 178.732 91.3931 179.156 91.7451 179.476C92.0971 179.796 92.5291 179.956 93.0411 179.956C93.7771 179.956 94.2971 179.648 94.6011 179.032H96.0771C95.8771 179.64 95.5131 180.14 94.9851 180.532C94.4651 180.916 93.8171 181.108 93.0411 181.108C92.4091 181.108 91.8411 180.968 91.3371 180.688C90.8411 180.4 90.4491 180 90.1611 179.488C89.8811 178.968 89.7411 178.368 89.7411 177.688C89.7411 177.008 89.8771 176.412 90.1491 175.9C90.4291 175.38 90.8171 174.98 91.3131 174.7C91.8171 174.42 92.3931 174.28 93.0411 174.28C93.6651 174.28 94.2211 174.416 94.7091 174.688C95.1971 174.96 95.5771 175.344 95.8491 175.84C96.1211 176.328 96.2571 176.892 96.2571 177.532ZM94.8291 177.1C94.8211 176.596 94.6411 176.192 94.2891 175.888C93.9371 175.584 93.5011 175.432 92.9811 175.432C92.5091 175.432 92.1051 175.584 91.7691 175.888C91.4331 176.184 91.2331 176.588 91.1691 177.1H94.8291ZM103.423 177.532C103.423 177.78 103.407 178.004 103.375 178.204H98.3234C98.3634 178.732 98.5594 179.156 98.9114 179.476C99.2634 179.796 99.6954 179.956 100.207 179.956C100.943 179.956 101.463 179.648 101.767 179.032H103.243C103.043 179.64 102.679 180.14 102.151 180.532C101.631 180.916 100.983 181.108 100.207 181.108C99.5754 181.108 99.0074 180.968 98.5034 180.688C98.0074 180.4 97.6154 180 97.3274 179.488C97.0474 178.968 96.9074 178.368 96.9074 177.688C96.9074 177.008 97.0434 176.412 97.3154 175.9C97.5954 175.38 97.9834 174.98 98.4794 174.7C98.9834 174.42 99.5594 174.28 100.207 174.28C100.831 174.28 101.387 174.416 101.875 174.688C102.363 174.96 102.743 175.344 103.015 175.84C103.287 176.328 103.423 176.892 103.423 177.532ZM101.995 177.1C101.987 176.596 101.807 176.192 101.455 175.888C101.103 175.584 100.667 175.432 100.147 175.432C99.6754 175.432 99.2714 175.584 98.9354 175.888C98.5994 176.184 98.3994 176.588 98.3354 177.1H101.995ZM105.898 175.36C106.13 175.056 106.446 174.8 106.846 174.592C107.246 174.384 107.698 174.28 108.202 174.28C108.778 174.28 109.302 174.424 109.774 174.712C110.254 174.992 110.63 175.388 110.902 175.9C111.174 176.412 111.31 177 111.31 177.664C111.31 178.328 111.174 178.924 110.902 179.452C110.63 179.972 110.254 180.38 109.774 180.676C109.302 180.964 108.778 181.108 108.202 181.108C107.698 181.108 107.25 181.008 106.858 180.808C106.466 180.6 106.146 180.344 105.898 180.04V184.144H104.53V174.388H105.898V175.36ZM109.918 177.664C109.918 177.208 109.822 176.816 109.63 176.488C109.446 176.152 109.198 175.9 108.886 175.732C108.582 175.556 108.254 175.468 107.902 175.468C107.558 175.468 107.23 175.556 106.918 175.732C106.614 175.908 106.366 176.164 106.174 176.5C105.99 176.836 105.898 177.232 105.898 177.688C105.898 178.144 105.99 178.544 106.174 178.888C106.366 179.224 106.614 179.48 106.918 179.656C107.23 179.832 107.558 179.92 107.902 179.92C108.254 179.92 108.582 179.832 108.886 179.656C109.198 179.472 109.446 179.208 109.63 178.864C109.822 178.52 109.918 178.12 109.918 177.664ZM121.252 174.388L117.196 184.108H115.78L117.124 180.892L114.52 174.388H116.044L117.904 179.428L119.836 174.388H121.252ZM124.912 181.108C124.288 181.108 123.724 180.968 123.22 180.688C122.716 180.4 122.32 180 122.032 179.488C121.744 178.968 121.6 178.368 121.6 177.688C121.6 177.016 121.748 176.42 122.044 175.9C122.34 175.38 122.744 174.98 123.256 174.7C123.768 174.42 124.34 174.28 124.972 174.28C125.604 174.28 126.176 174.42 126.688 174.7C127.2 174.98 127.604 175.38 127.9 175.9C128.196 176.42 128.344 177.016 128.344 177.688C128.344 178.36 128.192 178.956 127.888 179.476C127.584 179.996 127.168 180.4 126.64 180.688C126.12 180.968 125.544 181.108 124.912 181.108ZM124.912 179.92C125.264 179.92 125.592 179.836 125.896 179.668C126.208 179.5 126.46 179.248 126.652 178.912C126.844 178.576 126.94 178.168 126.94 177.688C126.94 177.208 126.848 176.804 126.664 176.476C126.48 176.14 126.236 175.888 125.932 175.72C125.628 175.552 125.3 175.468 124.948 175.468C124.596 175.468 124.268 175.552 123.964 175.72C123.668 175.888 123.432 176.14 123.256 176.476C123.08 176.804 122.992 177.208 122.992 177.688C122.992 178.4 123.172 178.952 123.532 179.344C123.9 179.728 124.36 179.92 124.912 179.92ZM135.444 174.388V181H134.076V180.22C133.86 180.492 133.576 180.708 133.224 180.868C132.88 181.02 132.512 181.096 132.12 181.096C131.6 181.096 131.132 180.988 130.716 180.772C130.308 180.556 129.984 180.236 129.744 179.812C129.512 179.388 129.396 178.876 129.396 178.276V174.388H130.752V178.072C130.752 178.664 130.9 179.12 131.196 179.44C131.492 179.752 131.896 179.908 132.408 179.908C132.92 179.908 133.324 179.752 133.62 179.44C133.924 179.12 134.076 178.664 134.076 178.072V174.388H135.444ZM138.377 175.348C138.577 175.012 138.841 174.752 139.169 174.568C139.505 174.376 139.901 174.28 140.357 174.28V175.696H140.009C139.473 175.696 139.065 175.832 138.785 176.104C138.513 176.376 138.377 176.848 138.377 177.52V181H137.009V174.388H138.377V175.348ZM143.796 177.664C143.796 177 143.932 176.412 144.204 175.9C144.484 175.388 144.86 174.992 145.332 174.712C145.812 174.424 146.34 174.28 146.916 174.28C147.436 174.28 147.888 174.384 148.272 174.592C148.664 174.792 148.976 175.044 149.208 175.348V174.388H150.588V181H149.208V180.016C148.976 180.328 148.66 180.588 148.26 180.796C147.86 181.004 147.404 181.108 146.892 181.108C146.324 181.108 145.804 180.964 145.332 180.676C144.86 180.38 144.484 179.972 144.204 179.452C143.932 178.924 143.796 178.328 143.796 177.664ZM149.208 177.688C149.208 177.232 149.112 176.836 148.92 176.5C148.736 176.164 148.492 175.908 148.188 175.732C147.884 175.556 147.556 175.468 147.204 175.468C146.852 175.468 146.524 175.556 146.22 175.732C145.916 175.9 145.668 176.152 145.476 176.488C145.292 176.816 145.2 177.208 145.2 177.664C145.2 178.12 145.292 178.52 145.476 178.864C145.668 179.208 145.916 179.472 146.22 179.656C146.532 179.832 146.86 179.92 147.204 179.92C147.556 179.92 147.884 179.832 148.188 179.656C148.492 179.48 148.736 179.224 148.92 178.888C149.112 178.544 149.208 178.144 149.208 177.688ZM151.689 177.688C151.689 177.008 151.825 176.412 152.097 175.9C152.377 175.38 152.761 174.98 153.249 174.7C153.737 174.42 154.297 174.28 154.929 174.28C155.729 174.28 156.389 174.472 156.909 174.856C157.437 175.232 157.793 175.772 157.977 176.476H156.501C156.381 176.148 156.189 175.892 155.925 175.708C155.661 175.524 155.329 175.432 154.929 175.432C154.369 175.432 153.921 175.632 153.585 176.032C153.257 176.424 153.093 176.976 153.093 177.688C153.093 178.4 153.257 178.956 153.585 179.356C153.921 179.756 154.369 179.956 154.929 179.956C155.721 179.956 156.245 179.608 156.501 178.912H157.977C157.785 179.584 157.425 180.12 156.897 180.52C156.369 180.912 155.713 181.108 154.929 181.108C154.297 181.108 153.737 180.968 153.249 180.688C152.761 180.4 152.377 180 152.097 179.488C151.825 178.968 151.689 178.368 151.689 177.688ZM158.644 177.688C158.644 177.008 158.78 176.412 159.052 175.9C159.332 175.38 159.716 174.98 160.204 174.7C160.692 174.42 161.252 174.28 161.884 174.28C162.684 174.28 163.344 174.472 163.864 174.856C164.392 175.232 164.748 175.772 164.932 176.476H163.456C163.336 176.148 163.144 175.892 162.88 175.708C162.616 175.524 162.284 175.432 161.884 175.432C161.324 175.432 160.876 175.632 160.54 176.032C160.212 176.424 160.048 176.976 160.048 177.688C160.048 178.4 160.212 178.956 160.54 179.356C160.876 179.756 161.324 179.956 161.884 179.956C162.676 179.956 163.2 179.608 163.456 178.912H164.932C164.74 179.584 164.38 180.12 163.852 180.52C163.324 180.912 162.668 181.108 161.884 181.108C161.252 181.108 160.692 180.968 160.204 180.688C159.716 180.4 159.332 180 159.052 179.488C158.78 178.968 158.644 178.368 158.644 177.688ZM168.923 181.108C168.299 181.108 167.735 180.968 167.231 180.688C166.727 180.4 166.331 180 166.043 179.488C165.755 178.968 165.611 178.368 165.611 177.688C165.611 177.016 165.759 176.42 166.055 175.9C166.351 175.38 166.755 174.98 167.267 174.7C167.779 174.42 168.351 174.28 168.983 174.28C169.615 174.28 170.187 174.42 170.699 174.7C171.211 174.98 171.615 175.38 171.911 175.9C172.207 176.42 172.355 177.016 172.355 177.688C172.355 178.36 172.203 178.956 171.899 179.476C171.595 179.996 171.179 180.4 170.651 180.688C170.131 180.968 169.555 181.108 168.923 181.108ZM168.923 179.92C169.275 179.92 169.603 179.836 169.907 179.668C170.219 179.5 170.471 179.248 170.663 178.912C170.855 178.576 170.951 178.168 170.951 177.688C170.951 177.208 170.859 176.804 170.675 176.476C170.491 176.14 170.247 175.888 169.943 175.72C169.639 175.552 169.311 175.468 168.959 175.468C168.607 175.468 168.279 175.552 167.975 175.72C167.679 175.888 167.443 176.14 167.267 176.476C167.091 176.804 167.003 177.208 167.003 177.688C167.003 178.4 167.183 178.952 167.543 179.344C167.911 179.728 168.371 179.92 168.923 179.92ZM179.456 174.388V181H178.088V180.22C177.872 180.492 177.588 180.708 177.236 180.868C176.892 181.02 176.524 181.096 176.132 181.096C175.612 181.096 175.144 180.988 174.728 180.772C174.32 180.556 173.996 180.236 173.756 179.812C173.524 179.388 173.408 178.876 173.408 178.276V174.388H174.764V178.072C174.764 178.664 174.912 179.12 175.208 179.44C175.504 179.752 175.908 179.908 176.42 179.908C176.932 179.908 177.336 179.752 177.632 179.44C177.936 179.12 178.088 178.664 178.088 178.072V174.388H179.456ZM184.357 174.28C184.877 174.28 185.341 174.388 185.749 174.604C186.165 174.82 186.489 175.14 186.721 175.564C186.953 175.988 187.069 176.5 187.069 177.1V181H185.713V177.304C185.713 176.712 185.565 176.26 185.269 175.948C184.973 175.628 184.569 175.468 184.057 175.468C183.545 175.468 183.137 175.628 182.833 175.948C182.537 176.26 182.389 176.712 182.389 177.304V181H181.021V174.388H182.389V175.144C182.613 174.872 182.897 174.66 183.241 174.508C183.593 174.356 183.965 174.28 184.357 174.28ZM190.17 175.504V179.164C190.17 179.412 190.226 179.592 190.338 179.704C190.458 179.808 190.658 179.86 190.938 179.86H191.778V181H190.698C190.082 181 189.61 180.856 189.282 180.568C188.954 180.28 188.79 179.812 188.79 179.164V175.504H188.01V174.388H188.79V172.744H190.17V174.388H191.778V175.504H190.17ZM94.8853 201.108C94.3653 201.108 93.8973 201.016 93.4813 200.832C93.0733 200.64 92.7493 200.384 92.5093 200.064C92.2693 199.736 92.1413 199.372 92.1253 198.972H93.5413C93.5653 199.252 93.6973 199.488 93.9373 199.68C94.1853 199.864 94.4933 199.956 94.8613 199.956C95.2453 199.956 95.5413 199.884 95.7493 199.74C95.9653 199.588 96.0733 199.396 96.0733 199.164C96.0733 198.916 95.9533 198.732 95.7133 198.612C95.4813 198.492 95.1093 198.36 94.5973 198.216C94.1013 198.08 93.6973 197.948 93.3853 197.82C93.0733 197.692 92.8013 197.496 92.5693 197.232C92.3453 196.968 92.2333 196.62 92.2333 196.188C92.2333 195.836 92.3373 195.516 92.5453 195.228C92.7533 194.932 93.0493 194.7 93.4333 194.532C93.8253 194.364 94.2733 194.28 94.7773 194.28C95.5293 194.28 96.1333 194.472 96.5893 194.856C97.0533 195.232 97.3013 195.748 97.3333 196.404H95.9653C95.9413 196.108 95.8213 195.872 95.6053 195.696C95.3893 195.52 95.0973 195.432 94.7293 195.432C94.3693 195.432 94.0933 195.5 93.9013 195.636C93.7093 195.772 93.6133 195.952 93.6133 196.176C93.6133 196.352 93.6773 196.5 93.8053 196.62C93.9333 196.74 94.0893 196.836 94.2733 196.908C94.4573 196.972 94.7293 197.056 95.0893 197.16C95.5693 197.288 95.9613 197.42 96.2653 197.556C96.5773 197.684 96.8453 197.876 97.0693 198.132C97.2933 198.388 97.4093 198.728 97.4173 199.152C97.4173 199.528 97.3133 199.864 97.1053 200.16C96.8973 200.456 96.6013 200.688 96.2173 200.856C95.8413 201.024 95.3973 201.108 94.8853 201.108ZM98.1995 197.664C98.1995 197 98.3355 196.412 98.6075 195.9C98.8875 195.388 99.2635 194.992 99.7355 194.712C100.216 194.424 100.744 194.28 101.32 194.28C101.84 194.28 102.292 194.384 102.676 194.592C103.068 194.792 103.38 195.044 103.612 195.348V194.388H104.992V201H103.612V200.016C103.38 200.328 103.064 200.588 102.664 200.796C102.264 201.004 101.808 201.108 101.296 201.108C100.728 201.108 100.208 200.964 99.7355 200.676C99.2635 200.38 98.8875 199.972 98.6075 199.452C98.3355 198.924 98.1995 198.328 98.1995 197.664ZM103.612 197.688C103.612 197.232 103.516 196.836 103.324 196.5C103.14 196.164 102.896 195.908 102.592 195.732C102.288 195.556 101.96 195.468 101.608 195.468C101.256 195.468 100.928 195.556 100.624 195.732C100.32 195.9 100.072 196.152 99.8795 196.488C99.6955 196.816 99.6035 197.208 99.6035 197.664C99.6035 198.12 99.6955 198.52 99.8795 198.864C100.072 199.208 100.32 199.472 100.624 199.656C100.936 199.832 101.264 199.92 101.608 199.92C101.96 199.92 102.288 199.832 102.592 199.656C102.896 199.48 103.14 199.224 103.324 198.888C103.516 198.544 103.612 198.144 103.612 197.688ZM109.32 195.504H108.096V201H106.716V195.504H105.936V194.388H106.716V193.92C106.716 193.16 106.916 192.608 107.316 192.264C107.724 191.912 108.36 191.736 109.224 191.736V192.876C108.808 192.876 108.516 192.956 108.348 193.116C108.18 193.268 108.096 193.536 108.096 193.92V194.388H109.32V195.504ZM116.353 197.532C116.353 197.78 116.337 198.004 116.305 198.204H111.253C111.293 198.732 111.489 199.156 111.841 199.476C112.193 199.796 112.625 199.956 113.137 199.956C113.873 199.956 114.393 199.648 114.697 199.032H116.173C115.973 199.64 115.609 200.14 115.081 200.532C114.561 200.916 113.913 201.108 113.137 201.108C112.505 201.108 111.937 200.968 111.433 200.688C110.937 200.4 110.545 200 110.257 199.488C109.977 198.968 109.837 198.368 109.837 197.688C109.837 197.008 109.973 196.412 110.245 195.9C110.525 195.38 110.913 194.98 111.409 194.7C111.913 194.42 112.489 194.28 113.137 194.28C113.761 194.28 114.317 194.416 114.805 194.688C115.293 194.96 115.673 195.344 115.945 195.84C116.217 196.328 116.353 196.892 116.353 197.532ZM114.925 197.1C114.917 196.596 114.737 196.192 114.385 195.888C114.033 195.584 113.597 195.432 113.077 195.432C112.605 195.432 112.201 195.584 111.865 195.888C111.529 196.184 111.329 196.588 111.265 197.1H114.925ZM119.175 192.66L119.019 198.48H117.879L117.723 192.66H119.175ZM118.491 201.084C118.243 201.084 118.035 201 117.867 200.832C117.699 200.664 117.615 200.456 117.615 200.208C117.615 199.96 117.699 199.752 117.867 199.584C118.035 199.416 118.243 199.332 118.491 199.332C118.731 199.332 118.935 199.416 119.103 199.584C119.271 199.752 119.355 199.96 119.355 200.208C119.355 200.456 119.271 200.664 119.103 200.832C118.935 201 118.731 201.084 118.491 201.084Z" fill="#231F20"/>
<path d="M41.4897 219.364V226.924C41.4897 227.68 41.6757 228.262 42.0477 228.67C42.4197 229.078 42.9657 229.282 43.6857 229.282C44.4057 229.282 44.9577 229.078 45.3417 228.67C45.7257 228.262 45.9177 227.68 45.9177 226.924V219.364H48.9957V226.906C48.9957 228.034 48.7557 228.988 48.2757 229.768C47.7957 230.548 47.1477 231.136 46.3317 231.532C45.5277 231.928 44.6277 232.126 43.6317 232.126C42.6357 232.126 41.7417 231.934 40.9497 231.55C40.1697 231.154 39.5517 230.566 39.0957 229.786C38.6397 228.994 38.4117 228.034 38.4117 226.906V219.364H41.4897ZM54.5231 223.378C54.8231 222.91 55.2371 222.532 55.7651 222.244C56.2931 221.956 56.9111 221.812 57.6191 221.812C58.4471 221.812 59.1971 222.022 59.8691 222.442C60.5411 222.862 61.0691 223.462 61.4531 224.242C61.8491 225.022 62.0471 225.928 62.0471 226.96C62.0471 227.992 61.8491 228.904 61.4531 229.696C61.0691 230.476 60.5411 231.082 59.8691 231.514C59.1971 231.934 58.4471 232.144 57.6191 232.144C56.9231 232.144 56.3051 232 55.7651 231.712C55.2371 231.424 54.8231 231.052 54.5231 230.596V236.788H51.4451V221.956H54.5231V223.378ZM58.9151 226.96C58.9151 226.192 58.6991 225.592 58.2671 225.16C57.8471 224.716 57.3251 224.494 56.7011 224.494C56.0891 224.494 55.5671 224.716 55.1351 225.16C54.7151 225.604 54.5051 226.21 54.5051 226.978C54.5051 227.746 54.7151 228.352 55.1351 228.796C55.5671 229.24 56.0891 229.462 56.7011 229.462C57.3131 229.462 57.8351 229.24 58.2671 228.796C58.6991 228.34 58.9151 227.728 58.9151 226.96ZM63.3379 226.96C63.3379 225.928 63.5299 225.022 63.9139 224.242C64.3099 223.462 64.8439 222.862 65.5159 222.442C66.1879 222.022 66.9379 221.812 67.7659 221.812C68.4259 221.812 69.0259 221.95 69.5659 222.226C70.1179 222.502 70.5499 222.874 70.8619 223.342V218.68H73.9399V232H70.8619V230.56C70.5739 231.04 70.1599 231.424 69.6199 231.712C69.0919 232 68.4739 232.144 67.7659 232.144C66.9379 232.144 66.1879 231.934 65.5159 231.514C64.8439 231.082 64.3099 230.476 63.9139 229.696C63.5299 228.904 63.3379 227.992 63.3379 226.96ZM70.8619 226.978C70.8619 226.21 70.6459 225.604 70.2139 225.16C69.7939 224.716 69.2779 224.494 68.6659 224.494C68.0539 224.494 67.5319 224.716 67.0999 225.16C66.6799 225.592 66.4699 226.192 66.4699 226.96C66.4699 227.728 66.6799 228.34 67.0999 228.796C67.5319 229.24 68.0539 229.462 68.6659 229.462C69.2779 229.462 69.7939 229.24 70.2139 228.796C70.6459 228.352 70.8619 227.746 70.8619 226.978ZM75.8427 226.96C75.8427 225.928 76.0347 225.022 76.4187 224.242C76.8147 223.462 77.3487 222.862 78.0207 222.442C78.6927 222.022 79.4427 221.812 80.2707 221.812C80.9787 221.812 81.5967 221.956 82.1247 222.244C82.6647 222.532 83.0787 222.91 83.3667 223.378V221.956H86.4447V232H83.3667V230.578C83.0667 231.046 82.6467 231.424 82.1067 231.712C81.5787 232 80.9607 232.144 80.2527 232.144C79.4367 232.144 78.6927 231.934 78.0207 231.514C77.3487 231.082 76.8147 230.476 76.4187 229.696C76.0347 228.904 75.8427 227.992 75.8427 226.96ZM83.3667 226.978C83.3667 226.21 83.1507 225.604 82.7187 225.16C82.2987 224.716 81.7827 224.494 81.1707 224.494C80.5587 224.494 80.0367 224.716 79.6047 225.16C79.1847 225.592 78.9747 226.192 78.9747 226.96C78.9747 227.728 79.1847 228.34 79.6047 228.796C80.0367 229.24 80.5587 229.462 81.1707 229.462C81.7827 229.462 82.2987 229.24 82.7187 228.796C83.1507 228.352 83.3667 227.746 83.3667 226.978ZM94.5575 229.39V232H92.9915C91.8755 232 91.0055 231.73 90.3815 231.19C89.7575 230.638 89.4455 229.744 89.4455 228.508V224.512H88.2215V221.956H89.4455V219.508H92.5235V221.956H94.5395V224.512H92.5235V228.544C92.5235 228.844 92.5955 229.06 92.7395 229.192C92.8835 229.324 93.1235 229.39 93.4595 229.39H94.5575ZM106.028 226.816C106.028 227.104 106.01 227.404 105.974 227.716H99.008C99.056 228.34 99.254 228.82 99.602 229.156C99.962 229.48 100.4 229.642 100.916 229.642C101.684 229.642 102.218 229.318 102.518 228.67H105.794C105.626 229.33 105.32 229.924 104.876 230.452C104.444 230.98 103.898 231.394 103.238 231.694C102.578 231.994 101.84 232.144 101.024 232.144C100.04 232.144 99.164 231.934 98.396 231.514C97.628 231.094 97.028 230.494 96.596 229.714C96.164 228.934 95.948 228.022 95.948 226.978C95.948 225.934 96.158 225.022 96.578 224.242C97.01 223.462 97.61 222.862 98.378 222.442C99.146 222.022 100.028 221.812 101.024 221.812C101.996 221.812 102.86 222.016 103.616 222.424C104.372 222.832 104.96 223.414 105.38 224.17C105.812 224.926 106.028 225.808 106.028 226.816ZM102.878 226.006C102.878 225.478 102.698 225.058 102.338 224.746C101.978 224.434 101.528 224.278 100.988 224.278C100.472 224.278 100.034 224.428 99.674 224.728C99.326 225.028 99.11 225.454 99.026 226.006H102.878ZM121.672 223.432C121.672 224.164 121.504 224.836 121.168 225.448C120.832 226.048 120.316 226.534 119.62 226.906C118.924 227.278 118.06 227.464 117.028 227.464H115.12V232H112.042V219.364H117.028C118.036 219.364 118.888 219.538 119.584 219.886C120.28 220.234 120.802 220.714 121.15 221.326C121.498 221.938 121.672 222.64 121.672 223.432ZM116.794 225.016C117.382 225.016 117.82 224.878 118.108 224.602C118.396 224.326 118.54 223.936 118.54 223.432C118.54 222.928 118.396 222.538 118.108 222.262C117.82 221.986 117.382 221.848 116.794 221.848H115.12V225.016H116.794ZM126.641 223.63C127.001 223.078 127.451 222.646 127.991 222.334C128.531 222.01 129.131 221.848 129.791 221.848V225.106H128.945C128.177 225.106 127.601 225.274 127.217 225.61C126.833 225.934 126.641 226.51 126.641 227.338V232H123.563V221.956H126.641V223.63ZM133.098 220.912C132.558 220.912 132.114 220.756 131.766 220.444C131.43 220.12 131.262 219.724 131.262 219.256C131.262 218.776 131.43 218.38 131.766 218.068C132.114 217.744 132.558 217.582 133.098 217.582C133.626 217.582 134.058 217.744 134.394 218.068C134.742 218.38 134.916 218.776 134.916 219.256C134.916 219.724 134.742 220.12 134.394 220.444C134.058 220.756 133.626 220.912 133.098 220.912ZM134.628 221.956V232H131.55V221.956H134.628ZM141.664 229.12L143.842 221.956H147.118L143.554 232H139.756L136.192 221.956H139.486L141.664 229.12ZM148.09 226.96C148.09 225.928 148.282 225.022 148.666 224.242C149.062 223.462 149.596 222.862 150.268 222.442C150.94 222.022 151.69 221.812 152.518 221.812C153.226 221.812 153.844 221.956 154.372 222.244C154.912 222.532 155.326 222.91 155.614 223.378V221.956H158.692V232H155.614V230.578C155.314 231.046 154.894 231.424 154.354 231.712C153.826 232 153.208 232.144 152.5 232.144C151.684 232.144 150.94 231.934 150.268 231.514C149.596 231.082 149.062 230.476 148.666 229.696C148.282 228.904 148.09 227.992 148.09 226.96ZM155.614 226.978C155.614 226.21 155.398 225.604 154.966 225.16C154.546 224.716 154.03 224.494 153.418 224.494C152.806 224.494 152.284 224.716 151.852 225.16C151.432 225.592 151.222 226.192 151.222 226.96C151.222 227.728 151.432 228.34 151.852 228.796C152.284 229.24 152.806 229.462 153.418 229.462C154.03 229.462 154.546 229.24 154.966 228.796C155.398 228.352 155.614 227.746 155.614 226.978ZM160.595 226.978C160.595 225.934 160.805 225.022 161.225 224.242C161.657 223.462 162.251 222.862 163.007 222.442C163.775 222.022 164.651 221.812 165.635 221.812C166.895 221.812 167.945 222.142 168.785 222.802C169.637 223.462 170.195 224.392 170.459 225.592H167.183C166.907 224.824 166.373 224.44 165.581 224.44C165.017 224.44 164.567 224.662 164.231 225.106C163.895 225.538 163.727 226.162 163.727 226.978C163.727 227.794 163.895 228.424 164.231 228.868C164.567 229.3 165.017 229.516 165.581 229.516C166.373 229.516 166.907 229.132 167.183 228.364H170.459C170.195 229.54 169.637 230.464 168.785 231.136C167.933 231.808 166.883 232.144 165.635 232.144C164.651 232.144 163.775 231.934 163.007 231.514C162.251 231.094 161.657 230.494 161.225 229.714C160.805 228.934 160.595 228.022 160.595 226.978ZM182.653 221.956L176.353 236.77H173.041L175.345 231.658L171.259 221.956H174.697L177.019 228.238L179.323 221.956H182.653Z" fill="white"/>
<g opacity="0.2">
<path d="M-26.9318 192.58C-17.8482 190.82 21.1816 178.041 74.1032 198.849C140.255 224.858 154.913 296.153 273.102 288.487" stroke="white"/>
<path d="M-36.7135 230.207C-27.6299 228.447 11.3999 215.668 64.3214 236.475C130.473 262.485 145.131 333.78 263.321 326.114" stroke="white"/>
<path d="M-34.3507 221.152C-25.2671 219.393 13.7627 206.613 66.6842 227.421C132.836 253.43 147.494 324.726 265.683 317.059" stroke="white"/>
<path d="M-32.0586 212.088C-22.9174 210.182 16.4165 196.629 69.338 217.436C135.49 243.446 149.439 316.543 268.214 307.388" stroke="white"/>
<path d="M-29.4046 202.104C-20.2922 200.271 18.8896 187.106 71.8112 207.913C137.963 233.922 152.266 306.119 270.749 297.708" stroke="white"/>
</g>
</g>
<defs>
<filter id="filter0_d_1084_14420" x="56" y="17" width="104" height="104" filterUnits="userSpaceOnUse" color-interpolation-filters="sRGB">
<feFlood flood-opacity="0" result="BackgroundImageFix"/>
<feColorMatrix in="SourceAlpha" type="matrix" values="0 0 0 0 0 0 0 0 0 0 0 0 0 0 0 0 0 0 127 0" result="hardAlpha"/>
<feOffset dy="6"/>
<feGaussianBlur stdDeviation="8"/>
<feColorMatrix type="matrix" values="0 0 0 0 0 0 0 0 0 0.870588 0 0 0 0 0.639216 0 0 0 0.16 0"/>
<feBlend mode="normal" in2="BackgroundImageFix" result="effect1_dropShadow_1084_14420"/>
<feBlend mode="normal" in="SourceGraphic" in2="effect1_dropShadow_1084_14420" result="shape"/>
</filter>
<clipPath id="clip0_1084_14420">
<rect x="0.5" width="216" height="269" rx="16" fill="white"/>
</clipPath>
</defs>
</svg>
