<svg width="20" height="20" viewBox="0 0 20 20" fill="none" xmlns="http://www.w3.org/2000/svg">
<path fill-rule="evenodd" clip-rule="evenodd" d="M9.99988 16.9152C9.78655 16.9152 9.57322 16.8336 9.41072 16.6711L6.07738 13.3377C5.75155 13.0119 5.75155 12.4852 6.07738 12.1594C6.40322 11.8336 6.92988 11.8336 7.25572 12.1594L10.0099 14.9136L12.754 12.2636C13.0865 11.9444 13.6124 11.9536 13.9324 12.2844C14.2524 12.6152 14.2432 13.1436 13.9124 13.4627L10.579 16.6811C10.4165 16.8377 10.2082 16.9152 9.99988 16.9152Z" fill="#15154C"/>
<path fill-rule="evenodd" clip-rule="evenodd" d="M9.99963 2.91483C10.213 2.91483 10.4263 2.9965 10.5888 3.159L13.9221 6.49233C14.248 6.81816 14.248 7.34483 13.9221 7.67066C13.5963 7.9965 13.0696 7.9965 12.7438 7.67066L9.98963 4.9165L7.24546 7.5665C6.91296 7.88566 6.38713 7.8765 6.06713 7.54566C5.74713 7.21483 5.7563 6.6865 6.08713 6.36733L9.42046 3.149C9.58296 2.99233 9.7913 2.91483 9.99963 2.91483Z" fill="#15154C"/>
</svg>
