<svg width="410" height="410" viewBox="0 0 410 400" fill="none" xmlns="http://www.w3.org/2000/svg">
<g clip-path="url(#clip0_194_7544)">
<path d="M289.003 86.2926H287.389V-0.00258636H289.003V86.2926Z" fill="#E7E8E5"/>
<path d="M292.684 79.0966V85.1647H283.709V79.0966H292.684Z" fill="#D4D6D3"/>
<path d="M292.684 81.1157V85.1647H283.709V81.1157H292.684Z" fill="#BEBFBD"/>
<path d="M295.108 125.329C295.108 129.145 292.015 132.239 288.199 132.239C284.383 132.239 281.29 129.145 281.29 125.329C281.29 121.513 284.383 118.419 288.199 118.419C292.015 118.419 295.108 121.513 295.108 125.329Z" fill="#E7E8E5"/>
<path d="M310.687 125.329H265.712L273.857 110.89L280.501 84.0906H295.898L302.541 110.89L310.687 125.329Z" fill="#D4D6D3"/>
<path d="M205.376 72.0986H203.762V-0.00200653H205.376V72.0986Z" fill="#E7E8E5"/>
<path d="M209.057 64.9021V70.9702H200.083V64.9021H209.057Z" fill="#D4D6D3"/>
<path d="M209.057 66.9202V70.9702H200.083V66.9202H209.057Z" fill="#BEBFBD"/>
<path d="M211.482 111.134C211.482 114.95 208.389 118.043 204.573 118.043C200.756 118.043 197.663 114.95 197.663 111.134C197.663 107.318 200.756 104.224 204.573 104.224C208.389 104.224 211.482 107.318 211.482 111.134Z" fill="#E7E8E5"/>
<path d="M227.06 111.134H182.086L190.231 96.6951L196.875 69.8964H212.272L218.915 96.6951L227.06 111.134Z" fill="#D4D6D3"/>
<path d="M125.157 57.2697H123.542V-0.00205231H125.157V57.2697Z" fill="#E7E8E5"/>
<path d="M128.837 50.0738V56.1418H119.864V50.0738H128.837Z" fill="#D4D6D3"/>
<path d="M128.837 52.0928V56.1418H119.864V52.0928H128.837Z" fill="#BEBFBD"/>
<path d="M131.263 96.3052C131.263 100.121 128.169 103.215 124.354 103.215C120.537 103.215 117.444 100.121 117.444 96.3052C117.444 92.4892 120.537 89.3953 124.354 89.3953C128.169 89.3953 131.263 92.4892 131.263 96.3052Z" fill="#E7E8E5"/>
<path d="M146.841 96.3047H101.867L110.011 81.8661L116.655 55.0674H132.052L138.696 81.8661L146.841 96.3047Z" fill="#D4D6D3"/>
<path d="M378.441 305.952C365.542 323.423 352.091 343.697 348.817 365.605C348.777 365.936 349.308 366.044 349.385 365.715C350.882 359.707 352.777 353.872 355.089 348.175C363.57 345.841 371.893 343.924 376.347 335.506C380.89 326.853 380.312 315.572 379.45 306.146C379.388 305.641 378.704 305.617 378.441 305.952Z" fill="#E7E8E5"/>
<path d="M355.217 348.01C361.012 335.007 368.452 321.949 377.907 311.256L378.012 311.36C371.82 318.976 367.117 327.27 362.522 335.71C366.793 331.373 371.474 327.489 375.519 322.891C375.599 322.802 375.725 322.931 375.65 323.021C371.632 327.842 367.243 333.08 362.012 336.647C360.606 339.237 359.191 341.834 357.756 344.432C358.107 344.235 358.471 344.06 358.831 343.881L358.888 343.977C358.488 344.179 358.094 344.392 357.681 344.566C357.001 345.796 356.329 347.025 355.63 348.252C355.474 348.524 355.095 348.285 355.217 348.01Z" fill="#999B9B"/>
<path d="M359.529 343.472C362.985 341.491 366.32 339.361 369.43 336.863C369.515 336.795 369.637 336.912 369.552 336.984C366.496 339.571 363.238 341.887 359.67 343.717C359.509 343.798 359.369 343.564 359.529 343.472Z" fill="#999B9B"/>
<path d="M347.324 362.348C347.35 362.614 347.801 362.609 347.795 362.327C347.862 355.112 347.802 347.865 347.911 340.616C349.758 336.887 353.726 334.822 356.485 331.834C358.474 329.676 360.175 327.243 361.63 324.669C365.041 318.564 366.889 311.701 367.599 304.766C368.362 297.049 365.433 271.583 362.179 272.467C360.493 272.926 355.034 285.539 353.586 289.709C351.213 296.569 349.545 303.677 348.451 310.851C345.814 327.83 346.033 345.263 347.324 362.348Z" fill="#E7E8E5"/>
<path d="M347.272 331.225L347.305 331.197C347.699 322.068 349.757 312.849 351.682 303.996C353.756 294.458 356.18 285.477 361.089 276.968C361.18 276.81 361.413 276.95 361.333 277.112C357.991 283.693 355.604 290.68 353.776 297.857C354.104 297.341 354.504 296.854 354.846 296.369C354.979 296.178 355.296 296.355 355.163 296.554C354.682 297.273 354.247 298.111 353.629 298.72L353.565 298.749C351.876 305.566 350.663 312.54 349.625 319.497C349.703 319.408 349.778 319.313 349.855 319.228L349.962 319.311C349.834 319.54 349.689 319.769 349.548 319.999C349.026 323.531 348.54 327.054 348.053 330.546C354.34 325.174 359.708 318.84 362.737 311.036L362.797 311.052C359.83 319.148 355.153 326.343 347.953 331.254C347.822 332.195 347.69 333.137 347.557 334.074C347.529 334.268 347.219 334.216 347.219 334.028C347.222 333.196 347.262 332.363 347.294 331.529C347.206 331.45 347.164 331.316 347.272 331.225Z" fill="#999B9B"/>
<path d="M350.234 317.998C355.038 310.828 359.526 303.864 363.042 295.938C363.08 295.851 363.233 295.914 363.198 296.004C360.235 303.879 356.086 311.858 350.475 318.184C350.36 318.312 350.136 318.143 350.234 317.998Z" fill="#999B9B"/>
<path d="M356.618 294.167C358.609 290.646 360.707 287.219 362.58 283.628C362.632 283.528 362.771 283.616 362.729 283.715C361.156 287.385 359.278 291.112 356.925 294.347C356.794 294.528 356.503 294.37 356.618 294.167Z" fill="#999B9B"/>
<path d="M342.441 341.483C342.318 346.264 341.801 351.045 340.756 355.698C340.829 356.212 340.904 356.724 340.979 357.253C342.485 352.074 343.273 346.768 343.521 341.41C343.603 341.261 343.637 341.101 343.543 340.92L343.542 340.904C343.814 333.75 343.151 326.516 341.949 319.437C339.716 306.178 334.834 293.453 325.587 283.515C325.294 283.209 324.708 283.368 324.566 283.726C320.835 293.214 322.136 304.535 325.314 314.001C327.045 319.099 329.512 323.995 332.648 328.379C335.819 332.839 339.864 336.612 342.441 341.483Z" fill="#E7E8E5"/>
<path d="M326.681 287.956C335.444 302.178 341.542 319.043 342.288 335.843C342.3 336.141 341.799 336.22 341.757 335.915C341.551 334.405 341.32 332.909 341.077 331.42L341.064 331.414C337.438 327.941 333.716 324.278 331.119 319.939L331.244 319.843C334.399 323.446 337.341 327.14 340.903 330.355C340.275 326.64 339.532 322.984 338.652 319.383C338.417 319.113 338.188 318.838 337.958 318.568C337.806 318.389 338.06 318.13 338.217 318.307L338.429 318.54C337.187 313.594 335.671 308.752 333.847 303.994C331.616 301.332 329.121 299.032 327.496 295.826L327.613 295.758C328.92 297.592 330.183 299.435 331.666 301.137C332.256 301.815 332.904 302.448 333.517 303.11C331.522 298.031 329.156 293.05 326.342 288.155C326.216 287.935 326.548 287.741 326.681 287.956Z" fill="#999B9B"/>
<path d="M328.452 305.5C331.285 309.313 334.514 312.951 337.146 316.891C337.222 317.003 337.058 317.119 336.964 317.032C333.58 313.858 330.716 309.523 328.262 305.612C328.185 305.489 328.37 305.39 328.452 305.5Z" fill="#999B9B"/>
<path d="M337.543 317.774L337.663 317.894C337.748 317.978 337.618 318.108 337.534 318.024L337.413 317.903C337.329 317.819 337.459 317.69 337.543 317.774Z" fill="#999B9B"/>
<path d="M312.951 315.298C313.655 322.615 317.504 331.356 322.198 336.995C324.278 339.489 326.802 341.398 329.697 342.847C332.946 344.454 336.347 346.305 339.706 347.624C341.277 351.633 342.48 355.833 343.249 360.212C343.358 359.845 343.466 359.463 343.575 359.096C341.418 340.569 329.429 324.734 314.094 314.569C313.542 314.203 312.89 314.673 312.951 315.298Z" fill="#E7E8E5"/>
<path d="M318.249 320.773C318.141 320.677 318.287 320.483 318.405 320.569C326.531 326.589 333.854 335.368 337.944 344.651C338.056 344.904 337.708 345.127 337.564 344.874C336.851 343.625 336.124 342.41 335.385 341.216L335.374 341.218C331.874 340.56 328.559 338.096 325.961 335.758L326.066 335.653C327.421 336.85 328.877 337.943 330.493 338.765C331.921 339.489 333.456 339.946 334.942 340.526C333.645 338.468 332.292 336.492 330.881 334.578C327.114 333.294 323.528 330.981 320.362 328.665C320.263 328.592 320.351 328.428 320.461 328.495C323.688 330.437 326.868 332.146 330.237 333.721C328.116 330.911 325.818 328.248 323.335 325.673C322.145 325.045 320.939 324.415 319.786 323.742C319.692 323.688 319.753 323.527 319.861 323.563C320.779 323.868 321.715 324.35 322.584 324.901C321.201 323.501 319.776 322.121 318.249 320.773Z" fill="#999B9B"/>
<path d="M318.575 327.168C318.787 327.303 318.978 327.424 319.165 327.589L319.091 327.686C318.866 327.588 318.681 327.469 318.476 327.338C318.37 327.27 318.468 327.1 318.575 327.168Z" fill="#999B9B"/>
<path d="M367.506 400.332H325.485L328.878 362.065L329.622 353.625H363.369L364.113 362.065L367.506 400.332Z" fill="#BEBFBD"/>
<path d="M364.113 362.065H328.878L329.622 353.625H363.369L364.113 362.065Z" fill="#999B9B"/>
<path d="M365.379 356.077H327.612V347.724H365.379V356.077Z" fill="#BEBFBD"/>
<path d="M43.4316 288.213H157.353V210.852H43.4316V288.213ZM158.267 289.127H42.5176V209.938H158.267V289.127Z" fill="#E7E8E5"/>
<path d="M51.568 215.039C51.568 216.313 50.5365 217.343 49.264 217.343C47.9915 217.343 46.9604 216.313 46.9604 215.039C46.9604 213.767 47.9915 212.735 49.264 212.735C50.5365 212.735 51.568 213.767 51.568 215.039Z" fill="#999B9B"/>
<path d="M60.9757 215.039C60.9757 216.313 59.9442 217.343 58.6717 217.343C57.3993 217.343 56.3682 216.313 56.3682 215.039C56.3682 213.767 57.3993 212.735 58.6717 212.735C59.9442 212.735 60.9757 213.767 60.9757 215.039Z" fill="#E7E8E5"/>
<path d="M70.3828 215.039C70.3828 216.313 69.3513 217.343 68.0788 217.343C66.8064 217.343 65.7749 216.313 65.7749 215.039C65.7749 213.767 66.8064 212.735 68.0788 212.735C69.3513 212.735 70.3828 213.767 70.3828 215.039Z" fill="#FABB1E"/>
<path d="M157.81 220.009H42.9746V219.095H157.81V220.009Z" fill="#E7E8E5"/>
<path d="M44.2808 400.597H160.721V390.952H44.2808V400.597Z" fill="#33535F"/>
<path d="M382.443 390.952V400.597H160.721V390.952H382.443Z" fill="#273E47"/>
<path d="M266.02 390.952H44.2797L14.0557 248.76H235.797L266.02 390.952Z" fill="#17282F"/>
<path d="M114.314 381.974H51.3492L24.9419 257.737H87.907L114.314 381.974Z" fill="white"/>
<path d="M50.0297 304.4C49.6116 304.699 49.1246 304.929 48.573 305.069C47.1466 305.438 45.5774 305.154 44.1976 304.398C42.8479 303.66 41.6772 302.471 41.0049 300.999C39.6467 298.022 40.8296 295.022 43.652 294.297C46.4714 293.568 49.8601 295.393 51.2207 298.369C52.314 300.764 51.7577 303.174 50.0297 304.4Z" fill="#BEBFBD"/>
<path d="M47.664 299.05C47.8622 299.981 47.2673 300.737 46.3348 300.737C45.4033 300.737 44.4871 299.981 44.289 299.05C44.0909 298.118 44.686 297.363 45.6179 297.363C46.5498 297.363 47.4659 298.118 47.664 299.05Z" fill="white"/>
<path d="M49.8817 303.704L50.0298 304.4C49.6118 304.699 49.1248 304.929 48.5732 305.069C47.1468 305.438 45.5776 305.154 44.1977 304.398L44.0499 303.704C43.7086 302.097 44.735 300.788 46.3463 300.788C47.9572 300.788 49.5404 302.097 49.8817 303.704Z" fill="white"/>
<path d="M80.1508 296.315H54.8927L54.4297 294.137H79.6874L80.1508 296.315Z" fill="#BEBFBD"/>
<path d="M90.246 300.304H55.7405L55.4741 299.05H89.9797L90.246 300.304Z" fill="#BEBFBD"/>
<path d="M90.8212 303.009H56.3157L56.0493 301.755H90.5549L90.8212 303.009Z" fill="#BEBFBD"/>
<path d="M53.7155 321.74C53.2971 322.039 52.8105 322.268 52.2589 322.408C50.8325 322.776 49.2637 322.494 47.8834 321.737C46.5338 320.999 45.3631 319.809 44.6904 318.339C43.3323 315.362 44.5151 312.361 47.3379 311.636C50.1578 310.908 53.546 312.731 54.9067 315.708C55.9995 318.103 55.4436 320.513 53.7155 321.74Z" fill="#FABB1E"/>
<path d="M51.3498 316.389C51.5479 317.321 50.9531 318.077 50.0212 318.077C49.0894 318.077 48.1732 317.321 47.9751 316.389C47.7769 315.457 48.3718 314.702 49.304 314.702C50.2354 314.702 51.1516 315.457 51.3498 316.389Z" fill="white"/>
<path d="M53.5678 321.043L53.7156 321.74C53.2972 322.039 52.8106 322.268 52.259 322.408C50.8326 322.776 49.2638 322.494 47.8835 321.737L47.736 321.043C47.3944 319.437 48.4209 318.127 50.0318 318.127C51.6434 318.127 53.2266 319.437 53.5678 321.043Z" fill="white"/>
<path d="M83.8361 313.654H58.5784L58.1157 311.475H83.3734L83.8361 313.654Z" fill="#BEBFBD"/>
<path d="M93.9316 317.643H59.4265L59.1602 316.389H93.6656L93.9316 317.643Z" fill="#BEBFBD"/>
<path d="M94.5064 320.348H60.0012L59.7349 319.094H94.2404L94.5064 320.348Z" fill="#BEBFBD"/>
<path d="M57.4012 339.078C56.9827 339.379 56.4957 339.608 55.9441 339.748C54.5182 340.116 52.949 339.834 51.5687 339.077C50.219 338.339 49.0491 337.149 48.376 335.679C47.0179 332.702 48.2004 329.702 51.0235 328.976C53.843 328.248 57.232 330.071 58.5923 333.048C59.6855 335.442 59.1289 337.853 57.4012 339.078Z" fill="#33535F"/>
<path d="M55.0352 333.729C55.2334 334.66 54.6385 335.416 53.7067 335.416C52.7748 335.416 51.8587 334.66 51.6605 333.729C51.4627 332.796 52.0576 332.041 52.9894 332.041C53.9212 332.041 54.8374 332.796 55.0352 333.729Z" fill="white"/>
<path d="M57.253 338.383L57.4012 339.078C56.9827 339.379 56.4957 339.608 55.9441 339.748C54.5182 340.116 52.949 339.834 51.5687 339.077L51.4216 338.383C51.0799 336.777 52.106 335.467 53.7177 335.467C55.3286 335.467 56.9117 336.777 57.253 338.383Z" fill="white"/>
<path d="M87.5216 330.994H62.2635L61.8008 328.816H87.0588L87.5216 330.994Z" fill="#BEBFBD"/>
<path d="M97.6176 334.982H63.1116L62.8452 333.729H97.3507L97.6176 334.982Z" fill="#BEBFBD"/>
<path d="M98.1924 337.688H63.6863L63.4199 336.434H97.9264L98.1924 337.688Z" fill="#BEBFBD"/>
<path d="M61.0868 356.419C60.6688 356.718 60.1817 356.947 59.6301 357.088C58.2038 357.456 56.6346 357.173 55.2543 356.416C53.9051 355.68 52.7343 354.489 52.0617 353.018C50.7031 350.042 51.8864 347.041 54.7088 346.315C57.5286 345.588 60.9172 347.411 62.2775 350.387C63.3711 352.783 62.8145 355.192 61.0868 356.419Z" fill="#17282F"/>
<path d="M58.7212 351.068C58.919 351.999 58.3238 352.755 57.3927 352.755C56.4602 352.755 55.5443 351.999 55.3462 351.068C55.148 350.136 55.7432 349.38 56.6747 349.38C57.6066 349.38 58.5231 350.136 58.7212 351.068Z" fill="white"/>
<path d="M60.9388 355.723L61.087 356.419C60.6689 356.718 60.1818 356.947 59.6302 357.088C58.2039 357.456 56.6347 357.173 55.2544 356.416L55.107 355.723C54.7657 354.117 55.7921 352.807 57.4034 352.807C59.0144 352.807 60.5974 354.117 60.9388 355.723Z" fill="white"/>
<path d="M91.2078 348.333H65.9497L65.4863 346.156H90.7443L91.2078 348.333Z" fill="#BEBFBD"/>
<path d="M101.303 352.321H66.7975L66.5308 351.068H101.036L101.303 352.321Z" fill="#BEBFBD"/>
<path d="M101.878 355.028H67.3723L67.106 353.774H101.612L101.878 355.028Z" fill="#BEBFBD"/>
<path d="M64.7727 373.759C64.3543 374.057 63.8673 374.286 63.3157 374.428C61.8896 374.795 60.3208 374.513 58.9401 373.756C57.591 373.018 56.4202 371.828 55.7476 370.358C54.3894 367.381 55.5723 364.38 58.395 363.654C61.2141 362.927 64.6028 364.749 65.9637 367.726C67.0566 370.122 66.5004 372.531 64.7727 373.759Z" fill="#BEBFBD"/>
<path d="M62.4064 368.407C62.6046 369.339 62.0097 370.095 61.0779 370.095C60.1461 370.095 59.2299 369.339 59.0317 368.407C58.8336 367.476 59.4284 366.72 60.3603 366.72C61.2925 366.72 62.2083 367.476 62.4064 368.407Z" fill="white"/>
<path d="M64.6247 373.062L64.7725 373.759C64.3541 374.057 63.8671 374.286 63.3155 374.428C61.8895 374.795 60.3207 374.513 58.94 373.756L58.7925 373.062C58.4513 371.455 59.4773 370.147 61.0886 370.147C62.7003 370.147 64.2831 371.455 64.6247 373.062Z" fill="white"/>
<path d="M94.893 365.672H69.635L69.1724 363.494H94.4305L94.893 365.672Z" fill="#BEBFBD"/>
<path d="M104.989 369.661H70.483L70.2163 368.407H104.722L104.989 369.661Z" fill="#BEBFBD"/>
<path d="M105.563 372.367H71.0578L70.7915 371.113H105.297L105.563 372.367Z" fill="#BEBFBD"/>
<path d="M40.5493 274.826C40.2894 275.013 39.9862 275.155 39.6425 275.243C38.7549 275.472 37.778 275.295 36.919 274.825C36.0788 274.366 35.3502 273.625 34.9314 272.709C34.0863 270.856 34.8221 268.988 36.5794 268.537C38.3346 268.084 40.444 269.218 41.2909 271.071C41.9714 272.562 41.625 274.062 40.5493 274.826Z" fill="#BEBFBD"/>
<path d="M39.0767 271.495C39.2003 272.075 38.83 272.545 38.2498 272.545C37.6697 272.545 37.0994 272.075 36.9763 271.495C36.8531 270.914 37.223 270.445 37.8032 270.445C38.3833 270.445 38.9536 270.914 39.0767 271.495Z" fill="white"/>
<path d="M40.4576 274.392L40.5494 274.826C40.2894 275.013 39.9862 275.155 39.6425 275.243C38.7549 275.472 37.778 275.295 36.919 274.825L36.8276 274.392C36.6145 273.392 37.2535 272.578 38.2565 272.578C39.2597 272.578 40.2448 273.392 40.4576 274.392Z" fill="white"/>
<path d="M83.7839 272.651C83.7496 272.489 83.8528 272.358 84.0142 272.358C84.1752 272.358 84.3341 272.489 84.3687 272.651C84.4027 272.812 84.2999 272.942 84.1385 272.942C83.977 272.942 83.8186 272.812 83.7839 272.651Z" fill="#BEBFBD"/>
<path d="M83.5384 271.495C83.5038 271.333 83.607 271.203 83.7684 271.203C83.9298 271.203 84.0883 271.333 84.1226 271.495C84.1569 271.657 84.054 271.786 83.8926 271.786C83.7313 271.786 83.5727 271.657 83.5384 271.495Z" fill="#BEBFBD"/>
<path d="M83.2927 270.339C83.2584 270.178 83.3616 270.047 83.523 270.047C83.684 270.047 83.8429 270.178 83.8768 270.339C83.9111 270.501 83.8087 270.631 83.6472 270.631C83.4855 270.631 83.327 270.501 83.2927 270.339Z" fill="#BEBFBD"/>
<path d="M79.5357 272.234H76.1992L75.7344 270.047H79.0711L79.5357 272.234Z" fill="#BEBFBD"/>
<path d="M76.1992 272.234L76.3498 272.942L76.9215 272.234H76.1992Z" fill="#BEBFBD"/>
<path d="M78.5604 270.631H76.4938L76.4507 270.428H78.5164L78.5604 270.631Z" fill="white"/>
<path d="M78.6519 271.064H76.5857L76.5425 270.861H78.6087L78.6519 271.064Z" fill="white"/>
<path d="M78.744 271.499H76.6782L76.6343 271.294H78.7008L78.744 271.499Z" fill="white"/>
<path d="M230.155 264.457H26.3704L24.9419 257.737H228.727L230.155 264.457Z" fill="#273E47"/>
<path d="M30.9971 261.097C31.1923 262.017 30.6051 262.763 29.6846 262.763C28.7642 262.763 27.8595 262.017 27.6642 261.097C27.4681 260.176 28.0558 259.43 28.9759 259.43C29.8967 259.43 30.8014 260.176 30.9971 261.097Z" fill="#BEBFBD"/>
<path d="M37.8025 261.097C37.9979 262.017 37.4105 262.763 36.4897 262.763C35.5696 262.763 34.6649 262.017 34.4692 261.097C34.2735 260.176 34.8612 259.43 35.7814 259.43C36.7018 259.43 37.6068 260.176 37.8025 261.097Z" fill="white"/>
<path d="M44.6067 261.097C44.8028 262.017 44.215 262.763 43.2946 262.763C42.3745 262.763 41.4698 262.017 41.2738 261.097C41.0785 260.176 41.6662 259.43 42.5863 259.43C43.5067 259.43 44.4114 260.176 44.6067 261.097Z" fill="#FABB1E"/>
<path d="M230.156 264.457H89.3354L114.314 381.974H255.135L230.156 264.457Z" fill="#E7E8E5"/>
<path d="M242.969 376.31H126.03L124.574 369.46H241.513L242.969 376.31Z" fill="white"/>
<path d="M240.632 372.97C240.831 373.903 240.235 374.658 239.307 374.658C238.379 374.658 237.456 373.903 237.258 372.97C237.061 372.042 237.662 371.286 238.59 371.286C239.518 371.286 240.435 372.042 240.632 372.97Z" fill="#FABB1E"/>
<path d="M238.43 371.996L239.677 372.971L238.844 373.946L238.58 373.717L239.217 372.971L238.263 372.226L238.43 371.996Z" fill="white"/>
<path d="M127.66 374.927H127.212L126.343 370.841H126.792L127.66 374.927Z" fill="#17282F"/>
<path d="M247.557 376.358L247.386 376.217L247.037 374.573L247.148 374.432L247.318 374.573L247.667 376.217L247.557 376.358Z" fill="#999B9B"/>
<path d="M248.453 376.358H246.654L246.483 376.217L246.594 376.077H248.393L248.564 376.217L248.453 376.358Z" fill="#999B9B"/>
<path d="M247.49 370.617L247.998 373.007C248.134 373.645 247.726 374.164 247.086 374.164C246.631 374.164 246.182 373.901 245.912 373.519C245.802 373.365 245.723 373.191 245.683 373.007L245.176 370.617C245.04 369.979 245.448 369.46 246.086 369.46C246.406 369.46 246.723 369.59 246.977 369.799C247.216 369.997 247.399 370.264 247.477 370.561L247.49 370.617Z" fill="#999B9B"/>
<path d="M247.201 374.714C246.767 374.714 246.322 374.549 245.942 374.248C245.54 373.927 245.263 373.496 245.165 373.033L244.95 372.025L245.062 371.884L245.231 372.025L245.445 373.033C245.527 373.419 245.757 373.777 246.093 374.044C246.429 374.311 246.824 374.45 247.207 374.431C247.936 374.399 248.398 373.749 248.235 372.984L248.032 372.025L248.142 371.884L248.312 372.025L248.516 372.984C248.714 373.913 248.17 374.672 247.278 374.712L247.201 374.714Z" fill="#999B9B"/>
<path d="M122.817 372.869C123.227 374.76 122.029 376.3 120.139 376.309C118.25 376.318 116.385 374.792 115.975 372.899C115.564 371.008 116.763 369.468 118.653 369.461C120.542 369.452 122.406 370.978 122.817 372.869Z" fill="white"/>
<path d="M118.097 372.212C118.154 372.478 117.986 372.696 117.719 372.696C117.453 372.698 117.191 372.483 117.133 372.216C117.076 371.95 117.244 371.733 117.51 371.732C117.777 371.731 118.039 371.945 118.097 372.212Z" fill="#999B9B"/>
<path d="M121.365 372.198C121.422 372.465 121.253 372.681 120.987 372.682C120.721 372.683 120.459 372.469 120.401 372.202C120.343 371.936 120.512 371.719 120.778 371.718C121.044 371.716 121.307 371.932 121.365 372.198Z" fill="#999B9B"/>
<path d="M119.943 372.058C119.981 372.23 119.955 372.388 119.882 372.514C119.784 372.679 119.603 372.786 119.375 372.787C119.146 372.788 118.919 372.683 118.75 372.518C118.623 372.395 118.529 372.237 118.492 372.064L119.943 372.058Z" fill="#999B9B"/>
<path d="M119.882 372.514C119.784 372.679 119.603 372.786 119.375 372.787C119.146 372.788 118.919 372.683 118.75 372.518C118.869 372.388 119.051 372.308 119.271 372.306C119.49 372.305 119.707 372.384 119.882 372.514Z" fill="#D4D6D3"/>
<path d="M41.2671 286.58L40.8401 286.965L39.6319 285.721L39.1899 285.264L39.3642 285.152C39.4641 285.062 39.5266 284.943 39.5534 284.813L40.0232 285.296L41.2671 286.58Z" fill="#999B9B"/>
<path d="M39.364 285.152L39.1898 285.264C38.8813 285.4 38.4622 285.302 38.1661 284.999C37.8099 284.635 37.767 284.113 38.0715 283.833C38.3772 283.554 38.9131 283.624 39.2704 283.988C39.5097 284.233 39.6075 284.548 39.5532 284.813C39.5265 284.943 39.464 285.062 39.364 285.152ZM39.6414 283.647C39.0452 283.038 38.1476 282.923 37.6381 283.39C37.1283 283.857 37.1986 284.73 37.7952 285.34C38.3311 285.886 39.1099 286.034 39.6318 285.721L39.7982 285.596C39.8932 285.509 39.9681 285.407 40.0231 285.297C40.2634 284.812 40.1263 284.143 39.6414 283.647Z" fill="#999B9B"/>
<path d="M46.7456 285.64L46.8537 285.629C47.0701 285.779 47.4164 285.952 47.7399 285.949C47.9569 285.949 48.1387 285.885 48.253 285.785C48.3704 285.686 48.4172 285.554 48.3872 285.416C48.3572 285.272 48.2665 285.166 48.112 285.073C47.9577 284.984 47.7445 284.917 47.4928 284.87H47.4857C47.245 284.827 47.029 284.764 46.8541 284.66C46.6799 284.56 46.5449 284.411 46.5057 284.226C46.4653 284.038 46.5338 283.873 46.6663 283.76C46.7988 283.646 46.9944 283.579 47.229 283.579C47.5557 283.579 47.8352 283.739 48.0584 283.866L48.103 283.976L48.0013 283.998C47.7774 283.869 47.5357 283.735 47.2622 283.735C47.059 283.735 46.8908 283.794 46.7848 283.884C46.6803 283.976 46.6349 284.098 46.6623 284.226C46.692 284.349 46.7685 284.443 46.9112 284.528C47.0541 284.614 47.2522 284.675 47.4853 284.718H47.4918C47.7507 284.764 47.9863 284.835 48.1734 284.945C48.3594 285.052 48.5051 285.216 48.5475 285.416C48.5896 285.614 48.5136 285.793 48.3725 285.913C48.2305 286.034 48.0227 286.109 47.7739 286.109C47.3925 286.105 47.0212 285.913 46.7802 285.75L46.7456 285.64Z" fill="#999B9B"/>
<path d="M49.1367 285.099H50.4559C50.3298 284.771 50.0014 284.532 49.6812 284.532C49.3544 284.532 49.1302 284.768 49.1367 285.099ZM48.985 285.237C48.8818 284.752 49.1759 284.361 49.6454 284.361C50.0935 284.361 50.5244 284.718 50.6566 285.174L50.6576 285.178L50.6598 285.188L50.5909 285.265H49.1616C49.2605 285.646 49.6205 285.935 49.9796 285.935C50.2107 285.935 50.398 285.815 50.4741 285.618L50.5816 285.59L50.6362 285.71C50.5377 285.949 50.3106 286.105 50.0157 286.105C49.5462 286.105 49.0856 285.714 48.985 285.237Z" fill="#999B9B"/>
<path d="M52.5677 285.233C52.4842 284.842 52.1221 284.529 51.7633 284.529C51.4076 284.529 51.1752 284.842 51.2585 285.233C51.3416 285.624 51.7069 285.935 52.0624 285.935C52.4213 285.935 52.6505 285.624 52.5677 285.233ZM52.5709 284.447L52.9051 286.021L52.838 286.105L52.7344 286.021L52.679 285.76C52.5737 285.967 52.3649 286.105 52.0985 286.105C51.6397 286.105 51.1896 285.71 51.0881 285.233C50.9864 284.756 51.2688 284.361 51.7275 284.361C51.9946 284.361 52.2613 284.497 52.4545 284.703L52.4002 284.447L52.4677 284.361L52.5709 284.447Z" fill="#999B9B"/>
<path d="M53.3135 284.451L53.3838 284.365L53.4841 284.451L53.5659 284.835L53.5816 284.792C53.6691 284.585 53.8533 284.365 54.1875 284.365L54.2914 284.451L54.2243 284.537C53.9965 284.537 53.8672 284.663 53.7797 284.821C53.6958 284.977 53.6655 285.155 53.6566 285.226L53.6551 285.255L53.8179 286.021L53.7537 286.105L53.6465 286.021L53.3135 284.451Z" fill="#999B9B"/>
<path d="M54.8281 285.23C54.7249 284.745 55.0419 284.361 55.54 284.361C55.746 284.361 55.9567 284.432 56.1352 284.553L56.1709 284.671L56.0567 284.686C55.911 284.585 55.7424 284.529 55.5754 284.529C55.1697 284.529 54.9174 284.845 54.9991 285.23C55.082 285.622 55.469 285.935 55.8742 285.935C56.0417 285.935 56.1856 285.878 56.2897 285.782L56.4101 285.796L56.4187 285.921C56.2972 286.034 56.117 286.105 55.9102 286.105C55.4126 286.105 54.9324 285.721 54.8281 285.23Z" fill="#999B9B"/>
<path d="M58.2276 285.049C58.1626 284.742 57.8699 284.537 57.5635 284.537C57.261 284.537 57.0565 284.742 57.1218 285.049L57.3278 286.021L57.3307 286.03L57.3296 286.046L57.3256 286.06L57.2814 286.102L57.2746 286.105H57.2675H57.2568L57.1832 286.077L57.1632 286.049L57.154 286.021L56.9473 285.049L56.9408 285.02L56.6602 283.7L56.7273 283.614L56.8347 283.7L57.0297 284.617C57.1279 284.462 57.3064 284.361 57.5271 284.361C57.9287 284.361 58.3161 284.646 58.4018 285.049L58.6078 286.021L58.5374 286.105L58.4339 286.021L58.2276 285.049Z" fill="#999B9B"/>
<path d="M60.1108 285.23C60.0076 284.745 60.325 284.361 60.8223 284.361C61.0283 284.361 61.2394 284.432 61.4183 284.553L61.4535 284.671L61.3393 284.686C61.1937 284.585 61.0255 284.529 60.8581 284.529C60.4528 284.529 60.2001 284.845 60.2818 285.23C60.3653 285.622 60.7517 285.935 61.1568 285.935C61.3243 285.935 61.4686 285.878 61.5724 285.782L61.6925 285.796L61.7017 285.921C61.5799 286.034 61.3993 286.105 61.1933 286.105C60.6956 286.105 60.2154 285.721 60.1108 285.23Z" fill="#999B9B"/>
<path d="M63.5098 285.049C63.4448 284.742 63.1521 284.537 62.8457 284.537C62.5433 284.537 62.3387 284.742 62.4041 285.049L62.6101 286.021L62.6129 286.03L62.6118 286.046L62.6079 286.06L62.5636 286.102L62.5569 286.105H62.5497H62.539L62.4655 286.077L62.4454 286.049L62.4361 286.021L62.2295 285.049L62.223 285.02L61.9424 283.7L62.0096 283.614L62.117 283.7L62.3119 284.617C62.4101 284.462 62.5886 284.361 62.8093 284.361C63.2109 284.361 63.5983 284.646 63.684 285.049L63.89 286.021L63.8197 286.105L63.7161 286.021L63.5098 285.049Z" fill="#999B9B"/>
<path d="M65.884 285.233C65.8008 284.842 65.4388 284.529 65.08 284.529C64.7241 284.529 64.4916 284.842 64.5752 285.233C64.6583 285.624 65.0232 285.935 65.3789 285.935C65.7377 285.935 65.9672 285.624 65.884 285.233ZM65.8872 284.447L66.2215 286.021L66.1547 286.105L66.0511 286.021L65.9958 285.76C65.8904 285.967 65.6816 286.105 65.4149 286.105C64.9561 286.105 64.5059 285.71 64.4045 285.233C64.3027 284.756 64.5855 284.361 65.0443 284.361C65.311 284.361 65.578 284.497 65.7712 284.703L65.7169 284.447L65.784 284.361L65.8872 284.447Z" fill="#999B9B"/>
<path d="M67.2378 284.447L67.1706 284.532H66.9464L67.2163 285.803C67.2349 285.889 67.3296 285.932 67.3717 285.932L67.4802 286.021L67.4088 286.105C67.2349 286.105 67.076 285.978 67.0389 285.803L66.769 284.532H66.5519C66.4662 284.532 66.4573 284.49 66.4484 284.447C66.4394 284.404 66.4306 284.361 66.5155 284.361H66.7322L66.5948 283.713L66.6619 283.627L66.7726 283.713L66.9101 284.361H67.1339L67.2378 284.447Z" fill="#999B9B"/>
<path d="M94.8284 290.413H31.8628V290.185H94.8284V290.413Z" fill="#999B9B"/>
<path d="M92.5476 279.684H29.5825V279.456H92.5476V279.684Z" fill="#999B9B"/>
<path d="M35.6553 400.597H57.4915V397.189H35.6553V400.597Z" fill="#111145"/>
<path d="M35.6553 399.436H57.4915V397.189H35.6553V399.436Z" fill="#111145"/>
<path d="M9.73607 388.026C12.3179 391.656 16.8893 394.254 22.0313 393.284C22.7614 393.147 23.4952 392.942 24.2463 392.649C25.2642 392.255 26.29 391.726 27.3337 391.025L24.5595 386.912C23.995 387.304 23.448 387.609 22.9206 387.843C17.7212 390.201 14.4286 386.1 13.782 385.164C10.7886 380.958 9.71715 371.35 12.7498 367.654C12.9502 367.381 13.826 366.948 17.3431 367.696C17.9925 367.842 18.7284 368.006 19.5617 368.235C20.4839 368.497 21.033 368.646 21.5575 368.666L21.6461 366.196L21.8874 363.732C21.6607 363.69 21.3061 363.589 20.8446 363.458C19.5178 363.104 17.7301 362.616 15.8799 362.428C13.2929 362.159 10.5798 362.469 8.91565 364.514C3.98892 370.548 5.98725 382.753 9.73607 388.026Z" fill="#15154C"/>
<path d="M24.2461 392.649L22.9204 387.843C23.4478 387.609 23.9947 387.304 24.5592 386.912L27.3334 391.025C26.2898 391.726 25.264 392.255 24.2461 392.649Z" fill="#15154C"/>
<path d="M21.5574 368.666C21.033 368.647 20.4838 368.497 19.5616 368.235C18.7283 368.006 17.9924 367.842 17.343 367.696L15.8799 362.428C17.73 362.617 19.5177 363.104 20.8445 363.458C21.3061 363.589 21.6606 363.691 21.8874 363.732L21.646 366.196L21.5574 368.666Z" fill="#15154C"/>
<path d="M75.6185 355.99C75.6185 355.99 72.9986 378.243 68.4735 387.617C63.9488 396.975 57.6343 398.024 53.7109 398.024C49.7874 398.024 50.1455 398.024 46.5802 398.024C43.0005 398.024 43.3725 398.024 39.4348 398.024C35.5113 398.024 29.1968 396.975 24.6718 387.617C20.1475 378.243 17.5269 355.99 17.5269 355.99H75.6185Z" fill="#15154C"/>
<path d="M194.216 301.713H320.94V248.742H194.216V301.713Z" fill="#15154C"/>
<path d="M320.94 264.365V248.742H337.207L320.94 264.365Z" fill="#15154C"/>
<path d="M311.278 258.909H203.878V257.902H311.278V258.909Z" fill="white"/>
<path d="M280.276 264.344H203.878V263.336H280.276V264.344Z" fill="white"/>
<path d="M298.997 275.214H203.878V274.208H298.997V275.214Z" fill="white"/>
<path d="M311.278 280.649H203.878V279.643H311.278V280.649Z" fill="white"/>
<path d="M311.278 286.085H203.878V285.078H311.278V286.085Z" fill="white"/>
<path d="M269.907 291.52H203.878V290.514H269.907V291.52Z" fill="white"/>
<path d="M303.612 195.805H176.889V151.113H303.612V195.805Z" fill="#759FD3"/>
<path d="M176.906 166.736V151.113H160.639L176.906 166.736Z" fill="#759FD3"/>
<path d="M269.181 160.374H186.745V159.367H269.181V160.374Z" fill="white"/>
<path d="M294.143 165.809H186.745V164.803H294.143V165.809Z" fill="white"/>
<path d="M294.143 171.245H186.745V170.237H294.143V171.245Z" fill="white"/>
<path d="M282.316 176.681H186.745V175.673H282.316V176.681Z" fill="white"/>
<path d="M294.143 182.115H186.745V181.108H294.143V182.115Z" fill="white"/>
<path d="M255.14 187.551H186.745V186.544H255.14V187.551Z" fill="white"/>
<path d="M303.612 236.183H176.889V203.037H303.612V236.183Z" fill="#759FD3"/>
<path d="M176.906 218.66V203.037H160.639L176.906 218.66Z" fill="#759FD3"/>
<path d="M293.877 212.297H186.745V211.29H293.877V212.297Z" fill="white"/>
<path d="M267.495 217.733H186.745V216.726H267.495V217.733Z" fill="white"/>
<path d="M279.825 223.167H186.745V222.161H279.825V223.167Z" fill="white"/>
<path d="M248.949 228.603H186.745V227.597H248.949V228.603Z" fill="white"/>
<path d="M303.612 342.586H176.889V312.009H303.612V342.586Z" fill="#759FD3"/>
<path d="M176.889 327.632V312.009H160.621L176.889 327.632Z" fill="#759FD3"/>
<path d="M285.838 321.27H186.745V320.263H285.838V321.27Z" fill="white"/>
<path d="M260.182 326.704H186.745V325.699H260.182V326.704Z" fill="white"/>
<path d="M278.954 332.141H186.745V331.134H278.954V332.141Z" fill="white"/>
<path d="M342.268 250.021C342.268 266.187 355.372 279.292 371.538 279.292C387.703 279.292 400.808 266.187 400.808 250.021C400.808 233.855 387.703 220.751 371.538 220.751C355.372 220.751 342.268 233.855 342.268 250.021Z" fill="#999B9B"/>
<mask id="mask0_194_7544" style="mask-type:luminance" maskUnits="userSpaceOnUse" x="342" y="210" width="59" height="70">
<path d="M400.813 250.022C400.813 259.016 396.766 267.049 390.382 272.421C388.234 274.231 385.822 275.73 383.211 276.867C382.912 277.004 382.6 277.13 382.275 277.255C382.113 277.317 381.937 277.392 381.775 277.442C380.138 278.067 378.427 278.528 376.653 278.829C374.991 279.141 373.28 279.29 371.531 279.29C370.507 279.29 369.483 279.241 368.483 279.129C368.046 279.091 367.621 279.041 367.184 278.966C366.671 278.891 366.159 278.803 365.648 278.691C365.485 278.667 365.335 278.63 365.185 278.592C364.411 278.429 363.649 278.229 362.898 278.004C362.087 277.742 361.288 277.467 360.5 277.142L360.312 277.055C360.164 277.004 360.013 276.942 359.877 276.867C358.901 276.455 357.964 275.98 357.053 275.456C348.221 270.421 342.262 260.915 342.262 250.022C342.262 240.802 346.534 232.57 353.192 227.21C353.492 226.086 353.805 225.012 354.155 224.025C349.095 220.59 351.331 214.106 352.231 212.732C353.168 211.283 356.291 214.694 356.291 214.694C356.291 214.694 357.303 210.646 358.464 210.396C359.626 210.134 360.45 212.794 360.45 212.794C360.45 212.794 369.107 211.245 376.578 212.57C384.036 213.893 386.621 222.001 386.621 222.001C386.621 222.001 390.507 223.437 391.381 226.436C391.519 226.886 391.495 227.598 391.357 228.472C397.166 233.831 400.813 241.502 400.813 250.022Z" fill="white"/>
</mask>
<g mask="url(#mask0_194_7544)">
<path d="M363.158 269.424L365.753 281.153L384.688 267.161L391.475 273.419C391.475 273.419 376.267 291.156 363.933 291.156C357.457 291.156 356.19 276.304 356.19 276.304L363.158 269.424Z" fill="#FABB1E"/>
<path d="M366.128 282.766C370.887 284.245 379.703 277.426 383.398 271.662C383.65 271.265 383.319 266.891 383.17 261.558C383.092 258.321 383.081 254.715 383.309 251.424C383.359 250.749 362.32 255.009 362.32 255.009C362.32 255.009 363.871 262.049 363.439 267.784C363.397 268.263 363.319 268.706 363.203 269.125C363.193 269.187 363.169 269.261 363.158 269.347C362.562 271.884 361.528 281.334 366.128 282.766Z" fill="#F25553"/>
<path d="M382.1 251.408C380.663 257.143 376.141 270.196 365.273 269.686C364.498 269.648 363.799 269.56 363.161 269.422C363.173 269.335 363.186 269.261 363.199 269.197C363.323 268.785 363.398 268.336 363.436 267.86V267.785C363.598 265.688 363.486 263.414 363.286 261.378C362.936 257.88 362.324 255.082 362.324 255.082L362.337 255.069L362.475 254.982C364.074 254.657 377.877 251.883 382.1 251.408Z" fill="#17282F"/>
<path d="M385.095 225.22C387.643 232.455 384.673 253.796 379.66 258.738C372.392 265.904 360.046 267.084 353.844 258.246C347.833 249.679 352.196 221.937 357.838 217.399C366.147 210.715 381.329 214.533 385.095 225.22Z" fill="#F25553"/>
<path d="M383.212 243.084C378.215 242.326 378.587 233.103 378.587 233.103C378.587 233.103 370.209 230.423 369.919 223.775C369.919 223.775 360.997 227.771 354.934 224.498C348.869 221.224 351.288 214.175 352.228 212.73C353.167 211.285 356.294 214.691 356.294 214.691C356.294 214.691 357.307 210.649 358.466 210.394C359.624 210.139 360.446 212.797 360.446 212.797C360.446 212.797 369.112 211.25 376.572 212.574C384.032 213.896 386.623 221.997 386.623 221.997C386.623 221.997 390.503 223.441 391.385 226.439C392.268 229.437 386.399 243.568 383.212 243.084Z" fill="#17282F"/>
<path d="M364.559 240.005L364.652 240.147C364.415 241.579 364.382 243.259 365.619 243.911L365.597 243.99C364.038 243.554 364.104 241.323 364.559 240.005Z" fill="#17282F"/>
<path d="M366.046 238.675C368.382 238.809 367.941 243.474 365.776 243.349C363.645 243.226 364.087 238.562 366.046 238.675Z" fill="#17282F"/>
<path d="M356.173 239.449L356.05 239.565C355.959 241.014 355.611 242.658 354.258 243.015L354.263 243.097C355.88 243.024 356.319 240.836 356.173 239.449Z" fill="#17282F"/>
<path d="M355.026 237.818C352.719 237.422 352.096 242.065 354.234 242.432C356.337 242.794 356.959 238.151 355.026 237.818Z" fill="#17282F"/>
<path d="M368.087 236.716C367.468 236.496 366.932 236.189 366.342 235.909C365.674 235.592 365.111 235.409 364.718 234.746C364.507 234.391 364.664 233.805 364.989 233.567C365.748 233.013 366.661 233.2 367.479 233.548C368.366 233.927 368.953 234.446 369.402 235.298C369.836 236.125 368.906 237.007 368.087 236.716Z" fill="#17282F"/>
<path d="M353.446 235.298C354.101 235.254 354.7 235.103 355.344 234.993C356.072 234.868 356.664 234.842 357.222 234.311C357.521 234.027 357.528 233.421 357.278 233.104C356.698 232.365 355.769 232.297 354.888 232.413C353.931 232.538 353.225 232.879 352.563 233.578C351.921 234.256 352.579 235.357 353.446 235.298Z" fill="#17282F"/>
<path d="M364.626 253.54C364.247 253.845 363.858 254.279 363.33 254.273C362.822 254.268 362.254 253.985 361.811 253.763L361.741 253.831C362.064 254.42 362.82 254.843 363.502 254.789C364.166 254.737 364.543 254.202 364.758 253.618L364.626 253.54Z" fill="#17282F"/>
<path d="M363.524 249.157C362.582 250.325 361.319 250.884 360.005 250.998C359.42 251.052 358.813 251.008 358.226 250.891C358.11 250.875 357.995 250.85 357.892 250.816C357.788 250.792 357.694 250.769 357.581 250.733C357.414 250.69 357.336 250.541 357.325 250.38L357.327 250.369L357.356 250.222L357.357 250.211L357.372 250.084C357.46 248.968 357.749 247.288 357.749 247.288C357.32 247.447 355.147 248.16 355.241 247.582C356.04 242.798 356.928 237.477 358.733 232.886C358.784 232.731 359.024 232.793 358.993 232.95C358.408 237.579 357.012 242.073 356.349 246.713C357.038 246.532 358.167 246.181 358.748 246.254C358.901 246.316 358.134 249.494 358.135 249.998L358.138 250.052C359.984 250.49 361.453 250.074 363.403 249.011C363.519 248.94 363.623 249.05 363.524 249.157Z" fill="#17282F"/>
<path d="M358.957 250.577C358.957 250.577 359.866 251.975 361.193 252.541C361.681 252.751 362.215 252.855 362.789 252.739C363.966 252.505 364.06 251.444 363.903 250.52C363.777 249.761 363.469 249.095 363.469 249.095C363.469 249.095 361.68 250.575 358.957 250.577Z" fill="#17282F"/>
<path d="M361.193 252.541C361.681 252.751 362.215 252.855 362.789 252.739C363.966 252.505 364.06 251.444 363.903 250.52C362.653 250.571 361.371 251.34 361.193 252.541Z" fill="#F577B8"/>
<path d="M381.302 242.67C381.302 242.67 385.94 235.711 389.088 237.35C392.236 238.989 388.855 249.002 385.235 250.443C381.616 251.882 380.216 248.558 380.216 248.558L381.302 242.67Z" fill="#F25553"/>
<path d="M388.047 240.274L388.068 240.371C385.532 241.466 384.238 243.869 383.349 246.35C384.09 245.387 385.114 244.845 386.403 245.721L386.337 245.859C385.284 245.658 384.531 245.858 383.842 246.713C383.354 247.319 383.027 248.079 382.684 248.773C382.57 249.005 382.154 248.891 382.235 248.626L382.254 248.566C382.117 245.305 384.551 240.681 388.047 240.274Z" fill="#17282F"/>
<path d="M363.4 267.942L365.937 280.076L383.407 264.479L387.755 269.379C387.755 269.379 370.72 294.052 370.614 292.946L365.47 282.496L358.302 289.889L361.18 271.531L363.4 267.942Z" fill="white"/>
<path d="M361.024 271.703C361.052 271.598 361.235 271.543 361.229 271.671C361.073 275.417 358.681 286.167 358.727 288.941L358.758 288.909C359.057 288.589 365.406 282.401 365.47 282.497C366.579 284.153 370.354 291.761 370.614 292.455C373.028 288.899 384.229 274.283 386.961 270.571C387.039 270.465 387.204 270.55 387.143 270.674C385.121 274.808 370.956 293.998 370.774 293.947C370.649 294.044 365.959 284.672 365.393 282.899C364.322 284.243 357.922 291.219 357.894 290.769C357.711 287.735 360 275.462 361.024 271.703Z" fill="#17282F"/>
</g>
<path d="M156.489 308.142C156.489 324.588 143.157 337.92 126.713 337.92C110.267 337.92 96.9351 324.588 96.9351 308.142C96.9351 291.697 110.267 278.365 126.713 278.365C143.157 278.365 156.489 291.697 156.489 308.142Z" fill="#999B9B"/>
<mask id="mask1_194_7544" style="mask-type:luminance" maskUnits="userSpaceOnUse" x="96" y="271" width="61" height="67">
<path d="M156.495 308.141C156.495 319.228 150.435 328.894 141.443 334.011C137.104 336.494 132.062 337.916 126.705 337.916C120.811 337.916 115.305 336.195 110.681 333.233C102.407 327.936 96.9312 318.674 96.9312 308.141C96.9312 297.233 102.796 287.703 111.549 282.511C112.925 278.068 116.517 273.834 124.506 271.829C140.156 267.924 143.628 279.205 143.957 280.431L143.972 280.477V280.492L143.987 280.536C144.495 281.869 144.96 283.35 145.378 284.951C152.156 290.397 156.495 298.76 156.495 308.141Z" fill="white"/>
</mask>
<g mask="url(#mask1_194_7544)">
<path d="M135.237 327.88L132.596 339.811L114.592 327.447L110.122 334.046C110.122 334.046 121.9 349.988 134.449 349.988C141.037 349.988 142.326 334.879 142.326 334.879L135.237 327.88Z" fill="#FABB1E"/>
<path d="M132.216 341.453C127.374 342.957 118.404 336.021 114.646 330.156C114.391 329.752 114.726 325.303 114.878 319.877C114.958 316.584 114.969 312.915 114.736 309.567C114.685 308.88 117.113 309.98 117.113 309.98L121.518 310.728L136.09 313.215C136.09 313.215 134.511 320.377 134.951 326.212C134.994 326.699 135.073 327.149 135.191 327.575C135.202 327.638 135.226 327.713 135.237 327.801C135.843 330.381 136.895 339.995 132.216 341.453Z" fill="#F57A76"/>
<path d="M135.191 327.654C135.202 327.718 135.226 327.792 135.237 327.879C134.586 328.019 133.873 328.107 133.086 328.144C118.924 328.808 115.913 310.952 115.913 310.952L121.518 310.807L136.089 313.293C136.089 313.293 134.511 320.455 134.95 326.29C134.993 326.778 135.073 327.228 135.191 327.654Z" fill="#17282F"/>
<path d="M112.92 282.91C110.327 290.271 113.349 311.98 118.449 317.009C125.842 324.299 138.402 325.499 144.712 316.508C150.826 307.793 146.388 279.57 140.649 274.953C132.196 268.154 116.749 272.038 112.92 282.91Z" fill="#F57A76"/>
<path d="M133.811 297.951L133.716 298.096C133.959 299.552 133.991 301.261 132.733 301.925L132.756 302.005C134.341 301.562 134.275 299.292 133.811 297.951Z" fill="#17282F"/>
<path d="M132.299 296.599C129.922 296.735 130.372 301.481 132.574 301.354C134.741 301.228 134.293 296.484 132.299 296.599Z" fill="#17282F"/>
<path d="M142.342 297.386L142.467 297.505C142.56 298.978 142.914 300.651 144.29 301.014L144.286 301.097C142.642 301.022 142.194 298.796 142.342 297.386Z" fill="#17282F"/>
<path d="M143.509 295.726C145.857 295.323 146.49 300.046 144.316 300.42C142.177 300.788 141.542 296.064 143.509 295.726Z" fill="#17282F"/>
<path d="M130.221 294.606C130.852 294.382 131.397 294.07 131.997 293.785C132.676 293.462 133.25 293.275 133.65 292.602C133.865 292.24 133.705 291.644 133.373 291.402C132.602 290.839 131.673 291.028 130.841 291.383C129.938 291.769 129.341 292.296 128.885 293.164C128.443 294.005 129.39 294.9 130.221 294.606Z" fill="#17282F"/>
<path d="M145.118 293.163C144.45 293.118 143.841 292.965 143.186 292.852C142.445 292.725 141.843 292.699 141.276 292.159C140.971 291.87 140.964 291.253 141.218 290.931C141.808 290.18 142.753 290.111 143.65 290.228C144.623 290.355 145.342 290.701 146.015 291.413C146.668 292.103 145.999 293.223 145.118 293.163Z" fill="#17282F"/>
<path d="M133.744 311.72C134.129 312.031 134.524 312.472 135.062 312.466C135.577 312.461 136.155 312.173 136.606 311.947L136.678 312.017C136.35 312.616 135.58 313.046 134.887 312.99C134.211 312.938 133.828 312.394 133.608 311.801C133.577 311.718 133.688 311.676 133.744 311.72Z" fill="#17282F"/>
<path d="M134.641 307.81C136.143 309.02 141.152 309.02 141.166 308.854L140.758 305.342C141.191 305.511 143.39 306.259 143.3 305.672C142.544 300.804 141.704 295.393 139.924 290.709C139.873 290.552 139.63 290.612 139.659 290.772C140.201 295.478 141.565 300.057 142.184 304.776C141.487 304.584 140.346 304.215 139.755 304.282C139.598 304.343 140.34 307.579 140.334 308.091C140.334 308.091 137.891 308.305 134.945 307.367C134.366 307.183 134.244 307.491 134.641 307.81Z" fill="#17282F"/>
<path d="M115.557 300.44C117.422 299.972 119.161 293.893 119.227 287.997C119.269 284.2 120.781 279.413 125.01 277.984C127.824 277.032 132.722 279.352 135.521 278.667C138.319 277.984 138.838 276.387 140.497 276.428C142.05 276.466 143.988 280.539 143.988 280.539C143.988 280.539 141.041 267.694 124.512 271.826C107.099 276.179 110.605 291.09 112.277 295.873C113.566 299.564 115.557 300.44 115.557 300.44Z" fill="#17282F"/>
<path d="M116.778 300.662C116.778 300.662 112.06 293.582 108.857 295.25C105.656 296.917 109.095 307.103 112.778 308.569C116.459 310.034 117.883 306.653 117.883 306.653L116.778 300.662Z" fill="#F57A76"/>
<path d="M109.916 298.224L109.895 298.323C112.475 299.436 113.791 301.882 114.695 304.406C113.942 303.426 112.9 302.874 111.589 303.767L111.656 303.907C112.728 303.702 113.493 303.904 114.195 304.775C114.691 305.391 115.023 306.165 115.373 306.87C115.489 307.106 115.912 306.991 115.83 306.72L115.81 306.66C115.949 303.342 113.473 298.638 109.916 298.224Z" fill="#17282F"/>
</g>
<path d="M153.072 157.341C153.072 174.448 139.205 188.316 122.097 188.316C104.991 188.316 91.123 174.448 91.123 157.341C91.123 140.234 104.991 126.367 122.097 126.367C139.205 126.367 153.072 140.234 153.072 157.341Z" fill="#999B9B"/>
<path d="M154.529 180.93H151.892C151.619 177.554 149.48 172.393 150.027 174.997C150.445 176.959 150.429 179.467 150.365 180.93H105.646C105.132 175.849 107.395 167.507 107.395 167.507C104.807 171.702 103.81 177.65 103.441 180.93H99.2164C98.7813 177.891 99.8562 172.715 99.8562 172.715C98.6982 174.757 98.0072 178.583 97.6854 180.93H92.8796C92.7023 175.849 94.4224 169.179 98.4733 163.134C101.721 158.279 97.7019 155.45 97.7823 145.998C97.8627 133.426 106.496 128.604 107.925 127.286C127.442 109.201 145.156 125.984 147.054 137.928C148.885 149.614 145.526 151.157 150.959 161.768C155.059 169.741 154.529 180.93 154.529 180.93Z" fill="#17282F"/>
<path d="M101.93 187.491L102.055 187.582C108.548 192 121.366 199.779 128.216 197.31C133.492 195.409 136.577 189.983 136.933 188.258C134.165 185.783 130.222 183.537 128.466 182.365C118.349 175.645 109.23 179.676 101.93 187.491Z" fill="#33535F"/>
<path d="M111.702 183.659C112.159 185.157 120.081 194.547 127.014 193.756C129.271 193.494 128.394 181.11 128.394 181.11L128.539 180.181L130.548 167.175L114.85 158.522L112.589 157.389C112.589 157.389 112.274 160.984 111.926 165.463C111.909 165.671 111.892 165.879 111.876 166.101C111.85 166.355 111.822 166.593 111.809 166.83C111.748 167.498 111.69 168.182 111.645 168.863C111.609 169.381 111.571 169.885 111.554 170.431C111.522 170.979 111.501 171.51 111.469 172.058C111.27 177.458 111.517 183.022 111.702 183.659Z" fill="#BE5253"/>
<path d="M111.926 165.463C116.279 175.417 124.703 179.03 128.538 180.181L130.547 167.175L114.85 158.523L112.589 157.389C112.589 157.389 112.274 160.984 111.926 165.463Z" fill="#17282F"/>
<path d="M146.626 145.53C150.251 168.34 136.997 173.087 132.077 173.863C127.612 174.568 112.316 176.4 106.354 154.085C100.391 131.771 109.851 122.876 119.98 120.723C130.109 118.571 143.002 122.718 146.626 145.53Z" fill="#BE5253"/>
<path d="M108.219 155.687C113.935 155.008 114.138 137.254 114.138 135.075C114.209 136.447 114.611 143.718 115.188 143.96C115.335 144.017 115.965 143.83 116.959 143.471L116.973 143.468C116.908 142.646 116.9 141.753 116.966 140.856C116.979 140.451 117.19 141.717 117.539 143.265C117.857 143.149 118.199 143.012 118.573 142.883C118.4 141.324 118.336 139.383 118.662 137.323C118.773 136.626 119.212 139.692 120.091 142.331C123.957 140.935 129.551 139.061 134.876 138.441C136.3 138.269 137.535 138.184 138.632 138.146C138.462 136.004 138.026 133.744 138.224 134.222C138.814 135.581 139.2 136.958 139.448 138.126C140.042 138.111 140.594 138.107 141.088 138.114C140.985 135.077 139.147 130.37 139.692 131.068C141.782 133.777 142.803 136.712 143.23 138.273C145.326 138.501 145.93 138.858 145.942 138.318C145.961 137.342 144.079 128.978 136.973 123.321C129.25 117.17 114.818 116.659 107.625 127.72C107.625 127.72 101.351 132.601 100.884 139.664C100.416 146.713 104.917 156.073 108.219 155.687Z" fill="#17282F"/>
<path d="M137.103 158.817C137.103 158.817 136.324 160.472 134.967 161.286C134.467 161.588 133.902 161.78 133.261 161.74C131.947 161.663 131.685 160.523 131.717 159.496C131.741 158.653 131.975 157.882 131.975 157.882C131.975 157.882 134.142 159.224 137.103 158.817Z" fill="white"/>
<path d="M141.867 142.727C141.322 142.711 140.821 142.606 140.284 142.535C139.677 142.455 139.185 142.453 138.705 142.032C138.448 141.805 138.423 141.304 138.619 141.033C139.076 140.402 139.844 140.316 140.578 140.382C141.375 140.454 141.971 140.715 142.542 141.273C143.096 141.814 142.586 142.747 141.867 142.727Z" fill="#17282F"/>
<path d="M127.051 144.616C127.585 144.505 128.06 144.314 128.577 144.151C129.161 143.966 129.645 143.879 130.043 143.38C130.257 143.113 130.195 142.613 129.954 142.381C129.394 141.841 128.623 141.889 127.912 142.082C127.139 142.293 126.598 142.653 126.133 143.302C125.682 143.931 126.347 144.76 127.051 144.616Z" fill="#17282F"/>
<path d="M130.626 150.151L130.521 150.303C130.745 151.859 130.74 153.681 129.383 154.357L129.406 154.443C131.104 154.008 131.088 151.59 130.626 150.151Z" fill="#17282F"/>
<path d="M129.049 148.674C126.513 148.764 126.879 153.827 129.228 153.744C131.538 153.663 131.174 148.6 129.049 148.674Z" fill="#17282F"/>
<path d="M128.073 149.015C127.652 149.333 127.255 149.869 126.726 149.961C126.114 150.067 125.609 149.569 125.17 149.089L125.087 149.153C125.142 150.124 125.587 151.093 126.638 151.162C127.596 151.226 128.216 150.318 128.388 149.325C128.42 149.142 128.243 148.886 128.073 149.015Z" fill="#17282F"/>
<path d="M139.337 148.728L139.467 148.859C139.518 150.431 139.841 152.224 141.295 152.653L141.287 152.742C139.539 152.61 139.134 150.226 139.337 148.728Z" fill="#17282F"/>
<path d="M140.634 146.998C143.145 146.645 143.668 151.695 141.342 152.023C139.052 152.345 138.528 147.296 140.634 146.998Z" fill="#17282F"/>
<path d="M141.72 147.222C142.147 147.448 142.592 147.893 143.072 147.875C143.628 147.854 143.981 147.266 144.28 146.705L144.363 146.753C144.49 147.715 144.275 148.753 143.367 149.034C142.538 149.291 141.831 148.527 141.502 147.59C141.44 147.416 141.549 147.13 141.72 147.222Z" fill="#17282F"/>
<path d="M131.202 162.129C131.588 162.487 131.977 162.984 132.548 163.016C133.098 163.048 133.732 162.784 134.228 162.576L134.299 162.655C133.907 163.269 133.058 163.67 132.325 163.562C131.611 163.456 131.242 162.85 131.052 162.204C131.026 162.113 131.145 162.077 131.202 162.129Z" fill="#17282F"/>
<path d="M137.279 155.914C137.279 155.914 137.799 158.229 137.892 159.333C137.899 159.436 137.637 159.507 137.264 159.56L137.22 159.566C135.296 160.034 133.277 159.526 131.959 158.033C131.873 157.931 132.004 157.806 132.11 157.867C133.655 158.813 135.287 158.953 137.018 158.837C137.07 158.525 135.995 154.905 136.169 154.877C136.769 154.775 137.991 155.086 138.724 155.234C137.781 150.385 136.068 145.725 135.201 140.881C135.174 140.707 135.419 140.634 135.483 140.786C137.625 145.542 138.832 151.099 139.935 156.084C140.078 156.704 137.736 156.065 137.279 155.914Z" fill="#17282F"/>
<path d="M128.082 145.149C127.597 145.146 127.103 145.203 126.612 145.325C123.422 146.114 121.47 149.354 122.258 152.543C123.049 155.732 126.289 157.689 129.477 156.896C132.667 156.104 134.619 152.867 133.83 149.677C133.162 146.98 130.742 145.166 128.082 145.149ZM127.999 157.991C124.93 157.971 122.137 155.879 121.366 152.766C120.454 149.081 122.707 145.344 126.39 144.432C130.073 143.519 133.81 145.772 134.723 149.456C135.634 153.138 133.381 156.876 129.698 157.789C129.13 157.93 128.56 157.995 127.999 157.991Z" fill="#FABB1E"/>
<path d="M143.068 143.365C142.952 143.364 142.836 143.371 142.719 143.384C141.632 143.504 140.666 144.215 139.998 145.386C139.305 146.604 139.02 148.162 139.198 149.77C139.562 153.037 141.722 155.49 144.033 155.231C146.335 154.976 147.914 152.11 147.553 148.845C147.374 147.235 146.756 145.778 145.812 144.741C145.002 143.852 144.039 143.372 143.068 143.365ZM143.685 156.169C141.051 156.151 138.68 153.439 138.285 149.872C138.084 148.071 138.41 146.316 139.2 144.931C140.015 143.497 141.23 142.622 142.618 142.469C144.01 142.311 145.382 142.902 146.492 144.122C147.566 145.302 148.267 146.943 148.467 148.742C148.884 152.513 146.941 155.834 144.135 156.146C143.984 156.161 143.835 156.17 143.685 156.169Z" fill="#FABB1E"/>
<path d="M134.581 150.274L133.916 149.637C134.856 148.652 137.125 147.214 138.992 148.817L138.393 149.515C136.722 148.077 134.668 150.184 134.581 150.274Z" fill="#FABB1E"/>
<path d="M104.307 155.411L103.449 155.081C103.603 154.681 105.009 151.153 107.014 150.595C108.888 150.08 121.271 149.869 121.796 149.86L121.811 150.78C118.262 150.837 108.708 151.079 107.261 151.482C105.937 151.85 104.68 154.443 104.307 155.411Z" fill="#FABB1E"/>
<path d="M110.257 155.261C110.257 155.261 104.717 148.427 101.582 150.453C98.4457 152.478 102.969 162.634 106.901 163.786C110.833 164.94 111.972 161.32 111.972 161.32L110.257 155.261Z" fill="#BE5253"/>
<path d="M102.951 153.331L102.937 153.435C105.701 154.332 107.292 156.722 108.466 159.235C107.597 158.297 106.47 157.831 105.207 158.875L105.289 159.014C106.373 158.7 107.18 158.834 107.986 159.662C108.556 160.249 108.972 161.012 109.401 161.706C109.543 161.937 109.968 161.777 109.857 161.508L109.83 161.448C109.655 158.018 106.652 153.415 102.951 153.331Z" fill="#17282F"/>
<mask id="mask2_194_7544" style="mask-type:luminance" maskUnits="userSpaceOnUse" x="91" y="118" width="64" height="71">
<path d="M154.534 180.927H151.89C151.626 177.555 149.484 172.4 150.025 175.004C150.448 176.961 150.436 179.472 150.37 180.927H142.173C139.741 183.001 136.978 184.707 133.977 185.95C132.245 186.677 130.421 187.245 128.544 187.629C126.468 188.078 124.3 188.316 122.092 188.316C119.515 188.316 117.003 187.998 114.61 187.404C111.503 186.637 108.595 185.408 105.938 183.768C104.55 182.936 103.241 181.984 102.011 180.927H99.2219C99.1031 180.107 99.0903 179.142 99.1433 178.164C98.8654 177.846 98.6013 177.542 98.3371 177.225C98.0456 178.56 97.8344 179.895 97.6891 180.927H92.8768C92.7845 178.084 93.2735 174.74 94.437 171.289C92.3083 167.099 91.1187 162.366 91.1187 157.342C91.1187 148.617 94.7277 140.725 100.544 135.094C103.215 130.361 107.022 128.113 107.921 127.281L107.961 127.241C113.764 118.82 123.904 117.485 131.637 120.353L131.836 120.419C140.15 123.288 146.006 131.339 147.051 137.923C147.117 138.385 147.184 138.835 147.249 139.271C150.912 144.361 153.066 150.6 153.066 157.342C153.066 159.854 152.763 162.286 152.194 164.626C154.943 172.161 154.534 180.927 154.534 180.927Z" fill="white"/>
</mask>
<g mask="url(#mask2_194_7544)">
<path d="M136.939 188.263C136.581 189.982 133.488 195.416 128.214 197.306C121.366 199.778 108.542 192.004 102.052 187.589L101.932 187.497C103.215 186.122 104.55 184.866 105.938 183.768C108.595 185.408 111.504 186.637 114.61 187.404C117.003 187.998 119.515 188.316 122.092 188.316C124.301 188.316 126.469 188.078 128.544 187.629C130.421 187.245 132.245 186.677 133.977 185.95C135.008 186.677 136.039 187.457 136.939 188.263Z" fill="#33535F"/>
<path d="M128.544 187.629C128.478 190.657 128.108 193.631 127.011 193.75C122.529 194.265 117.638 190.524 114.61 187.404C117.003 187.999 119.515 188.317 122.092 188.317C124.301 188.317 126.469 188.078 128.544 187.629Z" fill="#F25553"/>
</g>
</g>
<defs>
<clipPath id="clip0_194_7544">
<rect width="409.147" height="401.067" fill="white"/>
</clipPath>
</defs>
</svg>
