<svg width="20" height="20" viewBox="0 0 20 20" fill="none" xmlns="http://www.w3.org/2000/svg">
<path fill-rule="evenodd" clip-rule="evenodd" d="M9.99991 11.6665L7.49991 11.6665C7.03991 11.6665 6.66658 11.2932 6.66658 10.8332C6.66658 10.3732 7.03991 9.99984 7.49991 9.99984L9.99991 9.99984C10.4599 9.99984 10.8332 10.3732 10.8332 10.8332C10.8332 11.2932 10.4599 11.6665 9.99991 11.6665ZM6.66658 14.1665C6.66658 13.7065 7.03991 13.3332 7.49991 13.3332L12.4999 13.3332C12.9607 13.3332 13.3332 13.7065 13.3332 14.1665C13.3332 14.6265 12.9607 14.9998 12.4999 14.9998L7.49991 14.9998C7.03991 14.9998 6.66658 14.6265 6.66658 14.1665ZM14.5368 16.6665H5.46266C5.20766 16.6665 5.00016 16.4798 5.00016 16.2498L5.00016 3.74984C5.00016 3.51984 5.20766 3.33317 5.46266 3.33317L10.0002 3.33317V5.95817C10.0002 7.26817 11.0143 8.33317 12.2618 8.33317H15.0002V16.2498C15.0002 16.4798 14.7927 16.6665 14.5368 16.6665ZM11.6668 4.14817L13.9518 6.6665H12.2618C11.9335 6.6665 11.6668 6.349 11.6668 5.95817V4.14817ZM16.4502 6.93984L11.9135 1.93984C11.7552 1.76567 11.5318 1.6665 11.296 1.6665L5.46266 1.6665C4.2885 1.6665 3.3335 2.6015 3.3335 3.74984L3.3335 16.2498C3.3335 17.3982 4.2885 18.3332 5.46266 18.3332L14.5368 18.3332C15.711 18.3332 16.6668 17.3982 16.6668 16.2498V7.49984C16.6668 7.29234 16.5893 7.09317 16.4502 6.93984Z" fill="#333333"/>
</svg>
