<svg width="24" height="24" viewBox="0 0 24 24" fill="none" xmlns="http://www.w3.org/2000/svg">
<rect width="24" height="24" rx="5" fill="#15154C"/>
<path d="M11 8.1875H13.5C13.5 7.85598 13.3683 7.53804 13.1339 7.30362C12.8995 7.0692 12.5815 6.9375 12.25 6.9375C11.9185 6.9375 11.6005 7.0692 11.3661 7.30362C11.1317 7.53804 11 7.85598 11 8.1875ZM10.0625 8.1875C10.0625 7.90023 10.1191 7.61578 10.229 7.35038C10.3389 7.08498 10.5001 6.84383 10.7032 6.6407C10.9063 6.43758 11.1475 6.27645 11.4129 6.16651C11.6783 6.05658 11.9627 6 12.25 6C12.5373 6 12.8217 6.05658 13.0871 6.16651C13.3525 6.27645 13.5937 6.43758 13.7968 6.6407C13.9999 6.84383 14.1611 7.08498 14.271 7.35038C14.3809 7.61578 14.4375 7.90023 14.4375 8.1875H18.0312C18.1556 8.1875 18.2748 8.23689 18.3627 8.32479C18.4506 8.4127 18.5 8.53193 18.5 8.65625C18.5 8.78057 18.4506 8.8998 18.3627 8.98771C18.2748 9.07561 18.1556 9.125 18.0312 9.125H17.2063L16.475 16.6944C16.4189 17.2744 16.1488 17.8127 15.7173 18.2043C15.2858 18.5959 14.7239 18.8127 14.1413 18.8125H10.3587C9.77616 18.8126 9.21444 18.5957 8.78309 18.2041C8.35175 17.8125 8.08171 17.2743 8.02563 16.6944L7.29375 9.125H6.46875C6.34443 9.125 6.2252 9.07561 6.13729 8.98771C6.04939 8.8998 6 8.78057 6 8.65625C6 8.53193 6.04939 8.4127 6.13729 8.32479C6.2252 8.23689 6.34443 8.1875 6.46875 8.1875H10.0625ZM11.3125 11.1562C11.3125 11.0319 11.2631 10.9127 11.1752 10.8248C11.0873 10.7369 10.9681 10.6875 10.8438 10.6875C10.7194 10.6875 10.6002 10.7369 10.5123 10.8248C10.4244 10.9127 10.375 11.0319 10.375 11.1562V15.8438C10.375 15.9681 10.4244 16.0873 10.5123 16.1752C10.6002 16.2631 10.7194 16.3125 10.8438 16.3125C10.9681 16.3125 11.0873 16.2631 11.1752 16.1752C11.2631 16.0873 11.3125 15.9681 11.3125 15.8438V11.1562ZM13.6562 10.6875C13.7806 10.6875 13.8998 10.7369 13.9877 10.8248C14.0756 10.9127 14.125 11.0319 14.125 11.1562V15.8438C14.125 15.9681 14.0756 16.0873 13.9877 16.1752C13.8998 16.2631 13.7806 16.3125 13.6562 16.3125C13.5319 16.3125 13.4127 16.2631 13.3248 16.1752C13.2369 16.0873 13.1875 15.9681 13.1875 15.8438V11.1562C13.1875 11.0319 13.2369 10.9127 13.3248 10.8248C13.4127 10.7369 13.5319 10.6875 13.6562 10.6875ZM8.95875 16.6044C8.99246 16.9523 9.15453 17.2752 9.41336 17.5101C9.67218 17.745 10.0092 17.8751 10.3587 17.875H14.1413C14.4908 17.8751 14.8278 17.745 15.0866 17.5101C15.3455 17.2752 15.5075 16.9523 15.5413 16.6044L16.265 9.125H8.235L8.95875 16.6044Z" fill="white"/>
</svg>
