<svg width="17" height="17" viewBox="0 0 17 17" fill="none" xmlns="http://www.w3.org/2000/svg">
<path d="M7.01457 2H5.678C2.33657 2 1 3.37084 1 6.79795V10.9105C1 14.3376 2.33657 15.7084 5.678 15.7084H9.68772C13.0291 15.7084 14.3657 14.3376 14.3657 10.9105V9.53964" stroke="white" stroke-linecap="round" stroke-linejoin="round"/>
<path d="M11.3826 1.87133L6.11652 7.27245C5.91604 7.47807 5.71555 7.88247 5.67545 8.1772L5.38809 10.2403C5.28117 10.9874 5.79575 11.5084 6.52418 11.4055L8.53572 11.1108C8.8164 11.0697 9.21069 10.8641 9.41785 10.6584L14.6839 5.25731C15.5928 4.32514 16.0205 3.24217 14.6839 1.87133C13.3474 0.500485 12.2915 0.939155 11.3826 1.87133Z" stroke="white" stroke-miterlimit="10" stroke-linecap="round" stroke-linejoin="round"/>
<path d="M10.6274 2.64648C11.0752 4.28464 12.3249 5.56638 13.9288 6.03247" stroke="white" stroke-miterlimit="10" stroke-linecap="round" stroke-linejoin="round"/>
</svg>
