<svg width="20" height="21" viewBox="0 0 20 20" fill="none" xmlns="http://www.w3.org/2000/svg">
<path d="M16.6987 14.8103C18.825 12.9128 20 10.7628 20 10.7628C20 10.7628 16.25 3.88782 9.99995 3.88782C8.79944 3.89195 7.61252 4.1421 6.51245 4.62282L7.47495 5.58657C8.28425 5.29176 9.13864 5.13992 9.99995 5.13782C12.65 5.13782 14.8487 6.59782 16.46 8.20907C17.2354 8.98868 17.9306 9.84423 18.535 10.7628C18.4625 10.8716 18.3825 10.9916 18.2912 11.1228C17.8725 11.7228 17.2537 12.5228 16.46 13.3166C16.2537 13.5228 16.0387 13.7266 15.8137 13.9241L16.6987 14.8103Z" fill="#E8E8E8"/>
<path d="M14.1212 12.2328C14.4001 11.4526 14.4518 10.6093 14.2702 9.80086C14.0885 8.99245 13.6811 8.25224 13.0952 7.66636C12.5093 7.08047 11.7691 6.67301 10.9607 6.49137C10.1523 6.30973 9.3089 6.36139 8.5287 6.64033L9.55745 7.66908C10.0378 7.60032 10.5276 7.64439 10.988 7.79779C11.4484 7.95118 11.8668 8.2097 12.2099 8.55285C12.5531 8.89599 12.8116 9.31434 12.965 9.77474C13.1184 10.2351 13.1625 10.7249 13.0937 11.2053L14.1212 12.2328ZM10.4425 13.8566L11.47 14.8841C10.6898 15.163 9.84639 15.2147 9.03798 15.033C8.22957 14.8514 7.48936 14.4439 6.90348 13.8581C6.3176 13.2722 5.91013 12.532 5.72849 11.7236C5.54685 10.9151 5.59851 10.0718 5.87745 9.29158L6.9062 10.3203C6.83745 10.8007 6.88151 11.2905 7.03491 11.7509C7.18831 12.2113 7.44682 12.6297 7.78997 12.9728C8.13312 13.316 8.55147 13.5745 9.01187 13.7279C9.47227 13.8813 9.96207 13.9253 10.4425 13.8566Z" fill="#E8E8E8"/>
<path d="M4.1875 7.60031C3.9625 7.80031 3.74625 8.00281 3.54 8.20906C2.76456 8.98868 2.0694 9.84422 1.465 10.7628L1.70875 11.1228C2.1275 11.7228 2.74625 12.5228 3.54 13.3166C5.15125 14.9278 7.35125 16.3878 10 16.3878C10.895 16.3878 11.7375 16.2216 12.525 15.9378L13.4875 16.9028C12.3874 17.3835 11.2005 17.6336 10 17.6378C3.75 17.6378 0 10.7628 0 10.7628C0 10.7628 1.17375 8.61156 3.30125 6.71531L4.18625 7.60156L4.1875 7.60031ZM17.0575 18.7053L2.0575 3.70531L2.9425 2.82031L17.9425 17.8203L17.0575 18.7053Z" fill="#E8E8E8"/>
</svg>
