<svg width="13" height="13" viewBox="0 0 13 13" fill="none" xmlns="http://www.w3.org/2000/svg">
<path d="M5.95825 3.79165V4.87498H7.04159V3.79165H5.95825ZM7.58325 9.20831V8.12498H7.04159V5.95831H5.41659V7.04165H5.95825V8.12498H5.41659V9.20831H7.58325ZM11.9166 6.49998C11.9166 9.47915 9.47909 11.9166 6.49992 11.9166C3.52075 11.9166 1.08325 9.47915 1.08325 6.49998C1.08325 3.52081 3.52075 1.08331 6.49992 1.08331C9.47909 1.08331 11.9166 3.52081 11.9166 6.49998ZM10.8333 6.49998C10.8333 4.10581 8.89409 2.16665 6.49992 2.16665C4.10575 2.16665 2.16659 4.10581 2.16659 6.49998C2.16659 8.89415 4.10575 10.8333 6.49992 10.8333C8.89409 10.8333 10.8333 8.89415 10.8333 6.49998Z" fill="#D2D2D2"/>
</svg>
