<svg width="20" height="22" viewBox="0 0 20 22" fill="none" xmlns="http://www.w3.org/2000/svg">
<path d="M13.6802 3.86C15.7005 6.06 15.7005 9.11 13.6802 11.13L12 9.44C12.8401 8.26 12.8401 6.73 12 5.55L13.6802 3.86ZM16.9907 0.5C20.9212 4.55 20.8912 10.61 16.9907 14.5L15.3605 12.87C18.1309 9.69 18.1309 5.15 15.3605 2.13L16.9907 0.5Z" fill="#333333"/>
<path fill-rule="evenodd" clip-rule="evenodd" d="M9 7.5C9 6.397 8.103 5.5 7 5.5C5.897 5.5 5 6.397 5 7.5C5 8.603 5.897 9.5 7 9.5C8.103 9.5 9 8.603 9 7.5ZM11 7.5C11 9.706 9.206 11.5 7 11.5C4.794 11.5 3 9.706 3 7.5C3 5.294 4.794 3.5 7 3.5C9.206 3.5 11 5.294 11 7.5ZM0 20.5C0 16.64 3.141 13.5 7 13.5C10.859 13.5 14 16.64 14 20.5C14 21.052 13.553 21.5 13 21.5C12.447 21.5 12 21.052 12 20.5C12 17.743 9.757 15.5 7 15.5C4.243 15.5 2 17.743 2 20.5C2 21.052 1.553 21.5 1 21.5C0.447 21.5 0 21.052 0 20.5Z" fill="#333333"/>
</svg>
