<svg width="13" height="13" viewBox="0 0 13 13" fill="none" xmlns="http://www.w3.org/2000/svg">
<g clip-path="url(#clip0_1084_14012)">
<path d="M12.9086 2.09073C12.9519 2.13407 12.9815 2.18915 12.9937 2.24916C13.0059 2.30916 13.0002 2.37143 12.9774 2.42823L9.34049 11.5201C9.30844 11.6002 9.25492 11.6699 9.18582 11.7215C9.11672 11.7731 9.03473 11.8046 8.94886 11.8126C8.86298 11.8206 8.77657 11.8048 8.69911 11.7669C8.62166 11.7289 8.55617 11.6704 8.50986 11.5976L6.52362 8.47573L3.40174 6.48948C3.32881 6.44322 3.27009 6.37771 3.23203 6.30019C3.19398 6.22266 3.17809 6.13613 3.18611 6.05014C3.19412 5.96415 3.22574 5.88205 3.27747 5.81289C3.32919 5.74374 3.39902 5.69022 3.47924 5.65823L12.5711 2.02261C12.6279 1.99974 12.6902 1.99407 12.7502 2.00629C12.8102 2.01851 12.8653 2.04809 12.9086 2.09136V2.09073ZM7.14737 8.29323L8.87299 11.0045L11.8311 3.60948L7.14737 8.29323ZM11.3892 3.16761L3.99424 6.12573L6.70612 7.85073L11.3892 3.16761Z" fill="white"/>
</g>
<defs>
<clipPath id="clip0_1084_14012">
<rect width="10" height="10" fill="white" transform="translate(3 2)"/>
</clipPath>
</defs>
</svg>
