<svg width="30" height="30" viewBox="0 0 30 30" fill="none" xmlns="http://www.w3.org/2000/svg">
<path fill-rule="evenodd" clip-rule="evenodd" d="M25 22.5C25 23.1887 24.4387 23.75 23.75 23.75H21.25L21.25 11.25H23.75C24.4387 11.25 25 11.8112 25 12.5L25 22.5ZM5 22.5L5 12.5C5 11.8112 5.56125 11.25 6.25 11.25H8.75L8.75 23.75H6.25C5.56125 23.75 5 23.1887 5 22.5ZM12.5 6.875C12.5 6.53 12.78 6.25 13.125 6.25H16.875C17.22 6.25 17.5 6.53 17.5 6.875V8.75L12.5 8.75V6.875ZM11.25 23.75L18.75 23.75L18.75 11.25L11.25 11.25L11.25 23.75ZM23.75 8.75H20V6.875C20 5.1525 18.5975 3.75 16.875 3.75L13.125 3.75C11.4025 3.75 10 5.1525 10 6.875V8.75H6.25C4.1825 8.75 2.5 10.4325 2.5 12.5L2.5 22.5C2.5 24.5675 4.1825 26.25 6.25 26.25L23.75 26.25C25.8175 26.25 27.5 24.5675 27.5 22.5L27.5 12.5C27.5 10.4325 25.8175 8.75 23.75 8.75Z" fill="white"/>
</svg>