<svg width="20" height="18" viewBox="0 0 20 18" fill="none" xmlns="http://www.w3.org/2000/svg">
<path fill-rule="evenodd" clip-rule="evenodd" d="M16 6.99998C16 6.44898 15.552 5.99998 15 5.99998C14.448 5.99998 14 6.44898 14 6.99998C14 7.55098 14.448 7.99998 15 7.99998C15.552 7.99998 16 7.55098 16 6.99998ZM18 7.00001C18 8.65401 16.654 10 15 10C13.346 10 12 8.65401 12 7.00001C12 5.34601 13.346 4.00001 15 4.00001C16.654 4.00001 18 5.34601 18 7.00001ZM9.00001 3.99997C9.00001 2.89697 8.10301 1.99997 7.00001 1.99997C5.89701 1.99997 5.00001 2.89697 5.00001 3.99997C5.00001 5.10297 5.89701 5.99997 7.00001 5.99997C8.10301 5.99997 9.00001 5.10297 9.00001 3.99997ZM11 4C11 6.206 9.20602 8 7.00002 8C4.79402 8 3.00002 6.206 3.00002 4C3.00002 1.794 4.79402 0 7.00002 0C9.20602 0 11 1.794 11 4ZM11.94 12.046C12.809 11.374 13.879 11 15 11C17.757 11 20 13.243 20 16C20 16.552 19.553 17 19 17C18.447 17 18 16.552 18 16C18 14.346 16.654 13 15 13C14.317 13 13.668 13.234 13.144 13.649C13.688 14.645 14 15.787 14 17C14 17.552 13.553 18 13 18C12.447 18 12 17.552 12 17C12 14.243 9.757 12 7 12C4.243 12 2 14.243 2 17C2 17.552 1.553 18 1 18C0.447 18 0 17.552 0 17C0 13.14 3.141 9.99999 7 9.99999C8.927 9.99999 10.673 10.783 11.94 12.046Z" fill="#15154C"/>
</svg>
