<svg width="22" height="14" viewBox="0 0 22 14" fill="none" xmlns="http://www.w3.org/2000/svg">
<path d="M11 13C16.523 13 21 7 21 7C21 7 16.523 1 11 1C5.477 1 1 7 1 7C1 7 5.477 13 11 13Z" stroke="#15154C" stroke-linejoin="round"/>
<path d="M11 9.5C11.663 9.5 12.2989 9.23661 12.7678 8.76777C13.2366 8.29893 13.5 7.66304 13.5 7C13.5 6.33696 13.2366 5.70107 12.7678 5.23223C12.2989 4.76339 11.663 4.5 11 4.5C10.337 4.5 9.70107 4.76339 9.23223 5.23223C8.76339 5.70107 8.5 6.33696 8.5 7C8.5 7.66304 8.76339 8.29893 9.23223 8.76777C9.70107 9.23661 10.337 9.5 11 9.5Z" stroke="#15154C" stroke-linejoin="round"/>
</svg>
