<svg width="25" height="25" viewBox="0 0 25 25" fill="none" xmlns="http://www.w3.org/2000/svg">
<path d="M23.3327 20.8984L13.1764 3.32031C13.025 3.05908 12.7638 2.92969 12.5001 2.92969C12.2365 2.92969 11.9728 3.05908 11.8239 3.32031L1.66761 20.8984C1.36732 21.4209 1.74329 22.0703 2.34388 22.0703H22.6564C23.257 22.0703 23.6329 21.4209 23.3327 20.8984ZM11.7189 10.1562C11.7189 10.0488 11.8068 9.96094 11.9142 9.96094H13.0861C13.1935 9.96094 13.2814 10.0488 13.2814 10.1562V14.6484C13.2814 14.7559 13.1935 14.8438 13.0861 14.8438H11.9142C11.8068 14.8438 11.7189 14.7559 11.7189 14.6484V10.1562ZM12.5001 18.75C12.1935 18.7437 11.9015 18.6175 11.6868 18.3984C11.4722 18.1793 11.3519 17.8848 11.3519 17.5781C11.3519 17.2714 11.4722 16.9769 11.6868 16.7578C11.9015 16.5387 12.1935 16.4125 12.5001 16.4062C12.8068 16.4125 13.0988 16.5387 13.3134 16.7578C13.5281 16.9769 13.6483 17.2714 13.6483 17.5781C13.6483 17.8848 13.5281 18.1793 13.3134 18.3984C13.0988 18.6175 12.8068 18.7437 12.5001 18.75Z" fill="#EAB054"/>
</svg>
