<svg width="12" height="12" viewBox="0 0 12 12" fill="none" xmlns="http://www.w3.org/2000/svg">
<path d="M5.99979 3.42836V8.61922M8.57122 5.99979H3.42836M11.1426 9.42836V2.57122C11.1426 2.11656 10.962 1.68053 10.6405 1.35904C10.3191 1.03755 9.88302 0.856934 9.42836 0.856934H2.57122C2.11656 0.856934 1.68053 1.03755 1.35904 1.35904C1.03755 1.68053 0.856934 2.11656 0.856934 2.57122V9.42836C0.856934 9.88302 1.03755 10.3191 1.35904 10.6405C1.68053 10.962 2.11656 11.1426 2.57122 11.1426H9.42836C9.88302 11.1426 10.3191 10.962 10.6405 10.6405C10.962 10.3191 11.1426 9.88302 11.1426 9.42836Z" stroke="white" stroke-linecap="round" stroke-linejoin="round"/>
</svg>
