<svg width="38" height="40" viewBox="0 0 38 40" fill="none" xmlns="http://www.w3.org/2000/svg">
<rect width="38" height="40" rx="4" fill="#15154C"/>
<path d="M17.3405 14.2115H21.0107C21.0107 13.7248 20.8174 13.258 20.4732 12.9138C20.1291 12.5697 19.6623 12.3763 19.1756 12.3763C18.6889 12.3763 18.2221 12.5697 17.878 12.9138C17.5338 13.258 17.3405 13.7248 17.3405 14.2115ZM15.9641 14.2115C15.9641 13.7897 16.0472 13.3721 16.2086 12.9825C16.37 12.5929 16.6065 12.2388 16.9048 11.9406C17.203 11.6424 17.557 11.4058 17.9466 11.2445C18.3363 11.0831 18.7539 11 19.1756 11C19.5973 11 20.0149 11.0831 20.4046 11.2445C20.7942 11.4058 21.1482 11.6424 21.4465 11.9406C21.7447 12.2388 21.9812 12.5929 22.1426 12.9825C22.304 13.3721 22.3871 13.7897 22.3871 14.2115H27.663C27.8456 14.2115 28.0206 14.284 28.1497 14.413C28.2787 14.5421 28.3512 14.7171 28.3512 14.8996C28.3512 15.0821 28.2787 15.2572 28.1497 15.3862C28.0206 15.5153 27.8456 15.5878 27.663 15.5878H26.4519L25.3783 26.7004C25.296 27.5519 24.8994 28.3421 24.2659 28.9171C23.6325 29.492 22.8076 29.8103 21.9521 29.81H16.3991C15.5438 29.8101 14.7191 29.4916 14.0859 28.9167C13.4526 28.3418 13.0562 27.5517 12.9738 26.7004L11.8994 15.5878H10.6882C10.5057 15.5878 10.3306 15.5153 10.2016 15.3862C10.0725 15.2572 10 15.0821 10 14.8996C10 14.7171 10.0725 14.5421 10.2016 14.413C10.3306 14.284 10.5057 14.2115 10.6882 14.2115H15.9641ZM17.7993 18.5699C17.7993 18.3874 17.7268 18.2123 17.5977 18.0833C17.4686 17.9542 17.2936 17.8817 17.1111 17.8817C16.9286 17.8817 16.7535 17.9542 16.6245 18.0833C16.4954 18.2123 16.4229 18.3874 16.4229 18.5699V25.4516C16.4229 25.6341 16.4954 25.8091 16.6245 25.9382C16.7535 26.0673 16.9286 26.1398 17.1111 26.1398C17.2936 26.1398 17.4686 26.0673 17.5977 25.9382C17.7268 25.8091 17.7993 25.6341 17.7993 25.4516V18.5699ZM21.2401 17.8817C21.4226 17.8817 21.5977 17.9542 21.7267 18.0833C21.8558 18.2123 21.9283 18.3874 21.9283 18.5699V25.4516C21.9283 25.6341 21.8558 25.8091 21.7267 25.9382C21.5977 26.0673 21.4226 26.1398 21.2401 26.1398C21.0576 26.1398 20.8826 26.0673 20.7535 25.9382C20.6245 25.8091 20.552 25.6341 20.552 25.4516V18.5699C20.552 18.3874 20.6245 18.2123 20.7535 18.0833C20.8826 17.9542 21.0576 17.8817 21.2401 17.8817ZM14.3437 26.5683C14.3932 27.079 14.6312 27.553 15.0111 27.8979C15.3911 28.2428 15.8859 28.4338 16.3991 28.4337H21.9521C22.4653 28.4338 22.9601 28.2428 23.3401 27.8979C23.7201 27.553 23.958 27.079 24.0075 26.5683L25.07 15.5878H13.2812L14.3437 26.5683Z" fill="white"/>
</svg>
