<svg width="20" height="20" viewBox="0 0 20 20" fill="none" xmlns="http://www.w3.org/2000/svg">
<path fill-rule="evenodd" clip-rule="evenodd" d="M5.83333 13.3327C5.83333 12.8743 6.20833 12.4993 6.66667 12.4993C7.125 12.4993 7.5 12.8743 7.5 13.3327C7.5 13.791 7.125 14.166 6.66667 14.166C6.20833 14.166 5.83333 13.791 5.83333 13.3327ZM10 12.4993H13.3333C13.7917 12.4993 14.1667 12.8743 14.1667 13.3327C14.1667 13.791 13.7917 14.166 13.3333 14.166H10C9.54167 14.166 9.16667 13.791 9.16667 13.3327C9.16667 12.8743 9.54167 12.4993 10 12.4993ZM15 16.666H5C4.54083 16.666 4.16667 16.2918 4.16667 15.8327V10.8327H15.8333V15.8327C15.8333 16.2918 15.4592 16.666 15 16.666ZM5 4.99935H5.83333V5.83268C5.83333 6.29102 6.20833 6.66602 6.66667 6.66602C7.125 6.66602 7.5 6.29102 7.5 5.83268V4.99935H12.5V5.83268C12.5 6.29102 12.875 6.66602 13.3333 6.66602C13.7917 6.66602 14.1667 6.29102 14.1667 5.83268V4.99935H15C15.4592 4.99935 15.8333 5.37352 15.8333 5.83268V9.16602H4.16667V5.83268C4.16667 5.37352 4.54083 4.99935 5 4.99935ZM15 3.33268H14.1667V2.49935C14.1667 2.04102 13.7917 1.66602 13.3333 1.66602C12.875 1.66602 12.5 2.04102 12.5 2.49935V3.33268H7.5V2.49935C7.5 2.04102 7.125 1.66602 6.66667 1.66602C6.20833 1.66602 5.83333 2.04102 5.83333 2.49935V3.33268H5C3.62167 3.33268 2.5 4.45435 2.5 5.83268V15.8327C2.5 17.211 3.62167 18.3327 5 18.3327H15C16.3783 18.3327 17.5 17.211 17.5 15.8327V5.83268C17.5 4.45435 16.3783 3.33268 15 3.33268Z" fill="#D2D2D2"/>
</svg>
