<svg width="24" height="24" viewBox="0 0 24 24" fill="none" xmlns="http://www.w3.org/2000/svg">
<path d="M16.25 10.5L13.75 13L14.8 14.05L15.45 13.4C15.35 14.2833 14.975 15.021 14.325 15.613C13.675 16.2043 12.9 16.5 12 16.5C11.7667 16.5 11.55 16.4793 11.35 16.438C11.15 16.396 10.95 16.3333 10.75 16.25L9.65 17.35C10 17.55 10.371 17.7083 10.763 17.825C11.1543 17.9417 11.5667 18 12 18C13.3333 18 14.4707 17.55 15.412 16.65C16.354 15.75 16.8667 14.65 16.95 13.35L17.7 14.05L18.75 13L16.25 10.5ZM7.75 15.5L10.25 13L9.2 11.95L8.55 12.6C8.65 11.7167 9.025 10.979 9.675 10.387C10.325 9.79567 11.1 9.5 12 9.5C12.2333 9.5 12.45 9.52067 12.65 9.562C12.85 9.604 13.05 9.66667 13.25 9.75L14.35 8.65C14 8.45 13.6293 8.29167 13.238 8.175C12.846 8.05833 12.4333 8 12 8C10.6667 8 9.52933 8.45 8.588 9.35C7.646 10.25 7.13333 11.35 7.05 12.65L6.3 11.95L5.25 13L7.75 15.5ZM4 21C3.45 21 2.97933 20.8043 2.588 20.413C2.196 20.021 2 19.55 2 19V7C2 6.45 2.196 5.97933 2.588 5.588C2.97933 5.196 3.45 5 4 5H7.15L9 3H15L16.85 5H20C20.55 5 21.021 5.196 21.413 5.588C21.8043 5.97933 22 6.45 22 7V19C22 19.55 21.8043 20.021 21.413 20.413C21.021 20.8043 20.55 21 20 21H4Z" fill="white"/>
</svg>
