<svg width="20" height="14" viewBox="0 0 20 14" fill="none" xmlns="http://www.w3.org/2000/svg">
<g clip-path="url(#clip0_1746_15566)">
<path d="M0 13.1681L3.54889 7.25331C3.57409 7.20763 3.6119 7.16825 3.65758 7.13989C3.8088 7.04696 4.00569 7.09264 4.09863 7.24228C4.42312 7.76209 4.74288 8.21732 5.05792 8.63632L2.69042 12.5837C2.57228 12.7491 2.50297 12.9507 2.50297 13.1681H0ZM9.10457 1.63304C11.22 0.169698 11.3791 3.06489 13.4552 1.25815V4.20847C11.4752 5.99001 11.0468 3.11057 9.10457 4.57392V1.63304ZM8.58318 0.828125C8.80686 0.828125 8.98643 1.00927 8.98643 1.23137C8.98643 1.37944 8.90609 1.50861 8.78796 1.57949H8.80686V5.03702C8.88877 5.0701 8.96123 5.12838 9.01163 5.20871C11.0531 8.46777 12.9181 9.83818 14.8634 13.1681H3.50794L8.27445 5.22289C8.2965 5.18351 8.32485 5.14728 8.35951 5.11735V1.57949H8.37841C8.25869 1.50861 8.17993 1.37944 8.17993 1.23137C8.17993 1.00927 8.36108 0.828125 8.58318 0.828125ZM13.293 9.18448L14.4523 7.25331C14.4775 7.20763 14.5153 7.16825 14.561 7.13989C14.7122 7.04696 14.9091 7.09264 15.0021 7.24228C16.5205 9.66806 17.9083 10.6888 19.3559 13.1681H15.8684C15.8684 12.9964 15.8243 12.8216 15.7314 12.6609C14.906 11.248 14.1011 10.1816 13.293 9.18448Z" fill="#15154C"/>
</g>
<defs>
<clipPath id="clip0_1746_15566">
<rect width="19.3559" height="12.34" fill="white" transform="translate(0 0.828125)"/>
</clipPath>
</defs>
</svg>
