<svg width="33" height="33" viewBox="0 0 33 33" fill="none" xmlns="http://www.w3.org/2000/svg">
<path d="M18.0469 10.3119V15.6242L22.4517 18.2667C22.6298 18.3692 22.7857 18.5061 22.9103 18.6695C23.0349 18.8329 23.1257 19.0195 23.1774 19.2184C23.2291 19.4173 23.2407 19.6245 23.2114 19.8279C23.1821 20.0313 23.1126 20.2268 23.0069 20.403C22.9013 20.5793 22.7615 20.7327 22.5959 20.8543C22.4303 20.976 22.2421 21.0634 22.0423 21.1115C21.8425 21.1596 21.6352 21.1674 21.4323 21.1344C21.2295 21.1015 21.0353 21.0285 20.861 20.9196L15.7047 17.8259C15.4756 17.6885 15.2859 17.4941 15.1542 17.2617C15.0225 17.0292 14.9532 16.7666 14.9532 16.4994V10.3119C14.9532 9.90167 15.1162 9.50821 15.4063 9.21812C15.6964 8.92802 16.0898 8.76505 16.5001 8.76505C16.9103 8.76505 17.3038 8.92802 17.5939 9.21812C17.884 9.50821 18.0469 9.90167 18.0469 10.3119ZM28.8751 6.70254C28.4648 6.70254 28.0714 6.86552 27.7813 7.15561C27.4912 7.44571 27.3282 7.83916 27.3282 8.24942V9.19946C26.7855 8.59747 26.2222 7.99934 25.615 7.38446C23.8234 5.59301 21.5436 4.36926 19.0604 3.86612C16.5772 3.36297 14.0009 3.60274 11.6532 4.55547C9.30551 5.5082 7.29065 7.13163 5.86036 9.22293C4.43007 11.3142 3.64777 13.7806 3.61121 16.314C3.57465 18.8474 4.28545 21.3353 5.6548 23.467C7.02415 25.5987 8.99133 27.2796 11.3105 28.2997C13.6297 29.3198 16.1981 29.6338 18.6948 29.2025C21.1914 28.7712 23.5056 27.6138 25.3482 25.8748C25.6467 25.5931 25.821 25.2043 25.8328 24.7941C25.8447 24.3839 25.6931 23.9857 25.4114 23.6872C25.1296 23.3888 24.7409 23.2145 24.3307 23.2026C23.9204 23.1908 23.5223 23.3424 23.2238 23.6241C21.8237 24.9454 20.0653 25.825 18.1682 26.1529C16.2711 26.4807 14.3195 26.2424 12.5571 25.4676C10.7946 24.6928 9.29956 23.416 8.25857 21.7965C7.21758 20.177 6.67681 18.2867 6.70381 16.3617C6.73082 14.4367 7.3244 12.5623 8.41042 10.9726C9.49643 9.38298 11.0267 8.14855 12.8102 7.42352C14.5937 6.69848 16.5512 6.51498 18.4383 6.89594C20.3255 7.2769 22.0585 8.20543 23.421 9.56555C24.1842 10.3377 24.879 11.0854 25.5532 11.8588H23.7188C23.3086 11.8588 22.9151 12.0218 22.625 12.3119C22.3349 12.602 22.1719 12.9954 22.1719 13.4057C22.1719 13.8159 22.3349 14.2094 22.625 14.4995C22.9151 14.7896 23.3086 14.9526 23.7188 14.9526H28.8751C29.2853 14.9526 29.6788 14.7896 29.9689 14.4995C30.259 14.2094 30.4219 13.8159 30.4219 13.4057V8.24942C30.4219 7.83916 30.259 7.44571 29.9689 7.15561C29.6788 6.86552 29.2853 6.70254 28.8751 6.70254Z" fill="white"/>
</svg>
