<svg width="15" height="15" viewBox="0 0 15 15" fill="none" xmlns="http://www.w3.org/2000/svg">
<path d="M5.77951 2.4579H8.66927C8.66927 2.0854 8.51704 1.72815 8.24607 1.46476C7.9751 1.20136 7.60759 1.05338 7.22439 1.05338C6.84118 1.05338 6.47367 1.20136 6.20271 1.46476C5.93174 1.72815 5.77951 2.0854 5.77951 2.4579ZM4.69585 2.4579C4.69585 2.13512 4.76125 1.81551 4.88833 1.5173C5.0154 1.21909 5.20165 0.948138 5.43644 0.719901C5.67124 0.491665 5.94998 0.310617 6.25676 0.187096C6.56354 0.0635754 6.89234 0 7.22439 0C7.55644 0 7.88524 0.0635754 8.19202 0.187096C8.49879 0.310617 8.77754 0.491665 9.01233 0.719901C9.24713 0.948138 9.43338 1.21909 9.56045 1.5173C9.68752 1.81551 9.75292 2.13512 9.75292 2.4579H13.9069C14.0506 2.4579 14.1885 2.51339 14.2901 2.61216C14.3917 2.71094 14.4488 2.8449 14.4488 2.98459C14.4488 3.12428 14.3917 3.25824 14.2901 3.35702C14.1885 3.45579 14.0506 3.51128 13.9069 3.51128H12.9533L12.1081 12.0163C12.0432 12.668 11.731 13.2728 11.2322 13.7128C10.7335 14.1529 10.084 14.3965 9.41049 14.3963H5.03829C4.36488 14.3963 3.71558 14.1526 3.21698 13.7126C2.71839 13.2726 2.40625 12.6679 2.34142 12.0163L1.49545 3.51128H0.541829C0.398127 3.51128 0.260311 3.45579 0.158698 3.35702C0.0570853 3.25824 0 3.12428 0 2.98459C0 2.8449 0.0570853 2.71094 0.158698 2.61216C0.260311 2.51339 0.398127 2.4579 0.541829 2.4579H4.69585ZM6.14073 5.79361C6.14073 5.65393 6.08364 5.51996 5.98203 5.42119C5.88042 5.32241 5.7426 5.26692 5.5989 5.26692C5.4552 5.26692 5.31738 5.32241 5.21577 5.42119C5.11416 5.51996 5.05707 5.65393 5.05707 5.79361V11.0605C5.05707 11.2002 5.11416 11.3342 5.21577 11.433C5.31738 11.5317 5.4552 11.5872 5.5989 11.5872C5.7426 11.5872 5.88042 11.5317 5.98203 11.433C6.08364 11.3342 6.14073 11.2002 6.14073 11.0605V5.79361ZM8.84988 5.26692C8.99358 5.26692 9.13139 5.32241 9.23301 5.42119C9.33462 5.51996 9.39171 5.65393 9.39171 5.79361V11.0605C9.39171 11.2002 9.33462 11.3342 9.23301 11.433C9.13139 11.5317 8.99358 11.5872 8.84988 11.5872C8.70617 11.5872 8.56836 11.5317 8.46675 11.433C8.36513 11.3342 8.30805 11.2002 8.30805 11.0605V5.79361C8.30805 5.65393 8.36513 5.51996 8.46675 5.42119C8.56836 5.32241 8.70617 5.26692 8.84988 5.26692ZM3.42003 11.9152C3.45899 12.3061 3.64633 12.6689 3.9455 12.9328C4.24468 13.1968 4.63426 13.343 5.03829 13.3429H9.41049C9.81452 13.343 10.2041 13.1968 10.5033 12.9328C10.8025 12.6689 10.9898 12.3061 11.0288 11.9152L11.8653 3.51128H2.58344L3.42003 11.9152Z" fill="#15154C"/>
</svg>
