<svg width="14" height="14" viewBox="0 0 14 14" fill="none" xmlns="http://www.w3.org/2000/svg">
<path d="M5.38927 2.35781H8.0839C8.0839 2.00047 7.94195 1.65778 7.68928 1.40511C7.43661 1.15244 7.09392 1.01049 6.73658 1.01049C6.37925 1.01049 6.03656 1.15244 5.78389 1.40511C5.53122 1.65778 5.38927 2.00047 5.38927 2.35781ZM4.37878 2.35781C4.37878 2.04817 4.43977 1.74157 4.55826 1.45551C4.67675 1.16945 4.85042 0.909528 5.06937 0.690585C5.28831 0.471643 5.54823 0.297968 5.83429 0.179477C6.12035 0.0609864 6.42695 0 6.73658 0C7.04622 0 7.35282 0.0609864 7.63888 0.179477C7.92494 0.297968 8.18486 0.471643 8.4038 0.690585C8.62275 0.909528 8.79642 1.16945 8.91491 1.45551C9.0334 1.74157 9.09439 2.04817 9.09439 2.35781H12.9679C13.1019 2.35781 13.2304 2.41104 13.3252 2.50579C13.4199 2.60054 13.4732 2.72905 13.4732 2.86305C13.4732 2.99705 13.4199 3.12556 13.3252 3.22031C13.2304 3.31506 13.1019 3.36829 12.9679 3.36829H12.0787L11.2905 11.527C11.2301 12.1521 10.9389 12.7323 10.4738 13.1544C10.0088 13.5765 9.40313 13.8102 8.77508 13.81H4.69809C4.07015 13.8101 3.46469 13.5763 2.99977 13.1542C2.53484 12.7321 2.24378 12.152 2.18333 11.527L1.39447 3.36829H0.505244C0.371245 3.36829 0.242734 3.31506 0.147982 3.22031C0.0532308 3.12556 0 2.99705 0 2.86305C0 2.72905 0.0532308 2.60054 0.147982 2.50579C0.242734 2.41104 0.371245 2.35781 0.505244 2.35781H4.37878ZM5.7261 5.55768C5.7261 5.42368 5.67287 5.29517 5.57811 5.20042C5.48336 5.10567 5.35485 5.05244 5.22085 5.05244C5.08685 5.05244 4.95834 5.10567 4.86359 5.20042C4.76884 5.29517 4.71561 5.42368 4.71561 5.55768V10.6101C4.71561 10.7441 4.76884 10.8726 4.86359 10.9674C4.95834 11.0621 5.08685 11.1154 5.22085 11.1154C5.35485 11.1154 5.48336 11.0621 5.57811 10.9674C5.67287 10.8726 5.7261 10.7441 5.7261 10.6101V5.55768ZM8.25232 5.05244C8.38632 5.05244 8.51483 5.10567 8.60958 5.20042C8.70433 5.29517 8.75756 5.42368 8.75756 5.55768V10.6101C8.75756 10.7441 8.70433 10.8726 8.60958 10.9674C8.51483 11.0621 8.38632 11.1154 8.25232 11.1154C8.11832 11.1154 7.98981 11.0621 7.89506 10.9674C7.8003 10.8726 7.74707 10.7441 7.74707 10.6101V5.55768C7.74707 5.42368 7.8003 5.29517 7.89506 5.20042C7.98981 5.10567 8.11832 5.05244 8.25232 5.05244ZM3.1891 11.43C3.22543 11.805 3.40012 12.153 3.6791 12.4062C3.95807 12.6594 4.32135 12.7996 4.69809 12.7995H8.77508C9.15182 12.7996 9.51509 12.6594 9.79407 12.4062C10.0731 12.153 10.2477 11.805 10.2841 11.43L11.0642 3.36829H2.409L3.1891 11.43Z" fill="#15154C"/>
</svg>
