<svg width="13" height="13" viewBox="0 0 13 13" fill="none" xmlns="http://www.w3.org/2000/svg">
<path fill-rule="evenodd" clip-rule="evenodd" d="M6.5 13C10.0899 13 13 10.0899 13 6.5C13 2.91005 10.0899 0 6.5 0C2.91005 0 0 2.91005 0 6.5C0 10.0899 2.91005 13 6.5 13ZM3.3111 10.608L10.608 3.3111C11.3857 4.31156 11.7714 5.56159 11.6925 6.82634C11.6136 8.09108 11.0756 9.2835 10.1795 10.1795C9.2835 11.0756 8.09108 11.6136 6.82634 11.6925C5.56159 11.7714 4.31156 11.3857 3.3111 10.608ZM2.392 9.6889C1.61426 8.68844 1.2286 7.43841 1.3075 6.17366C1.38639 4.90892 1.92441 3.7165 2.82045 2.82045C3.7165 1.92441 4.90892 1.38639 6.17366 1.3075C7.43841 1.2286 8.68844 1.61426 9.6889 2.392L2.392 9.6889Z" fill="#15154C"/>
</svg>
