<svg width="15" height="14" viewBox="0 0 15 14" fill="none" xmlns="http://www.w3.org/2000/svg">
<path d="M6.59777 1.84375H5.44279C2.55536 1.84375 1.40039 2.99524 1.40039 5.87398V9.32846C1.40039 12.2072 2.55536 13.3587 5.44279 13.3587H8.90771C11.7951 13.3587 12.9501 12.2072 12.9501 9.32846V8.17696" stroke="#15154C" stroke-linecap="round" stroke-linejoin="round"/>
<path d="M10.3719 1.73191L5.8213 6.26879C5.64806 6.44151 5.47481 6.7812 5.44016 7.02877L5.19184 8.76177C5.09945 9.38933 5.54411 9.8269 6.17357 9.74054L7.9118 9.49297C8.15435 9.45842 8.49506 9.2857 8.67409 9.11298L13.2247 4.57609C14.0101 3.79308 14.3796 2.8834 13.2247 1.73191C12.0697 0.580413 11.1573 0.948891 10.3719 1.73191Z" stroke="#15154C" stroke-miterlimit="10" stroke-linecap="round" stroke-linejoin="round"/>
<path d="M9.71973 2.38281C10.1066 3.75885 11.1865 4.83549 12.5725 5.227" stroke="#15154C" stroke-miterlimit="10" stroke-linecap="round" stroke-linejoin="round"/>
</svg>
