<svg width="20" height="21" viewBox="0 0 20 21" fill="none" xmlns="http://www.w3.org/2000/svg">
  <path d="M19.4005 10.905C19.374 10.844 18.7238 9.40234 17.272 7.95048C15.9248 6.60489 13.6103 4.99988 10.2205 4.99988C6.83077 4.99988 4.51623 6.60489 3.16908 7.95048C1.71722 9.40234 1.06709 10.8417 1.04052 10.905C1.0138 10.965 1 11.03 1 11.0957C1 11.1614 1.0138 11.2263 1.04052 11.2863C1.06709 11.3465 1.71722 12.7882 3.16908 14.2401C4.51623 15.5856 6.83077 17.1899 10.2205 17.1899C13.6103 17.1899 15.9248 15.5856 17.272 14.2401C18.7238 12.7882 19.374 11.3488 19.4005 11.2863C19.4272 11.2263 19.4411 11.1614 19.4411 11.0957C19.4411 11.03 19.4272 10.965 19.4005 10.905ZM10.2205 16.2522C7.76846 16.2522 5.6274 15.3598 3.85594 13.6009C3.11335 12.8629 2.48496 12.0182 1.9915 11.0949C2.48481 10.1717 3.11322 9.32728 3.85594 8.58968C5.6274 6.82994 7.76846 5.93757 10.2205 5.93757C12.6726 5.93757 14.8137 6.82994 16.5851 8.58968C17.3278 9.32728 17.9562 10.1717 18.4496 11.0949C17.9518 12.049 15.456 16.2522 10.2205 16.2522ZM10.2205 7.50039C9.5096 7.50039 8.81465 7.7112 8.22354 8.10617C7.63243 8.50114 7.17171 9.06252 6.89965 9.71933C6.6276 10.3761 6.55641 11.0989 6.69511 11.7961C6.8338 12.4934 7.17614 13.1339 7.67884 13.6366C8.18154 14.1393 8.82202 14.4816 9.51928 14.6203C10.2165 14.759 10.9393 14.6878 11.5961 14.4158C12.2529 14.1437 12.8143 13.683 13.2092 13.0919C13.6042 12.5008 13.815 11.8058 13.815 11.0949C13.8138 10.1419 13.4347 9.22839 12.7608 8.55456C12.087 7.88073 11.1735 7.50163 10.2205 7.50039ZM10.2205 13.7517C9.69506 13.7517 9.1814 13.5959 8.74449 13.3039C8.30758 13.012 7.96706 12.5971 7.76597 12.1116C7.56488 11.6261 7.51227 11.0919 7.61478 10.5766C7.71729 10.0612 7.97033 9.5878 8.34189 9.21624C8.71345 8.84468 9.18684 8.59165 9.70221 8.48913C10.2176 8.38662 10.7518 8.43923 11.2372 8.64032C11.7227 8.84141 12.1376 9.18193 12.4296 9.61884C12.7215 10.0557 12.8773 10.5694 12.8773 11.0949C12.8773 11.7995 12.5974 12.4753 12.0992 12.9735C11.6009 13.4718 10.9252 13.7517 10.2205 13.7517Z" fill="#D8D8D8"/>
</svg>
  