<svg width="24" height="24" viewBox="0 0 24 24" fill="none" xmlns="http://www.w3.org/2000/svg">
<path d="M10.8327 13.6527C11.2427 14.0427 11.2427 14.6827 10.8327 15.0727C10.4427 15.4627 9.80269 15.4627 9.41269 15.0727C8.47607 14.1347 7.95 12.8633 7.95 11.5377C7.95 10.2121 8.47607 8.94072 9.41269 8.00269L12.9527 4.46269C13.8907 3.52607 15.1621 3 16.4877 3C17.8133 3 19.0847 3.52607 20.0227 4.46269C20.9593 5.40072 21.4854 6.67211 21.4854 7.99769C21.4854 9.32327 20.9593 10.5947 20.0227 11.5327L18.5327 13.0227C18.5427 12.2027 18.4127 11.3827 18.1327 10.6027L18.6027 10.1227C18.883 9.84538 19.1056 9.51522 19.2575 9.15132C19.4094 8.78742 19.4876 8.39702 19.4876 8.00269C19.4876 7.60837 19.4094 7.21796 19.2575 6.85406C19.1056 6.49016 18.883 6.16 18.6027 5.88269C18.3254 5.60235 17.9952 5.3798 17.6313 5.22791C17.2674 5.07602 16.877 4.99781 16.4827 4.99781C16.0884 4.99781 15.698 5.07602 15.3341 5.22791C14.9702 5.3798 14.64 5.60235 14.3627 5.88269L10.8327 9.41269C10.5524 9.69 10.3298 10.0202 10.1779 10.3841C10.026 10.748 9.94781 11.1384 9.94781 11.5327C9.94781 11.927 10.026 12.3174 10.1779 12.6813C10.3298 13.0452 10.5524 13.3754 10.8327 13.6527ZM13.6527 9.41269C14.0427 9.02269 14.6827 9.02269 15.0727 9.41269C16.0093 10.3507 16.5354 11.6221 16.5354 12.9477C16.5354 14.2733 16.0093 15.5447 15.0727 16.4827L11.5327 20.0227C10.5947 20.9593 9.32327 21.4854 7.99769 21.4854C6.67211 21.4854 5.40072 20.9593 4.46269 20.0227C3.52607 19.0847 3 17.8133 3 16.4877C3 15.1621 3.52607 13.8907 4.46269 12.9527L5.95269 11.4627C5.94269 12.2827 6.07269 13.1027 6.35269 13.8927L5.88269 14.3627C5.60235 14.64 5.3798 14.9702 5.22791 15.3341C5.07602 15.698 4.99781 16.0884 4.99781 16.4827C4.99781 16.877 5.07602 17.2674 5.22791 17.6313C5.3798 17.9952 5.60235 18.3254 5.88269 18.6027C6.16 18.883 6.49016 19.1056 6.85406 19.2575C7.21796 19.4094 7.60837 19.4876 8.00269 19.4876C8.39702 19.4876 8.78742 19.4094 9.15132 19.2575C9.51522 19.1056 9.84538 18.883 10.1227 18.6027L13.6527 15.0727C13.933 14.7954 14.1556 14.4652 14.3075 14.1013C14.4594 13.7374 14.5376 13.347 14.5376 12.9527C14.5376 12.5584 14.4594 12.168 14.3075 11.8041C14.1556 11.4402 13.933 11.11 13.6527 10.8327C13.5556 10.7417 13.4782 10.6317 13.4252 10.5096C13.3723 10.3875 13.345 10.2558 13.345 10.1227C13.345 9.98959 13.3723 9.85791 13.4252 9.73579C13.4782 9.61367 13.5556 9.5037 13.6527 9.41269Z" fill="white"/>
</svg>
