<svg width="32" height="33" viewBox="0 0 32 33" fill="none" xmlns="http://www.w3.org/2000/svg">
<path d="M21.4971 5.27959C24.6716 8.73647 24.6716 13.529 21.4971 16.703L18.8569 14.0475C20.177 12.1933 20.177 9.78925 18.8569 7.93511L21.4971 5.27959ZM26.6989 0C32.8749 6.3638 32.8278 15.8859 26.6989 21.9983L24.1373 19.4371C28.4904 14.4403 28.4904 7.30658 24.1373 2.56123L26.6989 0Z" fill="white"/>
<path fill-rule="evenodd" clip-rule="evenodd" d="M14.1416 11.0021C14.1416 9.26895 12.7322 7.85949 10.999 7.85949C9.26585 7.85949 7.85639 9.26895 7.85639 11.0021C7.85639 12.7353 9.26585 14.1447 10.999 14.1447C12.7322 14.1447 14.1416 12.7353 14.1416 11.0021ZM17.2843 10.9962C17.2843 14.4625 14.4654 17.2814 10.9991 17.2814C7.53277 17.2814 4.71385 14.4625 4.71385 10.9962C4.71385 7.52986 7.53277 4.71094 10.9991 4.71094C14.4654 4.71094 17.2843 7.52986 17.2843 10.9962ZM0 31.4291C0 25.3638 4.93548 20.4299 10.9992 20.4299C17.0628 20.4299 21.9983 25.3638 21.9983 31.4291C21.9983 32.2964 21.2959 33.0004 20.427 33.0004C19.5581 33.0004 18.8557 32.2964 18.8557 31.4291C18.8557 27.097 15.3313 23.5725 10.9992 23.5725C6.66706 23.5725 3.14262 27.097 3.14262 31.4291C3.14262 32.2964 2.44024 33.0004 1.57131 33.0004C0.702375 33.0004 0 32.2964 0 31.4291Z" fill="white"/>
</svg>
