<svg width="32" height="28" viewBox="0 0 32 28" fill="none" xmlns="http://www.w3.org/2000/svg">
<path fill-rule="evenodd" clip-rule="evenodd" d="M24.8895 10.8954C24.8895 10.0383 24.1926 9.33984 23.3339 9.33984C22.4752 9.33984 21.7784 10.0383 21.7784 10.8954C21.7784 11.7525 22.4752 12.451 23.3339 12.451C24.1926 12.451 24.8895 11.7525 24.8895 10.8954ZM28.0004 10.8933C28.0004 13.4662 25.9066 15.5599 23.3337 15.5599C20.7608 15.5599 18.667 13.4662 18.667 10.8933C18.667 8.32035 20.7608 6.22656 23.3337 6.22656C25.9066 6.22656 28.0004 8.32035 28.0004 10.8933ZM13.9998 6.22417C13.9998 4.50838 12.6045 3.11304 10.8887 3.11304C9.17291 3.11304 7.77757 4.50838 7.77757 6.22417C7.77757 7.93996 9.17291 9.3353 10.8887 9.3353C12.6045 9.3353 13.9998 7.93996 13.9998 6.22417ZM17.1115 6.22226C17.1115 9.65383 14.3209 12.4445 10.8893 12.4445C7.45771 12.4445 4.66703 9.65383 4.66703 6.22226C4.66703 2.79068 7.45771 0 10.8893 0C14.3209 0 17.1115 2.79068 17.1115 6.22226ZM18.5734 18.7374C19.9252 17.692 21.5897 17.1103 23.3335 17.1103C27.6221 17.1103 31.1113 20.5994 31.1113 24.8881C31.1113 25.7467 30.4159 26.4436 29.5557 26.4436C28.6955 26.4436 28.0002 25.7467 28.0002 24.8881C28.0002 22.3152 25.9064 20.2214 23.3335 20.2214C22.271 20.2214 21.2614 20.5854 20.4463 21.2309C21.2926 22.7803 21.7779 24.5567 21.7779 26.4436C21.7779 27.3023 21.0826 27.9992 20.2223 27.9992C19.3621 27.9992 18.6668 27.3023 18.6668 26.4436C18.6668 22.1549 15.1776 18.6658 10.8889 18.6658C6.60026 18.6658 3.11113 22.1549 3.11113 26.4436C3.11113 27.3023 2.41579 27.9992 1.55556 27.9992C0.695337 27.9992 0 27.3023 0 26.4436C0 20.4392 4.88603 15.5547 10.8889 15.5547C13.8865 15.5547 16.6025 16.7727 18.5734 18.7374Z" fill="white"/>
</svg>
