<svg width="26" height="28" viewBox="0 0 26 28" fill="none" xmlns="http://www.w3.org/2000/svg">
<path d="M4.46875 20H23V9.875C23.4792 9.77083 23.9271 9.63 24.3438 9.4525C24.7604 9.275 25.1458 9.04083 25.5 8.75V20C25.5 20.6875 25.255 21.2763 24.765 21.7663C24.275 22.2563 23.6867 22.5008 23 22.5H5.5L0.5 27.5V5C0.5 4.3125 0.745 3.72375 1.235 3.23375C1.725 2.74375 2.31333 2.49917 3 2.5H15.625C15.5417 2.91667 15.5 3.33333 15.5 3.75C15.5 4.16667 15.5417 4.58333 15.625 5H3V21.4688L4.46875 20ZM5.5 17.5H15.5V15H5.5V17.5ZM5.5 13.75H20.5V11.25H5.5V13.75ZM5.5 10H20.5V9.875C19.7292 9.70833 19.0258 9.42167 18.39 9.015C17.7542 8.60833 17.2075 8.10333 16.75 7.5H5.5V10ZM21.75 7.5C20.7083 7.5 19.8229 7.13542 19.0938 6.40625C18.3646 5.67708 18 4.79167 18 3.75C18 2.70833 18.3646 1.82292 19.0938 1.09375C19.8229 0.364583 20.7083 0 21.75 0C22.7917 0 23.6771 0.364583 24.4062 1.09375C25.1354 1.82292 25.5 2.70833 25.5 3.75C25.5 4.79167 25.1354 5.67708 24.4062 6.40625C23.6771 7.13542 22.7917 7.5 21.75 7.5Z" fill="white"/>
</svg>
