<svg width="46" height="47" viewBox="0 0 46 47" fill="none" xmlns="http://www.w3.org/2000/svg">
<path d="M17.375 17.3612V29.6363C17.375 30.5158 17.7688 31.185 18.5563 31.6439C19.3438 32.1028 20.1125 32.0646 20.8625 31.5292L30.2 25.449C30.9125 24.9901 31.2688 24.3401 31.2688 23.4988C31.2688 22.6575 30.9125 22.0074 30.2 21.5485L20.8625 15.4683C20.1125 14.933 19.3438 14.8947 18.5563 15.3536C17.7688 15.8125 17.375 16.4817 17.375 17.3612ZM23 46.4428C19.8875 46.4428 16.9625 45.8402 14.225 44.6349C11.4875 43.4295 9.10625 41.7951 7.08125 39.7317C5.05625 37.6667 3.4535 35.2385 2.273 32.447C1.0925 29.6554 0.5015 26.6727 0.5 23.4988C0.5 20.3248 1.091 17.3421 2.273 14.5506C3.455 11.759 5.05775 9.3308 7.08125 7.26583C9.10625 5.20086 11.4875 3.56648 14.225 2.36268C16.9625 1.15888 19.8875 0.556217 23 0.554688C26.1125 0.554688 29.0375 1.15735 31.775 2.36268C34.5125 3.56801 36.8938 5.20239 38.9188 7.26583C40.9438 9.3308 42.5473 11.759 43.7293 14.5506C44.9113 17.3421 45.5015 20.3248 45.5 23.4988C45.5 26.6727 44.909 29.6554 43.727 32.447C42.545 35.2385 40.9423 37.6667 38.9188 39.7317C36.8938 41.7967 34.5125 43.4318 31.775 44.6371C29.0375 45.8425 26.1125 46.4444 23 46.4428Z" fill="#15154C"/>
</svg>
