<svg width="123" height="18" viewBox="0 0 123 18" fill="none" xmlns="http://www.w3.org/2000/svg">
<path d="M121.125 6.93L115.732 6.465L113.625 1.5L111.517 6.4725L106.125 6.93L110.22 10.4775L108.99 15.75L113.625 12.9525L118.26 15.75L117.037 10.4775L121.125 6.93ZM113.625 11.55V4.575L114.907 7.605L118.192 7.89L115.702 10.05L116.452 13.26L113.625 11.55Z" fill="white"/>
<path d="M9 12.9525L13.635 15.75L12.405 10.4775L16.5 6.93L11.1075 6.4725L9 1.5L6.8925 6.4725L1.5 6.93L5.595 10.4775L4.365 15.75L9 12.9525Z" fill="white"/>
<path d="M43.875 12.9525L48.51 15.75L47.28 10.4775L51.375 6.93L45.9825 6.4725L43.875 1.5L41.7675 6.4725L36.375 6.93L40.47 10.4775L39.24 15.75L43.875 12.9525Z" fill="white"/>
<path d="M78.75 12.9525L83.385 15.75L82.155 10.4775L86.25 6.93L80.8575 6.4725L78.75 1.5L76.6425 6.4725L71.25 6.93L75.345 10.4775L74.115 15.75L78.75 12.9525Z" fill="white"/>
</svg>
