<svg width="38" height="40" viewBox="0 0 38 40" fill="none" xmlns="http://www.w3.org/2000/svg">
<rect width="38" height="40" rx="4" fill="#15154C"/>
<g clip-path="url(#clip0_2276_12103)">
<g clip-path="url(#clip1_2276_12103)">
<path d="M27.8172 11.1815C27.9038 11.2681 27.9629 11.3783 27.9874 11.4983C28.0118 11.6183 28.0005 11.7429 27.9547 11.8565L20.681 30.0402C20.6169 30.2004 20.5098 30.3397 20.3716 30.4429C20.2334 30.5462 20.0695 30.6092 19.8977 30.6253C19.726 30.6413 19.5531 30.6096 19.3982 30.5338C19.2433 30.4579 19.1123 30.3407 19.0197 30.1952L15.0472 23.9515L8.80348 19.979C8.65763 19.8864 8.54017 19.7554 8.46407 19.6004C8.38797 19.4453 8.35618 19.2723 8.37221 19.1003C8.38825 18.9283 8.45148 18.7641 8.55493 18.6258C8.65839 18.4875 8.79804 18.3804 8.95848 18.3165L27.1422 11.0452C27.2558 10.9995 27.3804 10.9881 27.5004 11.0126C27.6204 11.037 27.7306 11.0962 27.8172 11.1827V11.1815ZM16.2947 23.5865L19.746 29.009L25.6622 14.219L16.2947 23.5865ZM24.7785 13.3352L9.98848 19.2515L15.4122 22.7015L24.7785 13.3352Z" fill="white"/>
</g>
</g>
<defs>
<clipPath id="clip0_2276_12103">
<rect width="20" height="20" fill="white" transform="translate(8 11)"/>
</clipPath>
<clipPath id="clip1_2276_12103">
<rect width="20" height="20" fill="white" transform="translate(8 11)"/>
</clipPath>
</defs>
</svg>
