<svg width="25" height="25" viewBox="0 0 25 25" fill="none" xmlns="http://www.w3.org/2000/svg">
<g clip-path="url(#clip0_1039_16629)">
<path d="M12.4998 1.38867C10.3022 1.38867 8.154 2.04033 6.32679 3.26123C4.49957 4.48214 3.07543 6.21745 2.23446 8.24775C1.39349 10.278 1.17345 12.5121 1.60217 14.6675C2.0309 16.8228 3.08913 18.8026 4.64305 20.3565C6.19696 21.9104 8.17677 22.9687 10.3321 23.3974C12.4875 23.8261 14.7215 23.6061 16.7518 22.7651C18.7821 21.9241 20.5174 20.5 21.7383 18.6728C22.9592 16.8456 23.6109 14.6974 23.6109 12.4998C23.6109 9.55293 22.4403 6.72678 20.3565 4.64304C18.2728 2.5593 15.4466 1.38867 12.4998 1.38867ZM19.7567 8.77062L10.6317 17.8887L5.24284 12.4998C5.05867 12.3156 4.9552 12.0658 4.9552 11.8053C4.9552 11.5449 5.05867 11.2951 5.24284 11.1109C5.42702 10.9267 5.67682 10.8232 5.93729 10.8232C6.19776 10.8232 6.44755 10.9267 6.63173 11.1109L10.6456 15.1248L18.3817 7.39562C18.4729 7.30442 18.5812 7.23208 18.7003 7.18273C18.8195 7.13337 18.9472 7.10797 19.0762 7.10797C19.2051 7.10797 19.3329 7.13337 19.452 7.18273C19.5712 7.23208 19.6794 7.30442 19.7706 7.39562C19.8618 7.48681 19.9342 7.59508 19.9835 7.71423C20.0329 7.83338 20.0583 7.96109 20.0583 8.09006C20.0583 8.21903 20.0329 8.34674 19.9835 8.46589C19.9342 8.58504 19.8618 8.69331 19.7706 8.78451L19.7567 8.77062Z" fill="#11A529"/>
</g>
<defs>
<clipPath id="clip0_1039_16629">
<rect width="25" height="25" fill="white"/>
</clipPath>
</defs>
</svg>
