<svg width="17" height="17" viewBox="0 0 17 17" fill="none" xmlns="http://www.w3.org/2000/svg">
<path fill-rule="evenodd" clip-rule="evenodd" d="M8.49985 14.3771C8.31852 14.3771 8.13719 14.3077 7.99906 14.1696L5.16573 11.3363C4.88877 11.0593 4.88877 10.6116 5.16573 10.3347C5.44268 10.0577 5.89035 10.0577 6.16731 10.3347L8.50835 12.6757L10.8409 10.4232C11.1235 10.1519 11.5705 10.1597 11.8425 10.4409C12.1145 10.7221 12.1067 11.1712 11.8255 11.4425L8.99214 14.1781C8.85402 14.3113 8.67694 14.3771 8.49985 14.3771" fill="#15154C"/>
<path fill-rule="evenodd" clip-rule="evenodd" d="M8.49966 2.47834C8.68099 2.47834 8.86233 2.54775 9.00045 2.68588L11.8338 5.51921C12.1107 5.79617 12.1107 6.24384 11.8338 6.5208C11.5568 6.79776 11.1092 6.79776 10.8322 6.5208L8.49116 4.17976L6.15862 6.43226C5.87599 6.70355 5.42903 6.69576 5.15703 6.41455C4.88503 6.13334 4.89283 5.68426 5.17403 5.41296L8.00737 2.67738C8.14549 2.54421 8.32258 2.47834 8.49966 2.47834" fill="#15154C"/>
</svg>
